<mxfile host="app.diagrams.net" modified="2022-08-17T08:04:00.522Z" agent="5.0 (Macintosh)" etag="qnfBvFTJvuhDkhpCzbvX" version="20.2.2" type="github" pages="2">
  <diagram id="enEtrl8NOmdK1NzO521M" name="Page-1">
    <mxGraphModel dx="2303" dy="865" grid="1" gridSize="10" guides="1" tooltips="1" connect="1" arrows="1" fold="1" page="1" pageScale="1" pageWidth="850" pageHeight="1100" math="0" shadow="0">
      <root>
        <mxCell id="0" />
        <mxCell id="1" parent="0" />
        <mxCell id="rGIQnllXKyzkHNhQzQ6z-6" value="* 面倒くさい&lt;br style=&quot;font-size: 16px;&quot;&gt;&lt;div style=&quot;font-size: 16px;&quot;&gt;* 優先順位が低い&lt;/div&gt;&lt;div style=&quot;font-size: 16px;&quot;&gt;* 運動が嫌い&lt;/div&gt;&lt;div style=&quot;font-size: 16px;&quot;&gt;* 自分の習慣を変えたくない&lt;/div&gt;&lt;div style=&quot;font-size: 16px;&quot;&gt;* 我慢したくない&lt;br style=&quot;font-size: 16px;&quot;&gt;&lt;/div&gt;" style="shape=rect;fillColor=none;strokeColor=#666666;fontSize=16;html=1;whiteSpace=wrap;align=left;verticalAlign=top;spacing=5;rounded=0;fontFamily=Noto Sans;fontSource=https%3A%2F%2Ffonts.googleapis.com%2Fcss%3Ffamily%3DNoto%2BSans;" parent="1" vertex="1">
          <mxGeometry x="-80" y="295" width="400" height="120" as="geometry" />
        </mxCell>
        <mxCell id="rGIQnllXKyzkHNhQzQ6z-7" value="&lt;div style=&quot;font-size: 16px;&quot;&gt;* 健康のためというより、美容のため&lt;/div&gt;&lt;div style=&quot;font-size: 16px;&quot;&gt;* 周りがやっているから/やらないから自分もそうする&lt;/div&gt;" style="shape=rect;fillColor=none;strokeColor=#666666;fontSize=16;html=1;whiteSpace=wrap;align=left;verticalAlign=top;spacing=5;rounded=0;fontFamily=Noto Sans;fontSource=https%3A%2F%2Ffonts.googleapis.com%2Fcss%3Ffamily%3DNoto%2BSans;" parent="1" vertex="1">
          <mxGeometry x="-80" y="425" width="400" height="120" as="geometry" />
        </mxCell>
        <mxCell id="rGIQnllXKyzkHNhQzQ6z-23" value="行動しようと思っていない" style="rounded=1;whiteSpace=wrap;html=1;fontFamily=Noto Sans;fontSource=https%3A%2F%2Ffonts.googleapis.com%2Fcss%3Ffamily%3DNoto%2BSans;fontSize=15;fontColor=#666666;fillColor=none;strokeColor=#808080;" parent="1" vertex="1">
          <mxGeometry x="-80" y="210" width="200" height="60" as="geometry" />
        </mxCell>
        <mxCell id="rGIQnllXKyzkHNhQzQ6z-24" value="関心はあるが、行動する意思がない" style="rounded=1;whiteSpace=wrap;html=1;fontFamily=Noto Sans;fontSource=https%3A%2F%2Ffonts.googleapis.com%2Fcss%3Ffamily%3DNoto%2BSans;fontSize=15;fontColor=#666666;fillColor=none;strokeColor=#808080;" parent="1" vertex="1">
          <mxGeometry x="130" y="210" width="260" height="60" as="geometry" />
        </mxCell>
        <mxCell id="rGIQnllXKyzkHNhQzQ6z-25" value="行動したい" style="rounded=1;whiteSpace=wrap;html=1;fontFamily=Noto Sans;fontSource=https%3A%2F%2Ffonts.googleapis.com%2Fcss%3Ffamily%3DNoto%2BSans;fontSize=15;fontColor=#666666;fillColor=none;strokeColor=#808080;" parent="1" vertex="1">
          <mxGeometry x="400" y="210" width="130" height="60" as="geometry" />
        </mxCell>
        <mxCell id="rGIQnllXKyzkHNhQzQ6z-26" value="行動しているが持続していない" style="rounded=1;whiteSpace=wrap;html=1;fontFamily=Noto Sans;fontSource=https%3A%2F%2Ffonts.googleapis.com%2Fcss%3Ffamily%3DNoto%2BSans;fontSize=15;fontColor=#666666;fillColor=none;strokeColor=#808080;" parent="1" vertex="1">
          <mxGeometry x="540" y="210" width="160" height="60" as="geometry" />
        </mxCell>
        <mxCell id="rGIQnllXKyzkHNhQzQ6z-27" value="行動しており、持続にも自信あり" style="rounded=1;whiteSpace=wrap;html=1;fontFamily=Noto Sans;fontSource=https%3A%2F%2Ffonts.googleapis.com%2Fcss%3Ffamily%3DNoto%2BSans;fontSize=15;fontColor=#666666;fillColor=none;strokeColor=#808080;" parent="1" vertex="1">
          <mxGeometry x="710" y="210" width="210" height="60" as="geometry" />
        </mxCell>
        <mxCell id="rGIQnllXKyzkHNhQzQ6z-28" value="&lt;div&gt;健康意識は高いが、&lt;/div&gt;&lt;div&gt;行動できていない人&lt;br&gt;&lt;/div&gt;" style="rounded=0;whiteSpace=wrap;html=1;fontFamily=Noto Sans;fontSource=https%3A%2F%2Ffonts.googleapis.com%2Fcss%3Ffamily%3DNoto%2BSans;fontSize=15;fillColor=#244452;strokeColor=none;fontColor=#FFFFFF;" parent="1" vertex="1">
          <mxGeometry x="-260" y="295" width="170" height="120" as="geometry" />
        </mxCell>
        <mxCell id="rGIQnllXKyzkHNhQzQ6z-29" value="&lt;div&gt;健康意識が低く、&lt;/div&gt;&lt;div&gt;行動もできていない人&lt;br&gt;&lt;/div&gt;" style="rounded=0;whiteSpace=wrap;html=1;fontFamily=Noto Sans;fontSource=https%3A%2F%2Ffonts.googleapis.com%2Fcss%3Ffamily%3DNoto%2BSans;fontSize=15;fillColor=#244452;strokeColor=none;fontColor=#FFFFFF;" parent="1" vertex="1">
          <mxGeometry x="-260" y="425" width="170" height="120" as="geometry" />
        </mxCell>
        <mxCell id="rGIQnllXKyzkHNhQzQ6z-31" value="" style="group" parent="1" vertex="1" connectable="0">
          <mxGeometry x="-260" y="130" width="1180" height="50" as="geometry" />
        </mxCell>
        <mxCell id="rGIQnllXKyzkHNhQzQ6z-1" value="キュー" style="shape=step;perimeter=stepPerimeter;whiteSpace=wrap;html=1;fixedSize=1;size=10;fillColor=#10739E;strokeColor=none;fontSize=17;fontColor=#FFFFFF;fontStyle=1;align=center;rounded=0;fontFamily=Noto Sans;fontSource=https%3A%2F%2Ffonts.googleapis.com%2Fcss%3Ffamily%3DNoto%2BSans;" parent="rGIQnllXKyzkHNhQzQ6z-31" vertex="1">
          <mxGeometry x="180" width="200" height="50" as="geometry" />
        </mxCell>
        <mxCell id="rGIQnllXKyzkHNhQzQ6z-2" value="反応" style="shape=step;perimeter=stepPerimeter;whiteSpace=wrap;html=1;fixedSize=1;size=10;fillColor=#F2931E;strokeColor=none;fontSize=17;fontColor=#FFFFFF;fontStyle=1;align=center;rounded=0;fontFamily=Noto Sans;fontSource=https%3A%2F%2Ffonts.googleapis.com%2Fcss%3Ffamily%3DNoto%2BSans;" parent="rGIQnllXKyzkHNhQzQ6z-31" vertex="1">
          <mxGeometry x="380" width="200" height="50" as="geometry" />
        </mxCell>
        <mxCell id="rGIQnllXKyzkHNhQzQ6z-3" value="評価" style="shape=step;perimeter=stepPerimeter;whiteSpace=wrap;html=1;fixedSize=1;size=10;fillColor=#AE4132;strokeColor=none;fontSize=17;fontColor=#FFFFFF;fontStyle=1;align=center;rounded=0;fontFamily=Noto Sans;fontSource=https%3A%2F%2Ffonts.googleapis.com%2Fcss%3Ffamily%3DNoto%2BSans;" parent="rGIQnllXKyzkHNhQzQ6z-31" vertex="1">
          <mxGeometry x="580" width="200" height="50" as="geometry" />
        </mxCell>
        <mxCell id="rGIQnllXKyzkHNhQzQ6z-4" value="アビリティ・タイミング" style="shape=step;perimeter=stepPerimeter;whiteSpace=wrap;html=1;fixedSize=1;size=10;fillColor=#23445D;strokeColor=none;fontSize=15;fontColor=#FFFFFF;fontStyle=1;align=center;rounded=0;fontFamily=Noto Sans;fontSource=https%3A%2F%2Ffonts.googleapis.com%2Fcss%3Ffamily%3DNoto%2BSans;" parent="rGIQnllXKyzkHNhQzQ6z-31" vertex="1">
          <mxGeometry x="780" width="200" height="50" as="geometry" />
        </mxCell>
        <mxCell id="rGIQnllXKyzkHNhQzQ6z-5" value="定着" style="shape=step;perimeter=stepPerimeter;whiteSpace=wrap;html=1;fixedSize=1;size=10;fillColor=#12AAB5;strokeColor=none;fontSize=17;fontColor=#FFFFFF;fontStyle=1;align=center;rounded=0;fontFamily=Noto Sans;fontSource=https%3A%2F%2Ffonts.googleapis.com%2Fcss%3Ffamily%3DNoto%2BSans;" parent="rGIQnllXKyzkHNhQzQ6z-31" vertex="1">
          <mxGeometry x="980" width="200" height="50" as="geometry" />
        </mxCell>
        <mxCell id="rGIQnllXKyzkHNhQzQ6z-21" value="行動変容フェーズ" style="rounded=0;whiteSpace=wrap;html=1;fontFamily=Noto Sans;fontSource=https%3A%2F%2Ffonts.googleapis.com%2Fcss%3Ffamily%3DNoto%2BSans;fontSize=15;fillColor=#244452;strokeColor=none;fontColor=#FFFFFF;" parent="rGIQnllXKyzkHNhQzQ6z-31" vertex="1">
          <mxGeometry width="170" height="50" as="geometry" />
        </mxCell>
      </root>
    </mxGraphModel>
  </diagram>
  <diagram id="tk9e_avSMA8mNv0JcaoM" name="Page-2">
    <mxGraphModel dx="1090" dy="649" grid="1" gridSize="10" guides="1" tooltips="1" connect="1" arrows="1" fold="1" page="1" pageScale="1" pageWidth="850" pageHeight="1100" math="0" shadow="0">
      <root>
        <mxCell id="0" />
        <mxCell id="1" parent="0" />
        <mxCell id="90IL2KbpzJZiLgv7fX3Z-1" value="" style="shape=image;verticalLabelPosition=bottom;labelBackgroundColor=default;verticalAlign=top;aspect=fixed;imageAspect=0;image=data:image/png,iVBORw0KGgoAAAANSUhEUgAABMQAAALMCAYAAAALs26tAAAAAXNSR0IArs4c6QAAAJBlWElmTU0AKgAAAAgABgEGAAMAAAABAAIAAAESAAMAAAABAAEAAAEaAAUAAAABAAAAVgEbAAUAAAABAAAAXgEoAAMAAAABAAIAAIdpAAQAAAABAAAAZgAAAAAAAACQAAAAAQAAAJAAAAABAAOgAQADAAAAAQABAACgAgAEAAAAAQAABMSgAwAEAAAAAQAAAswAAAAA5/vZuAAAAAlwSFlzAAAWJQAAFiUBSVIk8AAAAm9pVFh0WE1MOmNvbS5hZG9iZS54bXAAAAAAADx4OnhtcG1ldGEgeG1sbnM6eD0iYWRvYmU6bnM6bWV0YS8iIHg6eG1wdGs9IlhNUCBDb3JlIDYuMC4wIj4KICAgPHJkZjpSREYgeG1sbnM6cmRmPSJodHRwOi8vd3d3LnczLm9yZy8xOTk5LzAyLzIyLXJkZi1zeW50YXgtbnMjIj4KICAgICAgPHJkZjpEZXNjcmlwdGlvbiByZGY6YWJvdXQ9IiIKICAgICAgICAgICAgeG1sbnM6dGlmZj0iaHR0cDovL25zLmFkb2JlLmNvbS90aWZmLzEuMC8iPgogICAgICAgICA8dGlmZjpSZXNvbHV0aW9uVW5pdD4yPC90aWZmOlJlc29sdXRpb25Vbml0PgogICAgICAgICA8dGlmZjpYUmVzb2x1dGlvbj4xNDQ8L3RpZmY6WFJlc29sdXRpb24+CiAgICAgICAgIDx0aWZmOllSZXNvbHV0aW9uPjE0NDwvdGlmZjpZUmVzb2x1dGlvbj4KICAgICAgICAgPHRpZmY6T3JpZW50YXRpb24+MTwvdGlmZjpPcmllbnRhdGlvbj4KICAgICAgICAgPHRpZmY6Q29tcHJlc3Npb24+MTwvdGlmZjpDb21wcmVzc2lvbj4KICAgICAgICAgPHRpZmY6UGhvdG9tZXRyaWNJbnRlcnByZXRhdGlvbj4yPC90aWZmOlBob3RvbWV0cmljSW50ZXJwcmV0YXRpb24+CiAgICAgIDwvcmRmOkRlc2NyaXB0aW9uPgogICA8L3JkZjpSREY+CjwveDp4bXBtZXRhPgpgtfwkAABAAElEQVR4Aey9CZwcZ3nn/3b33DO6Zcm6JeuwLFmyZfm2bIONMbExBMhyJGGTPwlLsiQbQpINOcg6kA3ssmThn5NdQggkJOEGY5tgG4zv25ZsydZhybJl2bqv0dwzvc/v7Xlrqnu6e7qne0bT0vf5fGaq6q233nrrWzUz1b95DucwCEAAAhCAAAQgAAEIQAACEIAABCAAAQhAAAIQgAAEIAABCEAAAhCAAAQgAAEIQAACEDg9CSROz8viqs4kArd94Qszky2J6xKJxIJ02k06k66da4UABCAAgdolYC9h/Ymk22d/uzbd9IsffNSuJF27VzOxZr73tvUzG5NN1yXt3cCo8m4wsW4Ps4EABCAAgUIEEul++1y7rz+d3jTjpgd5NyjEqUrtCGJVAskw40/ge1/94rL6RPpTLpF4hz3IqfGfAWeEAAQgAAEIVIdAOp3ek0i4Tz66/dUv3nrrrQPVGfXMG2X/965YVl+f+lTCJd7hErwbnHlPAFcMAQhA4PQhYP8ws3eD9Cc/9+gD9m7geDcYg1uLIDYGUBly7Anc8ZUv3pJIpb/mXKJt7M/GGSAAAQhAAALjQ8CEsR+0H+t537s//OH28Tnj6XOWw3dsuMX+q/41e7nl3eD0ua1cCQQgAIEznoDeDXrbj7xv1rs3825Q5acBr5oqA2W4sSdw51e+sMGlkrfbf3+bx/5snAECEIAABCAwfgRM0FnR0Jhau3zt+n+79957CaEsEf3hOzdsSDp3u/Hj3aBEZnSDAAQgAIHaIKB3g2RD09rm5S/buwHpFap51+zdAYNA7RD4+q23NrhU6qv239+G2pk1M4UABCAAAQiUTsBefN962fJ5v1r6EWd2z81fX91g/yT7qqVQ4N3gzH4UuHoIQAACpy0BvRt85LINvBtU+Q4jiFUZKMONLYG2ZXN/yc6weGzPwugQgAAEIACBU0vA8oZ83GZAaosSbsO8tum/ZKAWl9CVLhCAAAQgAIGaJZBOJ3g3qPLdQxCrMlCGG1sCpoy/a2zPwOgQgAAEIACBU0/A/t7Nv+Of/u9lp34mNTCDhOPdoAZuE1OEAAQgAIHKCFjxnfmH7riKd4PKMGYdjSCWhYONCU8g7dZO+DkyQQhAAAIQgEAVCNiLL3/zSuBoidbgVAInukAAAhCAQO0TSCUS/M2r4m1EEKsiTIYaewL20jt77M/CGSAAAQhAAAKnnkB6gL95pdyFRDrNu0EpoOgDAQhAAAI1T8AqTvI3r4p3EUGsijAZauwJWAgJz+zYY+YMEIAABCAwAQjYP4GoBl7KfeDdoBRK9IEABCAAgdOBQDrBu0EV7yPiQhVhMhQEIAABCEAAAhCAAAQgAAEIQAACEIDAxCeAIDbx7xEzhAAEIAABCEAAAhCAAAQgAAEIQAACEKgiAQSxKsJkKAhAAAIQgAAEIAABCEAAAhCAAAQgAIGJTwBBbOLfI2YIAQhAAAIQgAAEIAABCEAAAhCAAAQgUEUCCGJVhMlQEIAABCAAAQhAAAIQgAAEIAABCEAAAhOfAILYxL9HzBACEIAABCAAAQhAAAIQgAAEIAABCECgigQQxKoIk6EgAAEIQAACEIAABCAAAQhAAAIQgAAEJj4BBLGJf4+YIQQgAAEIQAACEIAABCAAAQhAAAIQgEAVCSCIVREmQ0EAAhCAAAQgAAEIQAACEIAABCAAAQhMfAIIYhP/HjFDCEAAAhCAAAQgAAEIQAACEIAABCAAgSoSQBCrIkyGggAEIAABCEAAAhCAAAQgAAEIQAACEJj4BBDEJv49YoYQgAAEIAABCEAAAhCAAAQgAAEIQAACVSSAIFZFmAwFAQhAAAIQgAAEIAABCEAAAhCAAAQgMPEJIIhN/HvEDCEAAQhAAAIQgAAEIAABCEAAAhCAAASqSABBrIowGQoCEIAABCAAAQhAAAIQgAAEIAABCEBg4hNAEJv494gZQgACEIAABCAAAQhAAAIQgAAEIAABCFSRAIJYFWEyFAQgAAEIQAACEIAABCAAAQhAAAIQgMDEJ4AgNvHvETOEAAQgcMoJ1Dc0+Dk0NDa5FRdc7C669gbnEolTPi8mAAEIQAACEIBAjRFItdg7RMpPum7mZa5l/Wdc3ayra+wimC4EIHA6EKg7HS6Ca4AABPITuHDDda5l0mTX2X7C7dyyyR07dCB/xwKtqy6+0k09a5bfu/HBe93J40cL9KysedpZZ7sLr77OD9Jx4rh79K4fVDZgnqOXrFrrGpua3d5dO9zxI4fy9Dg1TU0tba518mTXOmmKa26b5Pbs2OpOnjiWNZlUXZ1bd/WbXDKZdH29ve6p++7K2j+WG2fNXeBWXHiJa2ppdfd9/+tuuYlhC5ad60+5cPlK9/K258fy9IwNAQhAAAIThEBq6vmuee0fuXTnftd/fKvr2vo3Zc0s2XaOa1n7x/6YviMbXdfzny/r+HI6t1z0aZeacp4/pHPzZ1zf/gfKOXzEvonmOa5pxYdc38FHXe/r9zrX3zniMePSIdXskq0LXKplvl+m+zpcz+5vDDt1w4K3ufo5b/Lt3S99w/jcP6zPmDTY/JpX/oarn3ej6975L67nle+71os/40+ValvsThx8zLmB7jE5NYNCAAIQyEcAQSwfFdogcBoQSJh4IjFDYsrkaTPcgb2vuIampmFX1tvd7Y4e3D+sXQ2Tpk33x2q9sbl5zASx+sZGL1bpPOmBAS2qamcvXOLONVFHtnjl+W77pifdi88947frGxrdjLPn+vXRfus82T5MbGybMtW1TZnm6urr7ash82VeVvVat2WLiV8tbZP9/YmfV/fo2YfvizdZn3o3c84831YpnzVXXOOSiYxz8NZnHnddHSezzpW7MW3WbDdp6jTfvPT8C90r259385euMOewhFu2Zr17decO19/Xm3vYKd0+d90l9uwvtOe92QS7zW7Hs0+f0vlM5JNLJG6159R+8Fyvia0nJpBYPJG5MTcInIkE6mZcZEKL/S3Sl/0NkGdP8PKJ8+g/+pxL9x6PN/n1ZOMMl5q8zK+n+4r/7Rl2cJkNyaZZLtmY+duVaJha5tEjdE82uNZ1n7RrWeEa5lzn0uf9ljv+47dHQk5q2gXRuUcYqeDu3gOPZotsiTrjfalL1LW6RH1bZlnX5tzgdrJhuhfAkk0zs8ZM2+/2vgMPuYGOV7Pak5OWu7rpF/q2vkNPjFoQq5t1VSSs9R/dkld8i584kaxz9XNvcAlj2LjkPSaIfdf17nvA1c/e4JLNs13j4nebUPbV+CGnfD3ZutCE3I87PUeJ+knu+D232N/MifXec8ohMQEI1DABBLEavnlMHQLFCEyZPjMSW/r7+kz0mefmLDpn2CG9PT3unm9+1UmUOvfCS+3ldqiLhLRgy9euH+a51HH8mPc8C33CcvHKNa5taukvoG2TMy+tOl6eSOdfXp7b/ED/gHv+iYdcOp0OU4iWrZOnuPMvGxpPAtAr5oUVbObc+e6CK98QNke1PHrwgHvkR9/POnb+0nO9+JbVWMLGjNmViXMjnWLOwnNcMpUJU3h5+wsjCmK7nn/OLVy+ygt7C5ef53Zv3ez27dntzl6w2DXYM7N45epIXBzp3OO1v66+0cTIzPMnURIrTGC23cdVl1zpOxw5sG9k70yFyeb5OSt8BvZAAAKnC4HUtLXRpQx07I08e6LGwZXO5//SCyP1825ydbFj5LkUTGJS8/kfC5vRsnvXv7iBk7ujba0kzdup8ZxfzGobaSPZtijq0rjoXa7OvNvKsd5993khKd8xzas+4sWwsK9719ciMUxtzWs+lhEOQ4dRLE8+8Xve+yw6NNXoWtd/OtosfSXt6mZc7HpyBLHSjy/eM9Vq7wJzrved+hqmjSiIpXtPWJ9v2/38edNSm1zTsg+4rh1/b+GSV/l/tDUuea/r3v0tEwM7ip94HPfKyy41JeMZr9MmW+YOe0bHcToT7lRJ85ZMmJg5Wus/vNEOHf7+PtrxOA4C5RJAECuXGP0hUCMEpp019MfpyIHXC3rxHHo981/DpuZW7/lT6PI0XnxM9Ws/diSvIDZn8TlOgtxobf45K8o+dNszj/lwwviBIdRQXloyCYNP/fQu19M19qENuWGP8uzq7e0xEWnIS0+hm6+/vMvJw6zr5EkTHI/a3Lril1D99TLzfvV2d3kRTN5hEtIUMrnDPOxmz1/kX14Xnbva7dy8Ma8YWf3JlzZiPLRXoahYYQJxr9Eeu9fFbPWlV7mz5i30P0PHDx8s1pV9EIDAaUcgmSUq9VloW8P8m/JeZd+hx317vbyHZg/9QyreOVHXnPf4voOPDBMb5KFT6FzxMQutpyYtdfoqx9J97XkFMYl8DfPfGg3V89o9rvvFr0TbY7ZiHnUD3UeyPM/SfZ0u3XfCyRsuWPdL33QDna+aR9hrtrSvk3vG1pupzHcKzVMCYsPCt3svt3p7hrpf+rqFnf7Ee9vJA6th/s0jCmvhesdjme4+aJxP+vnqfHoec0Xb8ZjHRD1Hk3lI1s/K/GNtNHPsePZTrvfVO0dzKMdAoCoEEMSqgpFBIDDxCMwywSLYoX2vWejYFh86pvC9DTe/M+wysWOLX+/q7HB7X3oxatfK7AWLXCqV+TUhL6iO9kwIxNzFpb9Y9vZ0O4VljqUNDPS7gZxQS4WMrjXPr+AppPM/+8h9w/KHKZT0qfvurmh6XR3tw47f8+I2E7teskg0m5t5sGmOMuUyC+Gbh+2+SEwaT4s5ANppi/9HbsqMs8y7boMPt9V9VHipnonnHrnfvbZ7p5s1b4HPybbkvDVeKBmL63hx8zPu4F57oS/DJNQGk4egwjvzeQ+GPrlLhVqus/x7dmDuroq3u02Mfeb+e6JxxFT8ZGK86/lno33lrDQ2tzgJWuWG1NbHBNpiYuzCFassd9xKP6XL3nSz/1mSmDuSKVw5eJqq/2jy9+n+6fpGCu8daS7shwAERk+gbsZ6EwRa/ADymOnd91N3/Cf2LmEh+E3Lf9U1zHuL39d36Ck30P5SZt3ya6X7h/7+J1vnubrBvF5q7913v+9XN3WV97rxGyV86x8jb6f4qQc6X49v+vWUhRg2r/rtqL3v2Auu0z7M51rnpj+z8LrKvJOVYy3X2h+Ql5z9PRuwcL2BHvsTnnmvmPzmu30Iovp37fiScybmjZsNpmDInK/4O4XFG1retV81b7ANrufVf3eNi95pf2ZTFnJ5neu2edeffa3rP7bVvra41sv+yoas/t/gdPdh1/HMx8vG09++2wThVf44iavl5lyTh2PdWVeUfd5SDuh+8avmTfhI1LX+7OtccjA0WfntBo5vi/aVvGL3JWEhzumu/SMfUuG7ksJkEcRGxkyPsSOAIDZ2bBkZAqeMQHNrW+TNJSFg3ysvee8oeUgtXDEklOnDqbzHZPIE2vTQvVqN7LIb3hqNs23j404Cjkyhl/qQWoo98ZMfWn6t0rxJ1l3zJp9cXkLNk+bJpWIAozHl6LrIxpo+a050uPJI5fsA32cho/stBLCaNnXmrEg8yB13ysyzoiaFq0kQyWfbNz1lAkD1X2olFAbr78+8TIft+FLegJdef5O9ZCct6f9Uz67OcpnttpxcEvckism0ruINud6D8bEqWZeH10GXLYgpJHfG7KF7mzu+wm6Dyavt4je+xUTJwtf6wtOPWn68Y+EQ78U3bdbZ0XY1VxSiHLdWC+08Z/UFvklzLFcQkxfksjUXOe+pt2Wjee89FR9+xPW4x2Ixz8n2o4e9B6a8LXXOC656oz0XU0YMl1UBBoVry/os11y5gpgKbqy+9EoviN132zfGXFwfERgdIHCGEqif+6boynuVoN7EGHnOKIdY3cxMjk516N79zaifEqY7fQ1a3YxLXN0ln/Vb/RKTNn3Crzcu/SUT1X4ldCu67D3wiOt48r8W7RN26nxN5/2m3+yznFxdW/867Cp7WW9hgc1r/tD+JmY8zge6DrqOp/4wI0zljNZ/dHNOS+WbTSt+zQSK/CKb8nEFazn/9+zWDPf27T++3byuhu5N6F/x0u5/sLREuiLWsv5Trt7yoMnSxq/vyLMm5Dzmel7+rqXkOpbJzWViXrJtSVaobZEhy96V7h3+XiXhp3n179mzXPi9NohhOmHDgre61NRMwYZ8ExDr7u1fzNqlEOG6aZl/fmXtqMJGr0KRY4JYw4JbLEx2fWZkE6+7yxTElAOvefXvmDfiDHfivp/396bYNLt3/avzz7xPp2Ci6OAyrX+6hrbBdeUhlOdoMD2rXdv/PmyyhMApIVB3Ss7KSSEAgTElMGfx0mj8w/v2OlVuDKY8UMGCd9h0y1vVZh9uc00VKoPJK6zNhBFZEMMkPGi8/a++PKL3hnKUBQ+TMGbuUkUAVElRtmzNuiyRIrevxD3ls8o1iYHr33BjlmfYqzu3m3dceUJB7rjlbCtcdN45y0c8RHMt1G/vSzuqLoglk0MvrppcsWT48rIKIZ66J1PNW+zBO7/jhVUdGzzetC6Rp5jgpD5xCznM4m2F1gf6+4btmj77bPNIsxfAEm2kogkvW6GAuCAmLnq+wnM+0mkquR49A8EUOluuqUhE8DDT8lXzTMw3joQsCYm5/3CfMmNmdEoJtP4FNmrJrLy+e5c7vP919/iP77Cfrbf43HFio7yC8tza8vhDOUcMbTa1Too2yhW4dY5LrntLlPNuhYXrbn7swWg8ViAAgXEiYIJL/exro5P1vPy9aF3t+uAsk1dV3377fZBqcQ1z3zxMYEhNjuVhap1vYXPv8MfVTb/IL/WtzsbTP/L6zANtJKubfY1LtQ79ky+3f2r6BU6VC2UJS0CfL9G/3zn4rdc82vJ50zQu+QXXuOI/RX8TlAer46mPZQTB+ABjuC6RQ+GEI1n92W/M26XP8rCNhSAWF+MUwlnM+k0AC4JY3Yx1rnPzZy2p/tCzFDzbJJJ4z8IiAlX8PPE5xNvzrafzVLBMNs4sK+TPF2yIhanmnkfegbmCmJ6ZkQTD+DjlXFNuVc5E01DKFIXNlmUmcLZe8heR8Nu04oN2n/5X0SH6Dz/t9DWS1c+9MVOIY7DjQPchE7c/5ivWjnQs+yEwlgQQxMaSLmND4BQRiIc0KnF6MHlMhRDCHgtjfG33i37X0tVrIy+O0Dd3qSTxbkhn87sVfqmE3P0mWkh0KmaTpk53+kBbqs1bMrKglCuINbW0ucvffIv/kB7O8/K2590WS7gvm2peT0oGf8hEQnm7SfQYC+swz7Zjhw7kHVoiY/AKk8fMyWNH8/bTB4IrbnybfwFXlclg8ti68i1vD5vRstOKBTwdC/1UKNy8Jcui/VqRZ0/cFpiY2R2rMql5y4NHwoVErm0bn3DnX7rBH6J5Lz1/ndtmlSlzbfNjD5hQ8UBuc95thdCpiEHwVJP3okJZc0New8H5hDZ59eVrD8f4pb1IB3FV28X691lut7hJULrr6/8Ybyq4LqaXXPczTl6Bsj6r1Pi0hUQGz8vcA3NDN5tj3mydJ8v3iFRorsJw5b2n8OaVF13mz5973mYTpiQyFzP9blg2ZXgfhVJKIJWn52N3/8B73AUvPAni4rVry6a8Q2dfX3mCn1hJrJToJ9PvIP0+oxJmXtQ0QmDMCCg/UAiX7D+xy7xBno3O1bDwZ6P17pe/Y+sDPl9X8+qPRu35ViSixcMPQx8laFcC/BMlCGKNi/6DVUq8IBxadKnqi/pwX9RMDMj1ppEQ1hRL6K88Xief+KgbOJF5f5Lnlj7Yy9NpLPNK9Vni8UROBclwLXVTVoZV12/z8iGVUUtmRR55jUv/owmb1/iGZExIbFzy81F7/LCubV/MCsVTqGNSFUZjlop5PSlfXP+S9/m9CYV2mndS/wmrRG1fzkQuFUxomPczUXhs07m/7kNv0z3Z70FpE3GO33VD7CxFVlNWKdkEnLqpq30nnbPj6Y+b99nG/AdZ1c1cS/dbLjaF9o4gwOWKVIUELolfuda5+TMmLH0mtznvtkTN5gv+xKaT+SemCjwoz5ZTqGw+y/HMSzZn3kfUNV/ob74hojbz/Oyxn2OFMcrqLV9etwngAyeKv+NHxxdYyfUC1e+Rk+bpme7aV+AImiEwfgSyPx2N33k5EwQgMEYElPcpVNbrtrxg8XDAhSuGvMP2vLg1EgkKefjker4EUSHerjaJACNZ5kN19ktP7jFBrFO7wrck2uVavE/uvrjXkj5MyyvsxeeeyXSzF53VJt5JmNMH7CPm8fLo3bfnDlGVbeUl01c+i+cQ22PVLl946tF83Xw4mu5lPptsHmi5FgSK0C4vNYkjxWyxJcTPZ6rCKRFR85NXXyiQsMjySO1+4TmnPFijMXkAKq9bEMP0DD4njx+7V3GTuJQ0cUfejfls08M/dfoqZmInQVEmse0n3/2Xqofb6TouuvaGSAzTM/7Evf/uykk4LxE3WEd7eYKRjtPPuMQoeWvJ5OU13cJJQ3izb6zit3YTcB+9y0QxEwFbBz1IJXRLFHvd8srFTeGY8d8VElzLtR3PPe3mmrCrseQxdt76y02UG5uf23LnRn8InCkE6ufdHF1q3KPHh7ZZXi2Zzwm25weD6x15BYZCgsKw9t4hr3Y/YIFv/e0vWa6uqQX2WvLzprMiIU+dlAcq1+TtowT/BS0mQuh8CpMc6NjjuytXk6olBmt/7CPmKTM23ugdT1t4ZgGL5xBrf/Q3C+YQa77gv2VVxwzDSexUSF+uJZvPzmryebAG82hl7RjcUDhps4lcuebDS5/5b15I7XzhL13rRSbumOm8GrPrhb/KPaS0bctJprGCGDZgwlqHVefsP741+3gTzerPfoMl7r/XXgiy/wGmjgMnXy5JgGtZ/xlXf1bmvUqFAEY97+zZZW0pz1jz2o9HYliP/Ux1PicPreFCXtaBgxv6eYj/PKm4QrnWvePLTt5cyQblYE265vP+izv5mD1XozET9RSOGi+K0XfoSXfy6T+25/TkaEbkGAhUnQCCWNWRMiAETi2BED6lWegDpDxYJFgptCkk2lfibXlOBXvmgR+H1axlPIfYY/fcEX3IvvF9H/Bjy2vkgdu/nXVMoY1M328V2u3br337e1wIIVMOsXxeVte96xeyKjXGB5SIpuOWr73IcjE9lyWoLFi6wothof8uE3bG0mZZNb546Go4VzxETd5Sui+5dnj/az4h/0GrAKp7qD4hXFVCn/bL5KEXxKrcMSrZVt4nhdhtfPAnPhxOXnfhWVK1yS1PPFz28PJYW3OFhdYMhsTu3bXDPffoA04J7CXMSRLbbh5pa62PBBB5bd132zdHXRFUz45CheXZpnMq7138mS/7AvIcsHT1hZbLbK7fI29D/YzoOS/H4kLmaDzEdC7lHZP3VPjZUT6xXEHshOUAe/jfv+/vY5ifCiQsOW+t35RoqPnnipPaeeJo9jVJ/Hr8nju9p6KqVOrZWHv5Nd7b8MiBfWF4F782eZEWy1EWHZSzIm9ACdurLr7S75luud0kaut6MAhAYOwJJNsWW5jTpdGJ5A0VLIQ8arv3tbssJDEjest7Kp+Hj3J6tQ7mEJPHU/iQHfce6XjmTzLCRThJkWXXls8W2WveLeaN1LLmD3yfXssh1vHk7w3r37Dwneap9pFh7aGhe8c/WJo0E8xSTZaD7G+8p5PfZ2GkTSs+FLqZCLOtpLCx6ICyVxKWw+xjpvI1DjsyLoC0rP1jEyO7cvqkXdeWz5kgtcX1DSb7Vy6nYAMdeyNPouSkZSaETA67qrKUd17rpZ937Q/9qoXUPuh0L4KwJA9DiUslJW/PmU3j0vdbrqzMdUiQPWmC5ED7Tp+8XpVAu7b9H7t3TZkQQAs37bZnuWvr3+aMUvqmnvEw7/o5b8qMNVjYoPRRCvdM1E+xe/xHJmhlPp737P2RiWH/s/ABefYkYqGcYpLuKf9vpSqs6rkPPxfywtRzMSBPv3LMQqdb1n3SwmQviY7q2XN7JgSzityiwVmBwCgJIIiNEhyHQWAiEtAH4tmx6pISGyZNneHDtyRyBDHi2GErIW3J0Bttv6zHqttJJFMy+rilLCF5MIX5hf36AFyOaV5xT5hCxyrPWDAlac/NeaV99SYCBVPCbZk8w4J4Ju+cJ+/9Uejil/rQvnztxVHbIROa5DknD59yryUaJHfFFJ24h5q8nCTCFDMJBvn66D69YqFhT/z4h/7wydNnmPjws35dFTslRsjkKZYvfFL75AH3lImDcZPQJBFO1t3Z6QUvU0C8F4+8ChdbDqqmQYFO/Xaa55G4vrpru5t/Tua/x/PNY0zt5Vb8W7nuUp97Suc+aULV5sfNM8xMxQ/ESkLfPqtC2N3V4dsl9q248OIoeb9vLPObqqaGMEGF4FZTEFNC+XMsVDGYPP3KFcN0rJ7NYOUyDcfJS3P7pie9mKg2eeLpZym3umv4GQnHzV28LKx6geloTMyKdsRWFLqbSFoYjFVNVcEHCekXK8eXPa/yBFt3zQ0mkEvEzHwYi19bd0fmvsaGK3lVPwuLzj0/8khT3r1CnpUlD0pHCECgJAKNi9+T9Xey0fJ++fxeJhL5PGGDo8j7RsnJvZlXlc/XZaJRXKzJyoGVajQPoYyHrBecSppN6JR0qWkKpS7+LhL3epInmJKF55oqBgZLTVoS9Rk4+UokJnghLHQaXMqzKdkyJ2rt3PL5zLpdc9VsoM+GGvQMStT5cMORxlZ4az7r3vlPlkPsG/5L+1su+nSUN6v7pX/zYXK+ff3/cMkC1RA7t/yF97qLjx+8vdTWvfNrTnnY/HuFPQt1s652DVZBUiaRR4UTOp7+I9f1/OdNyPpHa9PflAbzEnu/CXbFxU0/SOxbsnWhHfcLUYu8tbwYZuJtq11DxhKZMEVjJ2uwENueV26LPPwyfUr/rqqoEhslsiUbp9s1XJIVUlr6SPl7Nq38cCRG9p/cY3Mvj4lGTcY8JgdU9GKUJk/QhkU/Zzn65vsRVEW2HI+4hOVla734Mz58WgPoHU951bp3fnWUM+IwCIwdAQSxsWPLyBAYdwLyDAnhaPGTS/TxOcAGGyVAvPGdPx910YdL5Y5SVcFCtu7q6wvtGrFd3h3lJEHXgCOF+6nPZTcMhXHc9fWvFEwSf/6l9lI2KDxIPNjyxCNe3Lvunb8QiYQarxLTH/v7rQpevrAw7600GC4m75YQ9imPoKMHD/jTKiSsUPL3rEqA3Z0lTVMeOSp2ELd4CKbEm+Bppj4HX3vVcsrtdNe+7d1e3NAzI7FO+Zq2Pf24m7PwHO9tKPFjvomr5VQzVMXGUDxAnkjyPAv52xQ2qedR5zt33SXuGdu3YNl53kNtngk2uzZvMgHtWHQZesbziYhRh9hKi1WoDKZrl6dbIRMPeayVasqdF8IBlQftlR0vlHpoVr+sezvKUFQNqAqqmpNyiekeidFIAuDMOfOiuRwbfA6jhpwVzVO/M3Sf5CH20+/9m39+tj79mA9jVHcVI0gPDIW/yisw2GjDbHW8frb2migbwkLnLFrqdF61YxCAwNgRSDRMt9Cp/LmcGiykKuQV0wxaL1ZYV8aUx+n43W+xts8WzPGlvFeT33RHOKSspYSutsvKC7OT2NV22V8WPY9yN4Wk9MVC4lJTzrN8XO+PxpInj/KqNZ37Yde45D1Re6Ur3kNo058NG8aHp5qnVbAgOmm757Uhj39VGlTYWz5LxNrTPTEv4CK/V1VwIKvogAlNacvJpbA6We+Bh1z/kU1+vV/br91jouIR17joXb5NOcbkaaeQ057d3zJW7/XtEla951Z/6f84aV71US+oaQAJVSGUV+F48nhLtsy1vGgbzPvsXy0H1rd8HjiJco3Lftmqmw4xlSjbsv7TptgN/QPYT6rAN4lhwZqtoudA1/6wOWzZ9fxfuv5jW4a152uQWCvRSZY2IbRz4yfsj2pp73vx8eRlFizdXb53WDjWlD/Xu/ffXWqw+ms5HnHyJms1phKhZcq11vncZ+zZeNZCG1oJlYwgszJRCNRNlIkwDwhAoDIC8giJi17x0VotWXY8fCm+T+v6YJnPGyu3X6nb+tAcTGPHPadCezWX8m6zq8g7pJjMmr8w2idPmpPHj/qwSwkH1TJds/Je5bOtzzwRhW/OM0+rNZfbS6HZnhe3W46zp/16c9skL0b5jZxv2cJCxvsm0yX/NeccHm222DmCtRuDXFM+KoliQbwKOaJ6urt8TrTgXSZvsR3P2ryLvDjHx47nKlOoZDzHlooxLFl1gff+mXH2PB8C+tLW59wyS+AvcXepJYLf9NC90XCTpk2PcnZFjSWuSHgrZPJIK9UkaoZQST3flXgrxb0iKxGNJPTu3/OyCwU1RvKIk9dmvIpsrvdYLou4N2X8d4UKW8i7UONtfOheK8bQHR3aYF6lwUYTLhmO1VKVLoMg1tjc7GbOmV8wT1/8ONYhAIHRE2hc/B+8B0++EepmDnldD9sfwqHMA6gqNii4+LFMgEmnR85bWvF5vXdWnlEsZLHZwhJDwvOBrgM+HNH3NK+3alrcuy4+rnJkdW68NWqqM2+5ID7E2zXPuBdfdICtxIUTFQoYjclDLohhOn4gT442eZ8FQUx9ks1zvSdXz6t3RoKYcrg1mPAaRC31K2ZJ8+qLQiXteeiM5yCzZ6/LcmC1rP1DP4QS93c8+ftOno0JE2Mk7HS/+BWfN8x3sLa6aUPe3sXOm7tPOer0VciUg61UQSwksddYvRJYj4/un2yJWLhrltBZaJJF2ntf/7H36lMX7xFn3nd9Bx4ucoSqxF5jYcoW9hnLy6fnWOJheJ6V600emCq20L3rX52KKGAQOJUE8n96O5Uz4twQgMCoCCixtfI+5TNVMszN9aVcY0H40IdVeQs9+dPsUMPVl1wVCWk7N290Rw7uyxpeYXf5LF4VUfnL9EE5t8JhvuM23PyuKIxTYY9HDw3/z9u1b3tPdJ33fOuf/DDySgkeR/FxFdYW9zTTNSrfkqzXclS9ZHnE8nnUxcfQuj7Yx/OB7bNwy2HhbSaMDGsbHGjRuatMQMmEVigUNNhsE+qCKNc4GKoY9sWXBb2IytPDXHPb5GhYiYL5LO6N1WQiRzB5QQVBTOLqWXNNkHj1lbC74FKCz1mWTy1YbmVQCUo7TKS84Ko3+i7L1qx3T/zkh04J/BWm29TSEg71S4XedZlwV6qp0pUElLjlO76c/F3h50ZjygtPHlOjNVWGDKZ8WZWYktoHQUwecXqmJHLmsxkx7zDtP2qhsaO1QhVGk7GqpircUYnpuZQX6+RpM/wwyodYqHBFJefhWAhAIEMg2TzHNZggVsg6t/xv17X9S1m7J234st/WB16ZQr7igoGEh5CEXtXvOi2vVa71HX4mtymTw2uwVd5nPkfZPW+1lqF/vg07yBrqzeOm2cLQZMpZ1qFE3jmmHFYK5ZPJK6z7xa/69XSBhN/Kq5RqXZDpY3+/Oq36n3IuybxYkKeKod+Z861+1lUmDmXeBwbMk8cnfM/pE7ytcppdqs3yjy7/YNScaBwSZeLtdVPXRH1yV+KeY9lVHkt/sZC4FWyg55iFyQ55c4f2tN1nVb1UeKRM16zQxoF2q1ZqokhgqZxfpQpiqlQZTDnJcgUVLyhZOGWqbZFPuC+Pvu5d/2b3+QN2mP0D2DyXlEjfm4VADnTau22JHmI6RsJaXPBR0YB8Fn4O8u2Lt0mcVDL9YN27vxlWy14mkkMebOne0b+b6MRetDq+3QouLPfzqLcqo8UEMeUCbFyWyTGcO/EghqldYZ36qrMKpf6+v/xdL1Lme35yx2EbAmNBYOhNfCxGZ0wIQGBcCCjHVPAOU0iaPqAH7x5NQKKDQsIkToS8QnFPDnmmyMMkV+DoXNUeCWJK8J6bqLvQxSlsK1i/CWIaW18jWbyPvJLCXOPHZbzNMuPn2x/61ls+tPXXvjkSz9QucSSYvMpK9eyRsBAXxLZvfLKsfFHK6xbP7RbmoBxg+SpGhv1hGfciCvmZtE/3tRxrmTTkIXby+PAXV41VyJNnv4lfuj8hTFBha7nPS765KHQviH6HLa9ZvmTo8ko7xxLUN7e1WejmHp9Qf+OD9/rwvFzRQx5++irH9ByEkF09wz55fDkDxPrKE1DXHixX4AvtpS4DT/WPP/+lHh/vd2CQXfB2U8GF3LDZ0H+meeMFU5hvIYE09BnNMi72VXptOr+ekyCITbHfeRgEIDB2BJpW/mbk0aHqiqm2xVknS1ty/UwSffu7OtCdCYUa7BFCtQZObDfxavvQcSaMDAli++zD9UND+4qsxUMz3WBYnc9RVuQY7Yr3Ue6nfB+4QyGATP/2vH3CaRos9K9h/s1h0/+NigtnEguKCQbRgbaSSDV4MUBtCiXren64OBjvH19XLramWMhmfF+h9ngfL/4M5m9Te5YnUYmCno5Ltgz9HYkEJu3IMQluiciTaug9TCJgavA6UlMsz23L/JHze5lwJS+vYN0WejncBiwp/Jdcy4V/ah5aVlHdRLk+Y5zuO2HC430u3T30DyA9Eyd+Wlj4HT62RX2awNZ6+d9G3nEdFoJZSXXR+jnX289a5iO5hNuyk9fHJxnzUlSoYqXWayG4QRDTPcpr8pq04hXx0N3QT+GfCpEdsN8hCmXVs5s0QTll1UolkkkolSdq3VmXW9GFD9oPQ/5/4oXxWEJgLAggiI0FVcaEwDgTUI6uEKaoEDQlRo8LYvKmWLr6Ai++/OQ7X/NJr5VwP5hEkPPWXzHMkyZewfBcS4reOZgHKxynpSrAtZsHWtxS9UO/Wvqs+p5MgtL5l26Idxu2Hvciu+LGt+X1+or3GTbAYINYXLjh+qyQMO0q5dh8Ywa2+faV0qYiBoFd29RpUcVICZchVE1eYNMHvchyx2xqbo2aekrMIRYdMLiisMu4p1nuPQv94552mVDUzB7lh1KesRB+WijfWRgnLEPhA20rz1Uhe+LHd7p+E9xUXVImYaxatvnxh9yG2e/0+bXEWB5e+jkZjSnMMHic9ViBg1JF4kLnkoAdBEN5xEkIHq3pfsnTK4hdEsoLCWLx+1fsvox2Ljou/vxIoK7UVCgiWJuFrcq7M36OsI8lBCBQGQFVlVT+JZm8e1RxTuJCZCamNJ/7a16Y6Hn1h17MSQ5WL/THWN4o5USKh8qpXV5nwVKWQ6zlQsuTlGP95jmk82WZqjwOWrpvyDO9bcNXbMyzw65hy3i+J1UHnHzDj4r2GbYz1lA342LXtPI3Yi2Z1YQlVx+dDQlD5R6vHGJx4a3+7DdEQ8Q9zVLTLzJPnCHP8NBJxQ/Ce40Ei7hwGPqUskyaB1YwCR6FLKvqZTrzTqi+vft+miXs1Vk1wp6Xi//tlwin8D3ZQM/xgkJU7+s/cSfuf3HIE8z6K29ZNaz/2PO+CEF4vptX/45rf+CX7Yeld1TDp8xTKpjmXZHF+GYVsRjloH1HNkZHJtvOkXucXefQPZR3YutFf24iYbZY1nfoafO4/FcrOvCY9R/+D3F5F+rnKfyekaegKsJ2PPPx6HysQGC8CAx9ah2vM3IeCECgugRM/AnhdgoF2/bMY1Zt7g1Z55h59lwXEqpLHNuzY2tWKJo8xCRYNZgHWSGTOBYXyEI/VfLLEldsPsFDTB5MElJkqg5ZriBVbv8wp9WXXlUwQX3oM57LrZaU/vC+vf6U2TnEtpWUQ2y6JaUP1mEVGoOp4l+pFk+grvC1QqF08RDS3Nxvr7+yKxLEVKFUubTyeXzF56TcUsGKeSFVkj9L42fCK1u9R6PCLNPW5sMrO06ax+QJJ6++89Zf7qeiMNpDr+8tGOLqOxX4Vur1FDh8WLMEsFDZs9FCUeMhq8M6l9Bw4sjhmCA2M+8R+l0gXsHGShDrjom3xXIYhnmMtDxx9Ij3itQHOYmIk0xcPn740EiHsR8CECiTQLJpKLS/28IiBzpeyxpBnh31FuKm/FH1ljNI3k1DHkByGDvsq8vFhZqsAWwjYZ4s+fYnTywYJojFPcTSMQ+ShIVdxUWv3HPkbpfTN36sclZJEAx5w+L7TsW6coh1PPMn0aknveGbUQ6xeHuhHGJ1sWqbA7n5m8oIHVSVxWDyIixkicEqj9ovgTWYT9I/mABfbRIde17+TtiddxkXQAdO7s7bJzQW81oLfQoubc4K901YeKVf1k/23oPKGZdW3jirmKgiAb56qYk5TSv+kxUG+OuCwxXbUc41FRtH+9KxfHDxcOWRjiu0v//Ei9HfXXmxpSadY/nNtvnuqSmrrFrpfzeBckZ0uLzAFCrdd+jxqC3fykDnXgth/kPXtOq3nfK7yerPvtbCnG9yva/eke8Q2iAwZgQQxMYMLQNDYJwImOj06F23u3VXX2ehZE9ZUuuMh0387K+ZZ85Cy8kkO3vBYvfqi9tM3MrknFAok0IPD5lHThDWwrGqDhj+iyghJl+OrNz8Sc32oT5YEMO0LU8VedcoGbZyd6kyUa4pZ1k8hGzLE1axaNDDLLdvofY1l18T5UbTMfI4CiFkuWOUul1uaGLuuItWnOeCqDVt1tAHDXlbBb657MMYEhLiyc8PWchfsKxktuYdVMzOmpvJeaI+hyz8tZDFE6bLeyluuoe5Hk3x/fnW4wJSlnCar3OZbRLvFJK5cPkqS7SfeZ7zDSEvonhFTYlByln22N23lx12Gr+eYgJfvnnka5N3ZhDE4j87+fqW0qY8W8EKheMuWTWUQFjhkvEiB+HYaix7YjkGm1qHfi+Mdmz9PpGnZfh50PUhiI2WJsdBoDCBnj23OVUhlJdX965/sZCpFVmd0z2HzTNnowkY60wQmGnhT6stV9P5UR+FUypMKjcfmMQDVf+Tpc1rxFedi47KrOgDeK7FBYN4XiR98G5c8j6fU6zv6HO5h7m6mZdlhXHJa6Vn7w+H9QsN+eaTmnyua73kL3yol/opxLIanjc2Ujht2ctk62KfqykcmGgc+ueHcjgFi9+T0KZlSEiv9b5DT2kxZDFBLC5eDXXIrCm8MdU6P2r2nkDRVs5KvLhCTBBTL3mJ6R7KSuEafxZGEsT8oGV+S7YucsorpzxlcSE2dxhVl4zzaVj8bnven8ry3Ms9ptB2/Jr62wdzmxXqPEL7QKxiaCi0MMIhxXdbpUuJV6nB8Fj9PEgQU5inwiTjucEUvtq19e+kiBcfM7a364W/8UJoyCUnL0EEsRggVseFAILYuGDmJBAYWwJdHe3u4X//fsGTKNRIYpbEFVXykzdY8L46csCSiZptfOheLbLsshve6kIS+Ocee6Ck8LCWSVOiMU7GvJnmLzvXJ0qXiNFmVS/z5e9atuYiX60uDCBPlmcfvi9sZi2bWtrcpW+6ybVYovhN1kceWBdc+QZ/baGjPF+UDD4kbA/t472cbSKkvnKtkNddvF88jFKCUjzHVxDT1L9ojibzqJEQGUxFAQpZvDBDbpJ3bT//5CNOeeEOGe9CXmbxseMVMuNzj/cZzbqeoUuu+5lhIm6+sfTM6bmPm55rVS3ctvGJePOI61nXU0F4YziRL0wxLbNVzItqqs13xQXrfVGIYrnb5CEWTEKbfs7j4rEqbUoUDyZxfKws7vXXGAv7zXe+tfazq+dDxTuKhY0eP3o4EsRaY79r8o1JGwQgMHoC3Tv/yQ7WV37ree0uL4hpb8OCtzuF4QVTmJUSwueKJPIoar3ks75b/5Hn3MnH/ks4pOhS4kuwgY7MP3R8yJWFbeqD+oDt7975z/6De+gXlvG8Rqmp57n+5z/vk7qH/fFlwwJLsH/Vl1zva/e4Tuun5PVeDLMk6jKF/p188r9axbzfH5ZTLT7OWK8rDLJp2S/nPU2h9njnuunros3c3FdZXnBFclDFk8D32z0pJk7FhaV4zjVNomfPD7zIKPFUoYgjWcI8tYKlLZF/1cw8wppX/67ldbuppCFzxSa9j0kgan/wA+aldbCkMUKneMVPic2VWMjfpzEyQqkiCfKLr81rP275447az85X/bLQeQeO74gEMeX/ksmbL4hhEqk7nvu069uX/3290Li+3cQzPQPNVg1Uliu++0a+QWCMCSCIjTFghofARCGg0MZzzDNEf7TXXnFtNK0De/f48Km4EBJ2xj2r5BkT944JfZRHKe4JFs9dpuqWwfShPITjLV55vmu3KocK3Sxm85Ysd/JMe/G57KpTcxcvc6suuSLy/Lrkure4x++5002JeQm9Zte76ZH78iazL3bOau1T0nrlDss1CXghn5KYiEOuxcMQZ8zO/DddfULYZegfeGpb+bcKmUSQEA4rD6/cRPXx47IFn+H/5Xtl+8gvrPHxdP8kXslUtTLkUov3KXddHkK5Ypg8AV838bPDuHd3dfkhVWV00hTL2WahdfmeXXlKyVuxmACTO7d4yGo8t1tuv1K349Utm9smFTxs+dqLzMtwjv+SKFkomb+81uTRGMRS/QzHBbF41VUx271tS9Y5NYfZ8xe71sn2gcsEdFWJzXiG5n+hzjo4ZyPuPaoQR42Xz8tUeeZCdcz5S1e4u7+RqfKWM5zf9L9TMu/j0c9/vn60QQACY0ug7/V7XdrCnZQUu8GqOQaTB1X/0eddIk9ur8RgVUX1TdS35e1jbjcWkrY/DOeXyZgnUshVJWElqlxoAlHL+k+79kfsQ3WB6pD+nKkmn++o3YS4+DkSDdNNzPiYq7fE3jIlzpfg1rP3331FQbXpuk4+9Qd2bZu1Of5mHnVKuJ4v7DOev6n/xE77D9lQWKImmnbG1PJtyXRfhrz00jbm0749+pblITY84iD0q591ZVg1IeSBaH3YiglNWYJYjoilSoYZ8XXYkXkbgiCqnfEw3bydy2hsueBPhoXwKiF/r+XACgUklC9OImnSwgZVZCL3XqhyYqNVt+wyMbUckzdlKFqhcGV5ZI3WVEAgmEIcxSj+rId98v5smHuD35QIePzunwm7hi37LTS1frBVFTZlnS/8tauzHHX2Q+hOPvG7+QVRC622RG+DRxZeDFgly2Be/FbOQPNMwyAwXgQQxMaLNOeBwCkm8PK2593ic1dnhSRqShJHLr3+Jjdp2vSiM1QoYj6TF9YzD/w42hXCmdRwwipbBtu1ZZObah5fwVNKhQAkXqjyYDGTF49CA5W8X0LSakvMf/bCJdEhEnh2btnojhx43T36ox+4dde8yR09uD+vB1p00DisvLpru9NXrkmEOffCS3zzKzteGHGecQ+xeLikBohX8YuLHrnnnLPwnKhJHoG5nl/RTlsJwpnaRpvAPz6eigYEQaxt8tSqCGKZAhAt0WmUH0zCVn9/X9SWu6J8Z0vXrPMCaRCL9JwU45Y7hrZDEQStS3Cr1A6aIL1w+Xl+GP1sPP/kw8PmJG+2LGG0yM+MxDAJXSFHmH5mgieffm4kjgbbvXVLVMRA4urKdZe5BctXRkn+Q7/cpcRz5aRTkYViJo8vhWOG0E0VM8gVt3X8MrsvwXKf8dAelnHxMgjLYR9LCEBg/Aik+9rNs+N212jhZXHrO/SErxjXarmFilnK8nJNvvbrebuceOCXzItrV2afJfCX0CBTMvmQ80rVATue/rhrveyvvDAmQaHlgltdx5O/bz2zw/39wYPfJAa12THtj/2WS1v+rLpZG8zj679G51A3iUqdL/yVr5DZaSJaw8J3+pxdA+0mNp0yGzCPut/Me/bJb77bGJj4YNb+6G+YKNiet58avYgxuFeM5SGUZbEqhc484vKZvAElqATr3V9YEFPobTD9fcpX6TPsL2XZd+yFqFuydWG0XsmKig/E89n1t+92HRs/kV0hNfcExrthwS0W7vkLPmxYuzNhwBtze4643W/XFAliVqigEkHMhzNbSGPwtFLoZ/eL/zhsDnFPQoUSF7P4MxKFtdoz1q7n0QSv+H5nYlbT8l+x/GrXmqg82+53u/087fC/K3pNYM5nyssWTO9nElDTCGIBCctxIIAgNg6QOQUEJgIBhVXKG2TJeWui6cg7xedBsj9Ao7W4l5LGmDRtKGyiPSaIaZ9CG68wbyEJI/IYmW0f0AsJYq/t3unzQ+k4fWCebOOqal48rEwhhJse/mmUA0khWo/86DYdckpN+cDiVfzik5lu3jDBFBI6d8mysBktlfNKQqPCHINnk8+DFcsfps71sSIIfb3Dvbl8HxNE5i1dHo29v0i4pDrFRR4lpa/Ujh0+EOV0kyBSzDut1HNNO2tI1Hlx80b34uZnRjxUXnfP3H+P9xZbdv46CyWs90JuMREt36DyepIoo4qdun9t5oGW+5znO65Q20HL56Y5SNyUwDP/nBXDvLbigpFyoZ2I5QnLN668NoMgFrw89XO64oKLo+4SAl/aOpRzRyLjQhPD4qYwXP9yasfGTWGYF7/xLSZC7zOh+umiOen2v/pKJIhJ+Ntpwni8MqRCQeM/K7tfKO59ERfEwrXF58Y6BCAwfgS6d3zZvExutA+w5tExaL0HHvFeI2F7VMuYl5KEs2AZ77Ahb1WF2HVt+ZwJWr/nu9RZtT59CA+iWThOyz7rm6yf4r2jlLOp7bK/thC9F6Iqd+qj3KY9u/7VEqb/vW1kvKx6Xv62JXr/tnafUlM+NBURyGdBDNO+hrlvtiKAJ4d1kygxYPnZlB8rWN+hJ8NqtMwSsAoIaxII5X0kGzCPr3y518KAcdEqrfxWeSoOhr6lLCVi6pxJE9rqrFJp0jy2IvG0lAHy9FEF0mADJhCefPyj5hU2JNKEfVlLE4JUtbLnldvMo/CtJo69zYSnr7h4lc+s/kU29By6QS9LCVjxCqJFDiu4q3f/Q0OCmN1vhRPHK0Ompq6xkMf10fHdu78RredbyQpNHfQQU79czzOFs7Ze8YUovFJ95AlaN/1C/9VrBTh80YecZyA3/DR4M+p4DALjQQBBbDwocw4ITBACO004WGTJ9UPi+vZjmfwLGx/8iWuwqoG5tuZy+89p6yTfrIT9Id9YvF885EsJ2afFPFBOHLGXn5gptPLp++5x5118uZPHmoQEVf6T58oDd2S/cMrjR+FaCyz3mEwJ6IPpw7y8wnZtedaSvBcOFQz9x3t51rwF7nzzZBvJ5PkTcrTl9j1yYL87Z/UFUbMKI/T2ZIteEmWC5SumoH0LTIQIVT/FM5/XWhhDS3lSBcsXzhn2lbo8dmgobHS2VThtsZA8JXIfrWl+cSFkj3nZlWPtVqkw7tFYzrGhr67prLmZnDYSmJ+10NzRmkSnw6+/5vTMyBatXJ0liGUEo3nR8C+NIBipY69ym1lYqSywkhgV996UiKhiGjJ5jcXFsL27dvjn5LAEWBPLFeY72TxIc3Px6dlVuLLCkzc//lDkbeYHHfymQgxB0JNQPHfR0qxncHnMO0wFAeLFD+LjhHV/bYMb4drCPpYQgMD4EpA3Ss8r342SouvsCjOTh0v7Yx8ZNhl9MA6eKapG1/Hc/xzWxz5me+Em7IgngM+XcF8FAJJK+G2eXPrgr3M0W/ibkv4r1CuYPmSf3PTnru3yv/Uf0lUMINk09He6z0Ihu7Z83hKGl/c3JYw/1kvlLdOcR7LmVcO565iePXdYbrS7vYikbS/+vfI9rWaZRMNg8QIGoU0eQHGvwB4/RmGPPFUlDDZgnlfVMAlIyUERq3HJe13ns5+qaFgl0g+mvHcjimGhs5YSxioUTb0gNjhmnSpXKi/eYK68+KlKXe8zQcwt+2XfXRUg6y00svfVO6PDm5Z/IFrvt/xg/blhs9HezErcqy+ETOZ08ZtNqz6aJYYNdB00Ha7DvN8y7++qytm49D8OqyKbsp/ZYN5bbFCMDm0sITDWBBDExpow40NgAhFI1ZlLfcwbTB/qlc9L4pPL8ebStLvMQygIYgpJ9B+Qi1zPVPPcGRLbjtrx7cN6yyPtpeefc4ssfFNhVyF8bWZO0nMduNkS+cuCKOY37NuTP71rWD6tsG8iLNP9hV8OS5mfOs8LXgAAQABJREFUwgrkBRXEMm1LzMy1ppahsMEgbsT7yCto0YrVUdPLlv+rWLikPPCCZ5EOqsTzKZxUIXPyzpKQpfmsu+YGq4p6mxc7Q59ylolktjdjvCpmOeNU0leiYhDE5PWmn409FSSnlzdgEMQkPslrUKKUeK220OJgJ0zMG8nDT33jXlT6cKmfyaXmFRdM90QhzMHiYZQquCCvy8js2dPPbJd5xsVN4mrIO6giHRLudJwKeMRN55IAKiFUppBheX9KyFaF0HixAyXUH8lyr22k/uyHAATGlkDCQhrj1nLhn5qHzUfsQ/ZT8Wa/Hk/Yrg+++frkHhQP8es7+Gjubr/d/dLXzfPp7a7tyv/jJADI5K3SvzNbgFHid82t5eL/lRMi+aI7+ciH7ajK/nb7E4/Vt3RfZSPb8Y3n/GI0hjyZBk6+HG37FeVuinsAWVhqrskbKoTNqchAz0vFvYtUSCFYfwiDDQ2jXErcCV5d3qPqyLOu1xKzV8Pi3nbVGK+UMfqPb/VhuhIP9TPSsu7PLfT1PxfNh1dsXIm6Ax2vmbA2x3dTFU8VipB4p+qQWd5hllB/JMsKiSyQoN8eChfPK9e14x9N+PqSDZ02EeyXfBilztN4zvtd794fDQl+9vujcdE7oyn4eUZbrEBgfAggiI0PZ84CgQlB4Nx1lwzLD6Qk2/rAXMqH0ZEuIp7vKveDu0LLlCNJybPjYXkas6P9uOu0Kpj5TKKYciLFQz3XX3uDe+HpR90r2yfmf3JffWmH27/3lXyX469DxQ1ke3Zuc1uffnx4PwvbWHvlG6N2iRQKD821ydNmRk1dncP5LVy20qowZjz/5Im0W8JnEVMRg2A6Xz6RLewvdSkx77lHH3CXv/kWL35OsgT3Sogv8USFB8q141ZFUc9D8A5aceHFvkJq0Sqb5Z5khP6vm6BzwAo7BBFr1SVX2XwaMyGIdr3l2l57XpauudB7YunY1Tae8m+dbYJRyO2X4Xh/SUNvMW8tiZ9iIm82HXvM8qVpvsq59+wj9/u2MFjI8abtI/v3heasZTw8V5UxH/rhd92qi6+IcgIqtFchmY/eNfxDifKGrbn8aj+ezrX2ymu9h6i4BVMorYTBkez44UPusbvv8GJhd1flIb0jnY/9EIBAYQIKV6vPqcqXshxIyut1Ujm6cpLjFx6pwJ5ko0tNXeV3pgd6Xe+BmCBm4o2S4Cv3U92sq6MQPnWW91OhML5+y6908tHf9NUjk5ZwXKawzNZLP+c6Nv13m3P+34G+4yn8prxqhcSaSdd9P/rn4on7ft4XAMidanLSEtd26f/vm/U3QeF9uZaavDwaR7yzhRDrbfejccl7osN6XlGFyMJ/xxMN01zdzEuj/qo8Wg3rff3H9izcaPf/Cj9cs3kmSZjtMWF0NKKmqqIGMafOnikJRvnCSasx97xjWAhh53P/w7XKe9Fy5qbsXqm6aad5NBar3pl3rMHGLssb1mKFImQ+v97aP3bdL3/HNa/6ncEe5k1u4c29r/8k2i600m9J75VzL2EFEga6D+XtplDbUGTAP1+7/sX6Zd6HlMNMIb910873P6d1Z11p4aYmpNrPcOu6P7N71xqNqUIWGATGmwCC2HgT53wQOEUEJFbJI0OmP1YSI8IHYX2QVTjbyyYwvbb7Rf9BWv1UUU9hTrJszwzfNOxbPNm9QqWU90t5ws42ISxXBNPBSmquann6IKw5FbKtTz/mk7EH8U45jCQanL1gidv6zGOWQyz/H+hC45XbrvOVZXYt8dCu+LHxsMekvfg0W+U95UWToKAKfzqXQlODB5KOzZeIXAJF3LMnt3qfwimXWWXCYBLflGMtmIoP6BhVjZT4pWdhgQlowQ7szfnPcdgxiqUS0St/nYo6yJR766qfeYcXBPfvedl7HpYc+mpslXhdz6tMIusVN77Nj3/A8lWFBPJ+Z843eVyJi/+yEGGF8OoZHI1tfvxBt2HWu7yXlPLhrbzoUvPssnBA8xSTuFNOWKiefVWOXH/tm/1UQo6u+LxeNn7xhP7xfbnruq+5z8OTP/2RD5eWIBavYqpjJXAFm2G/J1564dmwGS3jP9vy/BTnpy0n2+KVa5yEdnl6FhKo95pHnbw8w/OqseLjydts82MPRucaaWWksMqRjmc/BCBQDQIJ13yePiSn/GDySEk0TvMfilMW8jVpw1esSuOPLJzsu5bjaWemj+VnUj9ZKSFh9bM32Afoet8/VEOstxxZStgtoSURTwBvvRSe1WPeQ/JaUthmveVjymcSGVSRUt5sdVMzf5cUajlpw5ddlwlFyg0lb5oxteRQyoOSzmNJxgsmGleIWSKTVF8JyVVZUHmZks1zfPidkt43WahasD7bDvcktGlZb0JFsHQs0XloU7hbyPeUHuhz3S/9a9jl74c80HrMU6v3dfMyHuh2TSs/HAmV6t9bwMMvGqSMlc7Nn3V19oz567V8Zs0r/7PPn9bz6u2Wg+uRkp6vcLq+g487d+6v+02JOvIg1HPbu++nGWE1J+dVOM4vB4s+KL+bvvoPP2PPYXtWl1I2lA+vZ/e3XePin8sMO+U813bVl3wy+r79D2aqgZbxTCqBfZ/lNasbFJQlHMcLB+hnpXPz/yplatYnPXJYpQllA91HTDOd5sdU8YoBy1sXrPulf/OCmLb1s6s8f0q+H88R2PPK97PCpcOxLCEw1gTK/JQ31tNhfAhAYCwISIy6cMP10dDbNz3pQ6bOv+zqKOG5RIo19qUP9hIp5LV1aN9eJ+8kiRUNjc0W3tRi3mRJ8zJLea8yLfVB2IeQzZnvk+XrJF32YVlCw7Vvf3cUchlOrvxfr5mHjTxYFE4VTKF6DU2FXxDV/+ih/f46QviVknFfcePb3b5XXnLbnnm8LBEinDd3KaFp+qyMm7n2SexQSFg5plCyehNeGk10kaCoryYtLcRx6oyhhPAKjdNXrsWFqb2Wn0lJ1CWa+YICxlvVOuVpFxfqFE4Xt3PXXRqFP8qjKi6qKTQyCErKKaf7VV/f4O+pxpBAU0kIYHweYV33J2WeiOHa5JWovFb6UpJ1CYVKBj9gCeYPvr7X389wbO5yi4knegZCvjMtQ842CVEaS95tem79cyURzJ6teDioxjxgFR6fvHd0/42U4PSUhe7K2ykUevCFH8xr6jx3heszsU1z0Fx0fZseMo+4E4X/ky4xT/do6flDuTTCdSuR/7aNT4TNUS8lSuazuCgoL7KLzANT4pbOq2dMz4pCq4Mp11cwiWcKrT1r7gInT7d8pudJeQovu+GtEat4v+12bbkCXnw/6xCAwMQj0GS5qkJ+L3mNtD/8QRNf5ruW9f/TwhEne6FCuab01XfEqgAffc4+BL/uurb9rQk7JjaZB5Kq+3nBy0Qv7/00uFSusP5jW7Jyk/Xtu98+0F9rXi9/MAyG+uvDdM+rP7QkZkMCf8o82AqZvNdOWkXGphW/Fnk9yVOl2YSRxkX/wTyovuzHLHR8Oe2paWtNLMkIBTpOSf2DR1JJ45joGAQXhYSqymNmqTxo5uVm4WrB2q78YliNlg3zbozWVanTFw2wltTUzO91efdIDJPYGEyVNuOWbF1gnN4bNfXs/maWB6AS7Yfk6enzP2Z5uA75AgfhAO+JlCfZf9hf7tLfv6f+wLWs/aNIpEtNXuaaJ/+WcybUpvtMQOw97r3l0iYYdm76M/O2eiXvaSTcdFpxhiYv8FqVQ+PduOhd/kvC0YA9K5mxTOiyZ1RVT8P9CIJtGLj94V/zz27YLmfZte3vvMir6pUyjR1+hlTBMt17wrz27D3CxMa+g/Z30/oXNOvfsfFWXzwieELG+3Zt/79Z9y++b3TrVuH6wMNWYOAm/7mg7dLPm0fad01Q3OjnHYowaGyFu4aQ13Cu3n0PmED3F2GTJQTGlQCC2Lji5mQQGH8CCplbc8U1Jmg1+pPLu0KV3kz18MnAD7y2x5174SXeQ0kdJBooL1I5pg/98Q/MIT+RPL+WnJcJDzxm4pdEltfsQ7M8QuQNdeXP/Gx0mtZJU3ylvdCQLwROnmAP3fldE+0uc/OXrvBdJcjJ20ReVfI2q9Q0lrzPipkEpkImL6Trf+79/oWgUJ9S2+UR9Nyj9/vuqy650s2atzDvoRIv2y1PVzB54sSFtq3PPJHlOTUtVulSx0isi5vu02jCGeNj5K7rfsoLSGKrhNgQyql+3nPLxMNQ2CFpFRcloBUyebo9evftbu0V13ohJuShU/+MWDqp0KFZ7RLoKjH9LD1w+7d96GCct8ZUIQN9hSqhCn0sJojpGAnVEtL08xjspHlpPvmTH5o3W19oqvpSHm0SleVtJ9NzVuhZU/GG8PPtO9u3g/Y7RF/FTOLaIz/6gbv4uhsj4Vz9dzz7VFYRgWJjsA8CEJgYBBosJ1Hjwnf4yeiDupKaSzCQiNX+oOULWvEhE1dujP4OKlRKX6WaxJiuF/4yqpQnwU1iVyLVYP9g6PHimSopSmRR2J7OK5O4VTcz8/tT4pa8VIYsjxe6zb1r61+b981TTmF3qlApU/L6xmW/4r1zKq2KqPFaLvxk5Dmj7VxL93fkNmVtNy77gHl4vT+rbTQb+udE57MWhmcee6nJK6zAwN8UHEZeZXFrWvlfvECjNnn5BVEt9Kkz0S+YxI/EIEu1KddY945/CLurtlQy+BMP/LLdu49477D4wKp86qufDs4jNWlZQUFMxykxvgQniWISdIPJA00hhyWbPaOjNnu2Ozd/xom9L6LQOD0aSiKdRDinL1nSzlNMELMuaROg2x/5z6714s9Gie11aJfdC+8FqY0qmkTpullX2dQsfLJ+0uAzW/y5VcVQVXbNVLocqOJsGAoCpRNAECudFT0hUJMEfDieeRfJ5Any5L13eTEsXIzyIe1/Zbebe84yN3veIjf97DlZwlToV2wpT6/Wwap28vQIoVO7tz5vIsBxn2g7V2CR55U8avLZCcsTlRvWFfpJjJJI9OrO7W71pVdaqN80p/DMaohhOkc8fCycM76UV1ExbxZ5A8ljJngvxY/VusRAHS+BILM84UNTFZ46bdbZvuqm+mmfPJCCMFgon5cEimcfvi8r5FSee/3maSVBRkKhwiLjJlby8pF3mJKa1zcMvcDp+p5/8uF496quS3y5//ZveiFLhRTk5Rc8rMKJigmOUR+7bvGR950PwTMxRyKrRDU9W4VMPD13C/sbqUhEoTHi7Zqr8qHt3rbZikTMd7qmKSZI5s6hlGvSuBKbVLVRBRXkMack9SWHk8YnVub6xofutdDHS92CpedGnoK5Q+iZUWhnOeGg8TEUavngHd/xoZPNLW3uyMF9PhQ63od1CEBg4hOoG/Qs8mKYed6oMl8weQZJdOm2sEV5JilfUKp1fthd0lJJxuOV/7pf/Kr3ikmbZ0zHM//NC2K9FkaWG9YoEUZ5sPJZ77778jX7Nnm2nHjg/VYB8wOuYVEmZK3j6T+WklPwmHJ2qBqnGwwlyz3Ohx7u/Fpuc9a2eBQy5UtLdx/OeDFZ/jN54UmwGuh4xapsvuLarviC9ybT8d07/j7KGTVgAmYhk9CokLtsGxIrOrf8hb8f8f0n7nuP5ZN7qwlTb3FJE5DCP6okXCo320BH8X+axMcqa93CE+X9JYFHoXgSRFNTVtkzkv0RV/MYyXpfu8uHSWYSz19s45znQ07DtRQ6fsBCgdOdxl6eZBY2WKnpeWy//xftZ+cKu56LzRPz4ownYGxgea6VYsqJ1/7gL5s34Gov+Cq3nsIVx8K8IG7zblr1265hznVFT6EKlBIhuxWeHPPqLHoQOyEwRgQSYzQuw0JgTAjc+c9fzPMvvjE5VU0PesFVb4zyhSn5tYQneQVteeJhnzep2MXJW0deLcqzpNA/eevoZSB82UokqPmbYf9xlCeYRI21V77BquNtLyncTuNd/3O/aC8tQ+KFxCiJFArtUpjgSKYxlHhcXkfKB5XPZlm410WWL0smQfCRH92Wr1vUJg+jeEW+sENhhYcslM/nL7JrLmYSRiT0KM9S5qvT8ndl1iWIFbOlqy+0SnxrLDn57VmioEJalQNO/+H1Xya8aezXjH2+fGXyuDvXwl+3mXfYSNUiFVKr6oYSigoJkcXmXOk+CXIpE+8kIimhrMQ8zWW0poT7CpFM2bMrMUkimMbs77NlgedktOfKd5wEyboGXY/9R9euSbniOk0MCuJmvmMmSpsExhmz57oWE7j1O6Cnx/6zb/dCeeYkrmLjS2BgIP2nN7//g7eO71lr72xH77y6+C/l2rukCTVjiVNtytdkf3MlRHWawNG0+necclGVUhVO4YL+y7xGfAJthUaax4t/n3B6B9Dts6/Bv60KgVSeL4XhNcy/2cIxP2T7+kZkohxWqmgXTDm3lKtMOa1KTbiebLNKfz4X1FNhmGHLtiu/ZMLbMt9+8onfzRIEh3W2hobF7/WJ0uP7FNIn0UrVHiUiFjNVzBQL+4Pi+8pjLm2CwkC3FU0xMczUqYKHJy2fW8tFn3IqJiDhKDLjr+qD3uvIRDWJfwqnVIJ5eV4Nt8Rg/2neq274/liLeefJA83/PT+2dVQ5tWKjlb9q3lNZz5mJYwOdli/UBNXyzd5LzEvM6dlVFU6ZeXKJlcbTfTTXskz7GH73lT3t/D5EU8+Bnb/iohVjOV/LrZYwD02fx85ChA3SoFi71577vSaClSbojeEUa3rotL0bTLv5gVtr+iIm0OQRxCbQzWAqIxNAEBuZET2GEwgV8gYkiJgwgkEAAhCoBQIIYqXdJQSx0jjRq0oELPF6wiouyopVWazS2RgGAhCAQBYBBLEsHBVvZPuTVjwcA0AAAhCYeAQKhRtOvJkyIwhAAAIQgAAEJjQBy4mlvFgYBCAAAQjUPoGhWKXavxauAAIQgAAEIAABCEAAAhCAAAQgAAEIQAACIxJAEBsRER0gAAEIQAACEIAABCAAAQhAAAIQgAAETicCCGKn093kWiAAAQhAAAIQgAAEIAABCEAAAhCAAARGJIAgNiIiOkAAAhCAAAQgAAEIQAACEIAABCAAAQicTgQQxE6nu8m1QAACEIAABCAAAQhAAAIQgAAEIAABCIxIAEFsRER0gAAEIAABCEAAAhCAAAQgAAEIQAACEDidCCCInU53k2uBAAQgAAEIQAACEIAABCAAAQhAAAIQGJEAgtiIiOgAAQhAAAIQgAAEIAABCEAAAhCAAAQgcDoRQBA7ne4m1wIBCEAAAhCAAAQgAAEIQAACEIAABCAwIgEEsRER0QECEIAABCAAAQhAAAIQgAAEIAABCEDgdCKAIHY63U2uBQIQgAAEIAABCEAAAhCAAAQgAAEIQGBEAghiIyKiAwQgAAEIQAACEIAABCAAAQhAAAIQgMDpRABB7HS6m1wLBCAAAQhAAAIQgAAEIAABCEAAAhCAwIgEEMRGRESHiUQgnU4PTKT5MBcIQAACEIDAWBFIONc/VmOfVuPybnBa3U4uBgIQgAAEihBIpHk3KIKn3F0IYuUSo/8pJWAfDvad0glwcghAAAIQgMA4EUgk+ZtXCup0IsG7QSmg6AMBCEAAAjVPIMHfvKreQwSxquJksDEnkHCbxvwcnAACEIAABCAwAQik0/zNK+U22D/LeDcoBRR9IAABCECg5gn0p9P8zaviXUQQqyJMhhp7AhYy+a2xPwtngAAEIAABCJxaAvb3bs9Nv/jBR0/tLGrk7GnHu0GN3CqmCQEIQAACoydg/yjbM+OmB3k3GD3CYUciiA1DQsNEJtC+Y+8/2vxemshzZG4QgAAEIACBSgkkEu6TNka60nHOhONfbT/8jwbqpTPhWrlGCEAAAhA4cwkkEmneDap8+xHEqgyU4caWwLtvvbXH9fe/3158e8b2TIwOAQhAAAIQODUEzDvsB49uf/WLp+bstXfW1e/e3JN26fe7dJp3g9q7fcwYAhCAAARKIKB3g889+gDvBiWwKqeLpV3AIFB7BO74yhdvSaTSX3Mu0VZ7s2fGEIAABCAAgfwE9MLbfqznfe/+8Ifb8/egtRCBw3dsuMWSDX/NXm55NygEiXYIQAACEKg5Ano36G0/8r5Z797Mu0GV7x6CWJWBMtz4EfjeV7+4rD6R/pRLJN5hD3Jq/M7MmSAAAQhAAALVJWAvu3sUJinPsFtvvXWguqOXP9rtt99+TblH3XzzzfeVe0y1++//3hXL6utTn0q4xDtcgneDavNlPAhAAAIQGD8CyhmmMEl5ht16qzvl7wbjd+XjdyYEsfFjzZnGiMBtX/jCzGRL4jr7r/AC+6UxaYxOw7AQgAAEIACBqhKwl7D+RNLtUzXJwQT6EyJnmIlhi0yge6Gci7X+/3TLLbd8sJxjxrLv3tvWz2xMNl2XtHcDy8TGu8FYwmZsCEAAAhCoHoFEut8+1+5TNcnBBPoT4t2gehc4sUaqm1jTYTYQKJ/ALR/60EE76uvlH8kREIAABCAAAQicjgTm3vIk7wan443lmiAAAQhAAAJVJEBS/SrCZCgIQAACEIAABCAAAQhAAAIQgAAEIACBiU8AQWzi3yNmCAEIQAACEIAABCAAAQhAAAIQgAAEIFBFAghiVYTJUBCAAAQgAAEIQAACEIAABCAAAQhAAAITnwCC2MS/R8wQAhCAAAQgAAEIQAACEIAABCAAAQhAoIoEEMSqCJOhIAABCEAAAhCAAAQgAAEIQAACEIAABCY+AQSxiX+PmCEEIAABCEAAAhCAAAQgAAEIQAACEIBAFQkgiFURJkNBAAIQgAAEIAABCEAAAhCAAAQgAAEITHwCCGIT/x4xQwhAAAIQgAAEIAABCEAAAhCAAAQgAIEqEkAQqyJMhoIABCAAAQhAAAIQgAAEIAABCEAAAhCY+AQQxCb+PWKGEIAABCAAAQhAAAIQgAAEIAABCEAAAlUkUDeasQ7edsXKRDK5NukS810i0ebSaYS10YCcSMck7S4OpHtsSocTabetr989cdbbHzwxkabIXCAAAQhAAAIQgAAEIAABCEAAAhCAQDUIlCyIHf3BhnPSKfdhO+l7Ey4xN+vkiUTWJhu1SSCRHLqP9SnXd+SODT9Np92X7j75wL+9+92uvzavillDAAIQgAAEIAABCEAAAhCAAAQgAIFsAiN6dpkQNu3onRv+ziUT20wI++gwMSx7PLZOHwJ1iUTi+mQy8c9vnnT1C4fvvOqm0+fSuBIIQAACEIAABCAAAQhAAAIQgAAEzmQCRQWxQ3dcdXk6mdjkXOJDLuFSZzKoM/zalyVd8vajd2z4mye+sL7+DGfB5UMAAhCAAAQgAAEIQAACEIAABCBQ4wQKCmLyCLIcYT+2aMj5NX6NTL9aBBKJX1+2sOW2Xf+wuKlaQzIOBCAAAQhAAAIQgAAEIAABCEAAAhAYbwJ5BTF5hiXSiW9ayFzzeE+I8014AjdOnT3/azbLoYRjE37KTBACEIAABCAAAQhAAAIQgAAEIAABCAwRGCaIKWeYhcd9AzFsCBJr2QTs2XjH0Tuu+p3sVrYgAAEIQAACEIAABCAAAQhAAAIQgEBtEBgmiFmmsE8RJlkbN+9UzjLtEp84+v1Ll5zKOXBuCEAAAhCAAAQgAAEIQAACEIAABCAwGgJZgph5h53j0olfHc1AHHNmEZAHYbq+8U/OrKvmaiEAAQhAAAIQgAAEIAABCEAAAhA4HQhkCWLplPsw1SRPh9s6PteQcOlf2PPtS2eMz9k4CwQgAAEIQAACEIAABCAAAQhAAAIQqA6BLEHMhnxvdYZllDODQKK+ranxnWfGtXKVEIAABCAAAQhAAAIQgAAEIAABCJwuBCJB7OBtV6xMuMTc0+XCuI5xI3D9uJ2JE0EAAhCAAAQgAAEIQAACEIAABCAAgSoQiASxRDK5tgrjMcSZR4Dn5sy751wxBCAAAQhAAAIQgAAEIAABCECgpglEgljSJebX9JUw+VNCIO3SPDenhDwnhQAEIAABCEAAAhCAAAQgAAEIQGC0BCJBzCUSbaMdhOPOXAKJhOO5OXNvP1cOAQhAAAIQgAAEIAABCEAAAhCoSQJDglg6PbRek5fCpE8NAZPEMAhAAAIQgAAEIAABCEAAAhCAAAQgUEMEEMFq6GYxVQhAAAIQgAAEIAABCEAAAhCAAAQgAIHKCSCIVc6QESAAAQhAAAIQgAAEIAABCEAAAhCAAARqiACCWA3dLKYKAQhAAAIQgAAEIAABCEAAAhCAAAQgUDkBBLHKGTICBCAAAQhAAAIQgAAEIAABCEAAAhCAQA0RQBCroZvFVCEAAQhAAAIQgAAEIAABCEAAAhCAAAQqJ4AgVjlDRoAABCAAAQhAAAIQgAAEIAABCEAAAhCoIQIIYjV0s5gqBCAAAQhAAAIQgAAEIAABCEAAAhCAQOUEEMQqZ8gIEIAABCAAAQhAAAIQgAAEIAABCEAAAjVEAEGshm4WU4UABCAAAQhAAAIQgAAEIAABCEAAAhConACCWOUMGQECEIAABCAAAQhAAAIQgAAEIAABCECghgggiNXQzWKqEIAABCAAAQhAAAIQgAAEIAABCEAAApUTQBCrnCEjQAACEIAABCAAAQhAAAIQgAAEIAABCNQQAQSxGrpZTBUCEIAABCAAAQhAAAIQgAAEIAABCECgcgIIYpUzZAQIQAACEIAABCAAAQhAAAIQgAAEIACBGiKAIFZDN4upQgACEIAABCAAAQhAAAIQgAAEIAABCFROAEGscoaMAAEIQAACEIAABCAAAQhAAAIQgAAEIFBDBBDEauhmMVUIQAACEIAABCAAAQhAAAIQgAAEIACBygkgiFXOkBEgAAEIQAACEIAABCAAAQhAAAIQgAAEaogAglgN3SymCgEIQAACEIAABCAAAQhAAAIQgAAEIFA5AQSxyhkyAgQgAAEIQAACEIAABCAAAQhAAAIQgEANEUAQq6GbxVQhAAEIQAACEIAABCAAAQhAAAIQgAAEKieAIFY5Q0aAAAQgAAEIQAACEIAABCAAAQhAAAIQqCECCGI1dLOYKgQgAAEIQAACEIAABCAAAQhAAAIQgEDlBBDEKmfICBCAAAQgAAEIQAACEIAABCAAAQhAAAI1RABBrIZuFlOFAAQgAAEIQAACEIAABCAAAQhAAAIQqJwAgljlDBkBAhCAAAQgAAEIQAACEIAABCAAAQhAoIYIIIjV0M1iqhCAAAQgAAEIQAACEIAABCAAAQhAAAKVE0AQq5whI0AAAhCAAAQgAAEIQAACEIAABCAAAQjUEAEEsRq6WUwVAhCAAAQgAAEIQAACEIAABCAAAQhAoHICCGKVM2QECEAAAhCAAAQgAAEIQAACEIAABCAAgRoigCBWQzeLqUIAAhCAAAQgAAEIQAACEIAABCAAAQhUTgBBrHKGjAABCEAAAhCAAAQgAAEIQAACEIAABCBQQwQQxGroZjFVCEAAAhCAAAQgAAEIQAACEIAABCAAgcoJIIhVzpARIAABCEAAAhCAAAQgAAEIQAACEIAABGqIAIJYDd0spgoBCEAAAhCAAAQgAAEIQAACEIAABCBQOQEEscoZMgIEIAABCEAAAhCAAAQgAAEIQAACEIBADRFAEKuhm8VUIQABCEAAAhCAAAQgAAEIQAACEIAABCongCBWOUNGgAAEIAABCEAAAhCAAAQgAAEIQAACEKghAghiNXSzmCoEIAABCEAAAhCAAAQgAAEIQAACEIBA5QQQxCpnyAgQgAAEIAABCEAAAhCAAAQgAAEIQAACNUQAQayGbhZThQAEIAABCEAAAhCAAAQgAAEIQAACEKicAIJY5QwZAQIQgAAEIAABCEAAAhCAAAQgAAEIQKCGCCCI1dDNYqoQgAAEIAABCEAAAhCAAAQgAAEIQAAClRNAEKucISNAAAIQgAAEIAABCEAAAhCAAAQgAAEI1BABBLEaullMFQIQgAAEIAABCEAAAhCAAAQgAAEIQKByAghilTNkBAhAAAIQgAAEIAABCEAAAhCAAAQgAIEaIoAgVkM3i6lCAAIQgAAEIAABCEAAAhCAAAQgAAEIVE4AQaxyhowAAQhAAAIQgAAEIAABCEAAAhCAAAQgUEMEEMRq6GYxVQhAAAIQgAAEIAABCEAAAhCAAAQgAIHKCSCIVc6QESAAAQhAAAIQgAAEIAABCEAAAhCAAARqiACCWA3dLKYKAQhAAAIQgAAEIAABCEAAAhCAAAQgUDkBBLHKGTICBCAAAQhAAAIQgAAEIAABCEAAAhCAQA0RQBCroZvFVCEAAQhAAAIQgAAEIAABCEAAAhCAAAQqJ4AgVjlDRoAABCAAAQhAAAIQgAAEIAABCEAAAhCoIQIIYjV0s5gqBCAAAQhAAAIQgAAEIAABCEAAAhCAQOUEEMQqZ8gIEIAABCAAAQhAAAIQgAAEIAABCEAAAjVEAEGshm4WU4UABCAAAQhAAAIQgAAEIAABCEAAAhConACCWOUMGQECEIAABCAAAQhAAAIQgAAEIAABCECghgggiNXQzWKqEIAABCAAAQhAAAIQgAAEIAABCEAAApUTQBCrnCEjQAACEIAABCAAAQhAAAIQgAAEIAABCNQQAQSxGrpZTBUCEIAABCAAAQhAAAIQgAAEIAABCECgcgIIYpUzZAQIQAACEIAABCAAAQhAAAIQgAAEIACBGiKAIFZDN4upQgACEIAABCAAAQhAAAIQgAAEIAABCFROAEGscoaMAAEIQAACEIAABCAAAQhAAAIQgAAEIFBDBBDEauhmMVUIQAACEIAABCAAAQhAAAIQgAAEIACBygkgiFXOkBEgAAEIQAACEIAABCAAAQhAAAIQgAAEaogAglgN3SymCgEIQAACEIAABCAAAQhAAAIQgAAEIFA5AQSxyhkyAgQgAAEIQAACEIAABCAAAQhAAAIQgEANEairobkyVQhAAAIQgAAEIAABCJw2BI58YvUFLu3elehM/u+pn372yGlzYVwIBCAAAQhAoAYI4CFWAzeJKUIAAhCAAAQgAAEInH4EBgYSrYlk8uPplvRLR/509SeOfmzNtNPvKrkiCEAAAhCAwMQkgCA2Me8Ls4IABCAAAQhAAAIQOEMIJBKJyQhjZ8jN5jIhAAEIQGDCEEAQmzC3golAAAIQgAAEIAABCJzJBBDGzuS7z7VDAAIQgMB4E0AQG2/inA8CEIAABCAAAQhAAAJFCCCMFYHDLghAAAIQgECVCCCIVQkkw0AAAhCAAAQgAAEIQKCaBBDGqkmTsSAAAQhAAALZBBDEsnmwBQEIQAACEIAABCAAgQlFAGFsQt0OJgMBCEAAAqcJgbpav46WCz/hki3z3EDn66575z+7/mNbyrqkplUfdXVTz/fHdGz8UzdwcndZx5faOTXtAqe5ygY69riTj3641EPpBwEIQAACEIAABCAAASdhzL6pKuVvWVXKzyc6k/976qefPQIaCEAAAhCAAATKJ1DbgliiztWddYVLpBpdavJy13vgYZdomDqMQrr3mOs/unlYuxpSk5bZscv8vkTjDOfGSBBL1E9yycbBStrp/rxzoRECEIAABCAAAQhAAAIjEUAYG4kQ+yEAAQhAAAIjE6hpQSw15Vwvhuky0/1drm7Getcw5/phV53ubXfH77nJJeqnuKZzfz1rfxDD1Ni0/FfMQ+zNWfvlzdW985+y2rTRsPi9LtW2eFh7oYZkrG+yaaZrPv9jhbrmbU8P9Lqu5z+nC827n0YIQAACEIAABCAAgTOLAMLYmXW/uVoIQAACEKgugdoWxKatjWj0HdnknIli+azv0BO+OdF0lmuYf1O+Lr6tbtoa5/QVs/72l/ILYia8SZAbrRWbR6Exu7b9nXN9Jwvtph0CEIAABCAAAQhA4AwkgDB2Bt50LhkCEIAABComUNOCWP2sqyMA/Yeect0vf8d17fgHl6hrc5M2fDna1737W3493XXA9ey9y9YT0b762VdHXmZ9R7dYfq+9fl/D3DdFfUZaSfeecAO9x0fqVtl+8xCzk1Q2BkdDAAIQgAAEIAABCJy2BBDGTttby4VBAAIQgMAYEKhZQSzRPMfVTcskw0+n0653333mIdZpEYWdrn7hhghV//Edrv/IRr+tXGKdmz4Z7dNK8rK/icbp2vZ/XP/hp/z++jnXWc7S0opwnnzidy2Z//NZ4xbaaFn35y7ZOt/v7njyY1YMICPAFepPOwQgAAEIQAACEIAABMohgDBWDi36QgACEIDAmUqgZgWxhjlDHlwSsZTrK1jDwp8Nqy54h6WmX2Q5vxZF7WFFFSqDNcy9wfUP9gliWLJplmtY+A7Xu/9Bl+7aH7rmXSpHWcOCt+XdFxrrzrrcJZIZ7I3L/j/LWfZy2DVsKXGvZ/c3h7XTAAEIQAACEIAABCAAgZEIIIyNRIj9EIAABCBwJhOoWUGs3sSrYN0vfzesutT0dVGy+4Ge4673NYVIWsL8pe/3SfejjnlWGubfbK36GrJEXYtrXvXbPml/76t3Du3Is5actNQ1rfhgnj35mxrm3Zh/R6wVQSwGg1UIQAACEDhlBI58co3+2zT0H6dTNhNOPNYE+jf+aevhKSvryzlPQ8/xa+wZ+XI5x9DXknik02eNBweEsfGgzDkgAAEIQKDWCNSkIJaact6Q6NV9yPXtfyDi3mjeXMF69/zA8m71+E3l+UoProf9WiaSDfHNqE+8Xcel+zqy+uXbSPcccf3tu/PtitriXmoDPUdduudYtC+sxPuENpYQgAAEIACBU0pgIH1hIpn4pVM6B04+LgTqzEN91uGnyz3XCjtAX1g5BBJDeW3LOWy0fRHGRkuO4yAAAQhA4HQkUJOCWOOS9w7di0TKuVSTr76YaJzh6mZl8oel0/0+yX7o2PHMn4TVrGVrLIdY+2MfiXKITb7xXp9DTFUm2x/4j1nHFNoYaN9lfd9faLdvn3TtN1yyebZf73jy9/PmHpt03W0u2TCl6DjshAAEIAABCEAAAhCAwGgIIIyNhhrHQAACEIDA6Uag5gQxn0x/9jXRfUg2THWpSct84nzl7wr5ufqPbXXm1uUkksm8J5a2rQJl3BKpIQ+xRP2kaH/IIRbvW2xd81K+sZEsUT856pKatsay+g+dP+xI1A/NMTXtgkyzeamVmrg/jMMSAhCAAAQgAAEIQAAChQggjBUiQzsEIAABCJwJBGpOEGtc9HPmuWVeYblmbQ3zb4la66aucpPf+J1ou/OFv3b9x7e7tks/F7XlrrSuy65Ambu/2Hbzqo+4+rOuKNZl2L7mlb8xrC23oe2yv4yajt31FqukOXLoZnQAKxCAAARqgMD111+/1qoFXxefqn1I673n/7F3HnBy1NYf1+31O/eOu42pBodubIyNwQRCyZ8WCAQSQgoQWiihJJDQSwg1IZQAoUNCaAFCCQYbXDDEgBvFuOAG7rhcL7v/75tdzc3Ozu7tXr/z0+czJ+np6Un6zdyO5jdPmsmT7/HKNK0IKAKKgCLQPAgoMdY8uKpVRUARUAQUgbaNQLsixJyvODob3yeCGioegodWr8QCK2EJZVYoo/1hbc3gOCtUJ8e2CdfU5ZshJUtA8XNrBstqUhFQBBqIQNa4ceO6ZVq3urq6NhQKVRcWFv6LB5AAdj99i5BI4dLS0h/OmjVri9Q6+OCDx2OzR/oWmk4zHA6ve+edd6Y30OLh9PuWgLppEWJjxozpUVRUdB19eIA+zAmwoyJFQBFQBBSBNBBQYiwNkFRFEVAEFAFFoMMg0K4IsYIdf8mSxqJA8MOly8zWaafHleUPO8nkDfieI5MN72s2fmJKZ18ep1M48iJ3qWPFkidYejk/rjxSuTEu72ayC92kbLhfNucak+WRuYW+RKdxj5lQfndHWip7iG361KdhTOcJ/3DHuWVy1OvNIcTY5FaDIqAItA0EJk6cOB5ia0qmvcnLy6uoqqrqz0PHEZnW9etjw2CvGLlDiBHfy7GrX68l8vRlNu3s0xJteduIkWFvIduT83EmpOAD5eXlV86cOTPJj7e3tqYVAUVAEVAEghBQYiwIFZUpAoqAIqAIdDQE2g0hlt1lR5Mb8w6L4I0VLl9tsosH1p0PPKjCJUuMeJFFqqNfbpQvS9oQrvwWL65KU7NuhhU5cbj8VJcQq1n/P3dT/TilgIyXmIsIUSVfogz4imVCVY9ORL4yGeurVy8Srjb2m0NB5V5dTSsCikDrIAD54nETTb8PPGQ0qF76LbQtzYMOOmg3oLqvnl4NDyqH3JoWJI/JnoD4+ieeYQ4ZFpNlg+/ZyE6CsLwQb7HHUtTXIkVAEVAEFIF6EHCJseLI6Zuu3v2gblfPW1JPFS1WBBQBRUARUATaDQLthhAr2PVC56uPgmz1qtdMFssjvYSYfF0yf/sfGyHOtr5zLJvof2uy8upWDkWqNpqCXS7AOyu6yb49Q9ld674QXrjT2RBt39giN65Y9DBk21duXhJebzDxEJOQu92hpnC33zjpZH+y5IuYsdBpzP0mUlths27s1XGFmlAEFAFFoH0i0IsHqgMa0vV66i2C+PoldvcMsN2Duo3+VC+k2vex80CAfcNy1V9CuP07qExlioAioAh0FAT4rdvCD95dWeWhO7rdPI+3yxoUAUVAEVAEFIGOg0A7IcRCEFnR/cHCFetNxcL7TOGoK+POQk6vfU1O150dWS7kWNXKl+P2FIvgISaEVSiv7iuPcQbIZHfdyTn88qqv/+sjxEIsaYwumWSiwEb30aWM8nXITMmsTPX9fdO8IqAItA4CtbW1kezsBm0BFpk2bdq37D+2E55TCQZycnKegITZyzsqfmfOrqmpmeqVSZr2w++9914ii+9RpO5csgs9oqZI7ksfhzSFoUbY+Emyuoz5yrfffrvuiyTJFOuXd2KcfYPUaKPuc8BBCipTBBQBRaAdI8BvnIcIm69EWDs+l9p1RUARUAQUgeQItBNCLGxKZp1rivgKZOWXD7HMsG4ppB1a9Tdvm/zBxzrZnH4TTNWq/0BuRQkyWYIoSw9rNnyY6CHWfZTreVZbtspEKtZZk24syzO9IavQ83zk+epj9drpJlQ0wOT0Gm0qv/oHe+DLRvjxoXDkxWzun+cKyz+9E7UooeYKbSKZ3JZrrAgoAq2GwJQpU97l64j9Mu3A1q1ba6QOpNjC0aNHd4HosiukTefOneXLH3Vuq1HjG0tKSp6FgHPqRUXO37LZs2dXe/LJkndCDv09WSHLEv8O6TPWW87m9Nfg/fSUV+ZNU+d28hd6ZW0ofRPjvaEp+gNhmfSzvqnKmqJttaEIKAKKQGsgoERYa6CubSoCioAioAi0FgLthBCDW6pYY0pnyuqY4FD77RwTrljr7AeW03MfvMEmud5atd+Kg4Qx5Wx87w/Fo/9qcrrv5ojL59+a1h5i2UUDXTPh0pVuOm/g0SZvyPEQbNkmu9MwU/F5ooNCwYgzjJdQy+66iymfF/zsllXQ1xTvdzck20BTNvf6tPrmdkYTioAi0NwIhCdPnrymoY2wt9ZQPLyWplG/B0TZer8epNXvkV3nlzcgL/t3xZFwEGR9GmAnsAqE3xwKTg0sjAkhl46jzeP8OpCAcfXA6xx0xvj1JM9DXAQbl3NO/hhU3hAZJsuwGVgV/JO8yQhUV6EioAgoAm0aASXC2vTp0c4pAoqAIqAINBMC7YYQS2f81V+/ZfKHn+J4fBWN+p1bpXrdLDbbZ6lkwBcqs3LkA23REMLzK1yY6PARqdrCssg6R4GQZzP/Wr5u6QY8uoQMk5A/9AfOMktZupkq5A04zITLVprKxY/GqeX2/64plH3TYv0r3vcOU/rhryHFPo7T04wioAi0TwSClktmMhKImoTllsnqsxfWd1Lo9wioNxwvsL0C5AYiiB/E9IMsD0X7yVQ18LQbQPlxfh288Jx68iXJwsLChyhPRoaV8zB3Kp5hz/ttNCbPWMuSLYtVD7HGIKt1FQFFoK0goERYWzkT2g9FQBFQBBSB1kCgQxFilctfMHlDT4hbkiig1qybiafVXSa78/YpMS7a/YrA8urVU0zZJ+KMEQ3isWVDeGudg0fl0qdMdreRJrfvgU6xfAigtmwFJNYnVj0wLtjhZ7JLv6lk8/6s3M6mcOQlJrffRFdXvqpZueRJYz3d3AJNKAKKgCJQDwIQYbLBfOofIZ8N9M9DJEdCgAiaj/C/CQU+AR5w3dB9GHGwi1W8/sj4bDQHKfdCTC57lglpFhgoE9LtNPRP8yogX4LH2MVeWSZp6if1AsN7LWlZJm2oriKgCCgCrYGAEmGtgbq2qQgoAoqAItDWEOhQhJgsq6xa9rzJH/ZDF2fZ/yvseHGFXFnGCZ8jRnbnEa6J2pI6QkyEZXNvMJ3GPMCSycEQczmQYwclJcSqvpls8rY7xLFVMOJ0vpC5g/OVzFBBb4/9ZaYcm7VbPndlmlAEFIHWRwDyRQgjWW7YkFCL99GDAd5HVTykCIkUFyBmDkMwLE7YShn6Qhcj9bbO+DozvujGjvVqByvQ1jHBJQnS/kl0P0OzwYQYpFcZpF5CYyJgbHVuw4EaHVAYyvqEMx/vztwBh6lDwik+u7B4Y9edM/r/zavasrhryeKZil9mCPCL2pvlBUdkVqvh2kqENRw7rakIKAKKgCLQ8RDoUISYnJ7KJY+zj9dxrpdYbcky56yVzbnaZOV1TziDRbtfbkKxZZIVXz5samL7jXkVI95N9dkQP7t7nTND7dbFXlVnaWXZx78zhbtcYCqXP+8smywgndvvIFMy7fQ43aqv/on7WpnJG3S0I8/tc4BbHqmtcLzCKpc+bUy4ypVrQhFQBNoMAqdDwgQuK0ynh9R9PEBvDcv+zvbLWVL4CLI2QYj5+9aR83zxMynpJWRZRx570Ni6XzXvReRyaOjgCLz66qtDIE6OymSY6L979NFH/yKTOqprzIardxvLB4ubnRBTIkyvNkVAEVAEFAFFIBGBDkeImewiRln3Rj+392iWUZ5oHPLJxHtzCRzhivUuISZkWO3GjxJR8kiyu+3mIdu+cjb79xQ7SfFIk69M5g05gS9O7seLvyxHntNrH7+qKV/wJ0dmSTGrUDr78nr7YnU1VgQUgQ6DQB88z273j4YHmQPs74i/rL48dYVRn0P9uh9GTyXKd6Ys1yOS5AaOr30ym/3UJjp6XF1dXZaXlxc4TDzEdMlkIDIqVAQUgbaEgBJhbelsaF8UAUVAEVAE2hoCHY4QK9jpbGepohfowp3PdUisyiVPeMUNSuf02NOtV712mpuWRIgvS+b2nWBy+x9qsosHxZWFy7424fK1cbJoJgIpdquJ4CmWP+wkt7x475v5SuU9pmrFS65ME4qAItDhEciHnLqwiUdZgtfZHslsQsBNpWy8t5wHqOupc6dX5k0HkXbecklv2rRpY+/evW/FVvSNgF+hLp/NmI8nO7hOlJjCzptI5yaWJJdgd2Xy0vpLNm/eXMYYAhUrKiq2OQ+xQCBUqAgoAm0SASXC2uRp0U4pAoqAIqAItDEEOhQhlt1jL/bkOtiBOBIJs3fYCvbyGuLkC3b8pclhs/uq5S+ZavbuMuFKRy5feAzn94zWqdrkxKn+eDe7r1k73YS67BglwVgS6SfBxE7NpgXsa/acqV79jjGR2qSmK764B8Lsa1PgkHe57LFfwOb6FztLLSu+uJc9xBYmrasFioAi0CoITOeBQ340hMSqW++MAPkqom+R7+br2WeUfYOslr2pqn1lHSo7d+7cUgZ0abJB8eVIPhxZeDrlssdXUjIMvGRd+oUQdC8Tt2hgDOUsVw1sMzc3Vz3EApFRoSKgCLQmAvxmbuEmdFdWeeiObjfPlw+OaFAEFAFFQBFQBBSBJAh0GEIsVDzYFO1xrTvMyi8fNLL/VuFul5m8AYc78pyuu5ic3XcxkZ3PMdWQWeGyVaZmw2xTveY9CLJq9hjrZnJ67ourF6uHOLLYL8xJs9KoetUbJqf3fs5m+WJMllrWbvrUdJ7wD3fJpW1c9v+q/uZtyLcX4zbDz8rt4rRh9fxxFV/JrIVAk3GEivo7xTk99zbFY/5matZMMRULH3D67K+neUVAEWh5BCBozpdW+ZpiP5bPCcnlDf+CDHsOwbteIQ8qF1PvNZHhZbU9Ot5iSQtr/rpfSJ4fJtMnQJ62iPZupb2E/ckwUOw3gt4dEEHX++UsIRzz7rvvzvPLM8lDhPUoKCg4hzbO4wh2v6ozKHg8y7EX/U93v7YaML6ROuz/3ugQxoK8Pcn3WuI8Vk+ZMqXGK9O0IqAIKAKtiYASYa2JvratCCgCioAi0F4R6BCEWCi/uynY/bcmlNfFOQ81Gz9hQ/qnSIdN+bwbTc26940spQwV9nXKs3I7uyRZuieutHqryWcvMhucze553hLPr/xhJzvi2s1fmKqVr5qqb/6La1gp7W1nOo19KFYly4RYRpmVXfdcFYGE8wfxBNs64+dGlnnmDYzuscpDI55iE9nwfx7eZv/yV9G8IqAItCICeHolEEp0p6HeQ19Pnjw5YSPr2Kb6P2nkMDtRP6ivycwm6DLWuh+wZLWC5VkQhxMgDn9K8QkcstljOkGWU16ejqJXZ+TIkbcuWLCgyitraJqHzDL6EDdu8g09vw3thtZTBBQBRSAQASXCAmFRoSKgCCgCioAikBYCHYIQyyroY7IKo84TskRRNqQXMsyG6tVv4xE2zeT1P4xlk+NMDksrvcSU1UsV1275wiG0RCdcsc7d26tyGV+SLF0JWTWHeHm8CbzMsrvsEC+L5eTrlOGtiwLLTE2JKZ9/s6la9ZqzbDK701D6P8NZehlcQaWKgCLQWgjwMNJJSGtvaChhgq3uEEcJxBfyXfxteNtrq+nx48cP40uNMp6f0P+hbbWf9fSrjPK4TxRzPkSmQRFQBBSBVkOA3yFdGtlq6GvDioAioAgoAh0FgXZLiEVq6l7Q1+IRVr7gNpPTfXdT/uldLDoKeFYJV+G99bJzGD6oJt5iskQyKwdHBVkamZXN1yCziUOcW3m4ldU2HBGJwyZSvtqU4LlVNOoqU/X1G4iizgeRijVRm2j5gyzJjOApRiNuUaRyg3E82NhXrL5QC8lWMv2neIcd7CzxbJoVQPW1quWKgCKQCQIQPQmeVPKg0hACizqd8KJ6JJP2G6m7nL6WJLExiP50TlKWUgyp9yPG8XNsT8BGPFuYsmbbK6T7CTcUZHU3oLbXZe2RIqAIdGAElAjrwCe3kUPDm/yEcDgs96evNmzY8FVsL89GWm1Y9YkTJ55CTfFMlz1VV5aWlq784IMPNqRrLVa/hut9SU1NzeJp06a1yH54eJjn9e3bN2E7B3Bdo1slpHv2VE8RaF8I1DE17avfpnzO1c5huy1LDatXvmKzqeNINXtxrTRGjgxCpGKtKf3gvPRrsIn+lre+l75+kCY2qmUJpgZFQBFokwgwWevu53zIr26TnfV1ij3BJrEn2Jc+sZNlz66bSVwWVFafDDLsAnT29eOSrB4YTkb3tWTlyeTUG029HyQrbwo5bciSyThTIosTaEYRUAQUgWZGgN8d9QhrZozbuXne6ptH2drA2ZJAvpAMQSYf+Xm6ucbFvXEd2zzI/T4uQGaNph+PIxQvAyd07tzZIL/gnXfeudvKksXMP8Zj+0lbzpxC9l3dVFtbe8TUqVNnWnlDYukbtvGeMPOIP8HmnPLy8rmzZs3aIvb69OlzOvL7A2wfjSzNB82A2ipSBBSBNotAuyXE2iyi2jFFQBHYphBg4pSwLpoJ1mqZwDUkMHlN8D6ijcKG2GqtOrxJ/QuT4UfTbZ/xvc2k+rZ09a0eE2TZwLFZCTH6FnQ+lBCzJ0FjRUARaFYElAhrVng7jHHIr50YTML+nNzDohsdN8NIuTbXYNZPiGVz/78PuUuG2abR30w/j7F5b8y8aT4eWIvwMJdn03u8ZZJmHN2w2z9Zfc82zHoAAEAASURBVNFh7lEN4faqpFOEX2BrNOVyGJmrFRcXR7D7G5mH0Eb8G7CYoWTyWLFGioAi0I4RUEKsHZ887boioAi0CQRkEhoXmDitQBD9VGxciZPJ4g3l95iQfZVYZFbwhcTBfjkTtUeQyV5cTR3kHpCMuUsmr7cPK1as+MeQIUNuRbGPR3ktk+GnGfe5/jaRHw65VUXsTERl4mnT6Doym7eT0lh+lMd+syRpJ8hDLIEka5bG1agioAhsswjw26MeYdvs2W/QwIO+xCwe4Akv7RpkPc1K4gWG6h5B6pBPjwTJRUbZTUS/ZY4gX6DeLUiP+/+/guRWRrkkZV4jX6hOCKNGjSrG9on+AmRZkGnT/HLNKwKKwLaBgBJi28Z51lEqAopA8yGwo9c0DzHlkFpLIbGCCLEjkN+A/p5Mvs6JTd7c6jGSJ+itaoj5mqvXVInc3NxP6U9TmXPtLFq0qBJCTJYcyMT4Bd78PkP8luy/AfF1FGPZ3lUmQf5AogO9Y/SmRbe+vOg0R6DdBG+wIFlztK02FQFFYNtDQImwbe+cN8WIuW728t8nkd3KUZnKPvOQR33lQiZdwBxlq0+ekKWus8zQFkyYMGFfZNfafKYx3mH7M4YbM62Xrn7Pnj2Px37nAP3leJZ9ECBXkSKgCGwDCCghtg2cZB2iIqAINBsCzK0S3mR+Rmt1n7n1NI2ueEc5gUmj7EcRFygfCEEV+GYzTrEdZFavXn093bx+wYIF0S+QtIM+B3URMu8aztUD3jJZEuvNa1oRUAQUgcYioERYYxHctuszf5jkR6CkpOR52cieF1HzKevpLycf9KYtm2vxSuwFqLuiZ3jxd6GbI4Fn2E7U+Q/JhA8NefVSpAdzr30RGwUpdBpVhO0zkhiQl3byFTUNioAisA0i0A4JMfsDrb9bQddrVm5nE6ne6nxBM2/oiSa703BT9tFvUQ18Pg8yoTJFQBFIEwHeZsoeFN5lgVJzuvyBNGEFQMpVh4eLXkcN7Z0Is+cFr7b/2bTGioAioAg0NQKhUKQ0Eo5cl1UeuqPbzfO/bWr7aq/jI8BcZCij3N07UkitL+xXHSGCBlLW1VueKo1+v1Tl2O7lLaf9gZBZbyKLk5MPo3sdcR9snu2tI2nKfhGTdaL8Dg6/ShWeakLOfcvxewoH+RSWYEOWWjoB3WoSgS8Vx40bN5yy8VHNhL8f8jJy15h0SEJpVLC9RyeJSlTMB4sifLBIXo5qUAQUgXaAQLsixLK77Gw6jY2+qBfSZ8vkI1sF4py+E0xu3wP5JQ+bis//7BBQ3o7kDTvZ5HTdxRGVf3aXiVRu8BY3Szqn9xhTsONZJlTQ22x994emYIdfmLxBUQeUvMHHmKrlzzdLu2pUEdiWEYDwOi5g/P9l0nQXk7RkbyJtleUkBttMC8QyUWxUYELaaBtJOnA7BOIdScqSipmAn0CfMq6X1KAWKAKKgCLQwgh0//2COTQphwZFoEEIcB/8vr8isqQTf+YnQrzGeT776/vy52Mv6cd9xLML/bj5DG1EqPNLPMkegjArYL4km+lv57ULgbWal06v7Lfffj35CuU+VDmROrmiQ7pG8ixlfEnyzKtKiJ6WtCcMRH8Gm+F/6pEFJvPy8mQz/QTGLab8bGAlj5Cqac812I7CjB8/fjCk2AqPCU0qAopAG0Wg9QmxLPGgSPb7FI+aeD+5IYcPqWRl2P1IjVvdJgp2vdBkdx5hs/FxuMaUfnQ57xri90/O6bm3yev/XUe3culTCYRYTrfdIczGOeVVK181NQ0gxAp3/x3fZ4mOr+KLe02kYm1833y5nO6jGMcwR5q//Y9N5YqXTO7Ao5x9d/JHnGGqVr3OOBK2wvFZ0awioAhkggCTtWN986vNhMndunX7CfJOQbaos4pJ4MWUTWaC+CD57dHdzauL7N+e/ME+W1son8Ixz6NTb5JJ6fko/bpexdQK4dTFDS7dwKR4Zaa1WQYiX7hqtiD7oeTk5MwMaqCmpubAxn7+PciuyhQBRUARUAQUgUwQYI6QQIjhpZSU5EE/H/s7p9sG8w2HpEqmz5zmdOYz11P+f1aHNs6GqHpI8tzfK1hSeSvE2e2Sx956ymdxDIbosl+U3EzRaxzOWCg7jXmLQ4ZJHWw9wz1fNtwfTf0vEH1CLEe9DzeQU/KAdIHY0aAIKAKKgB+BKOPil7ZQXgiuzhNfMlkx4ieTZrMg0roe9nbaVfjBxHPqJBMpXx1XJ0okbR8n82aysnkhEuI+IHEshPK62aQJFW5nIjV1hFmkahNEXcgtl0TugCNMTk8+/gKBVz7n6riyZJnc7SZiJs8prlr+oqmthxCrXPqMyRt8LE0UOXHlsn+ZmjXvmtx+E0wor4vJH/oDU7n40WTNqVwRUAQyRICJmXwpcoSv2qOzZ88uo+wlyo73lvEbJG9k/8rE8WYmhyVjxowpLCgomIPeYT49VCPP8Vb0MSZxu0DIzPCWk+7CUUi9dN883kJ/LvLZaGw22ZKCBtllvKfRxzhSMB1DYLBDOnoN1WHyLj/C8tYmIcTKEuQqUAQUAUVAEVAEWgoB5hI9aGu8r70v8U762CfzZvEqqCOvvAVBae61QWJXxpxG9ig7Bk+w/SHG/kD6FQgs+bCOG7Zs2XI/XmBfI5iN/iIp4L7Pw5GxhJj78RzmSZOYA00WHW+orKw8HO+raiHYvPL60syj7mIMdQ9y9VXQckVAEdimEGhVQkwIooaQYQ05Q/JjLgSTf+exqq/fNNnFSZ7t8CiL1JSwTPNh9uKK8wR2u1C89y1uWhKVS56Ky0smf9gPqT/UkVcsvC+BlHMKEv7Ek2oJxT5BpHqzERKsAO+wLAg8WTJZseghk8PSziwIurwhJ9C3J3gtE7i03mdNs4qAIpAKgb333lvelt7h12HZ370iKy8vf7WwsLCG3x35jf2S467169c/Mnfu3FLZx4JJ4GXIfkr5AOK4gEzCTQgfZxL3I9J1DHxME9mhJA/lzepLvAW+iolvUm8xdHujK0ebDfRR3lSn/ba6zQ5EO6YIKAKKgCKgCLQgAkVFRafRnMxJvOFlb8af5iXUIo5j/PJkee7R78TmEslUHDlE1ft4gr2M7qHMcyYlUf4hZbYocG7CC6eb0Flllfyxp75TxFg+gkC7zq8neUg6+bJ1dA+ZIAWVKQKKwDaPQKsSYpHqLab8s7uN44EVOxVCHOUN+J57YiqXv2DCPq8ut9CT8C5TFHHVyv+Y2tJldRoQQUF2qpY+XaeTLBUKdBAI1pYloHFvUiKmZv0HLiGW2+dAU7UsqRdznU2fjbqCxFQ2+5UV7napqVn3fnRDfTzvcvuON+XzbzHV30w2uX3Gmuqv33D2PEusrRJFQBHIFIEuXbqI2/5O3npMyN5mMvi5yGbOnLmRCdv1MknD5f8VRA4Xj+xPpC+ibtLXrdR5F5Lrh1KHulcxuSxF/VqOoN/r/4M0O+yAAw7oM3369K3U0aAIKAKKgCKgCCgC2w4CZwYM9SLmG88xh/B7mDuqzCdGcLwbUC+ZSLzQ0grYHcORNtmWxOi+2Ng3SVmQuCvCBEIstncZD5qB4TM80RIeAiHjxqJ9uL8Gc7NnOZK+fPTq0/dwaWnpBq9M04qAItB2EQh6wGq53kJSVeHVFBfYSzGnx14sRezriMXbKR3SKnfMQa6Z2i1fQgb9kXzq7W5yeu3HYpgCt15QIlz2tSn/5BqTP/wUlh8e5KhULH7c1G4S72BjCnY62yW7yj+901SvnWYKR17slNk/NetmsmTxRCcrm/GnQ4jJklA31Fa5SX8im73Dive7Cw4u24TwdKte/Y6zbLJq2XMMv8ohxZwFnaQ1KAKKQNMgwITpZJ+lWiZKl3plTESv8eYlzeTrdZYTxP9AxJSov4ZJ1O+o93dRtWLeet4EKfYm+UcoD1pWeIuSYTG0mjjifFVxrgOtci6qAwtUqAgoAoqAIqAItAACeIkfSDO7JGkq5TMecw5ZNplW4H4Xp0c+XhBX2nYydPMKejPM3yPGXs39/RReYn7iLwNTIRgTCDFkjzMfe9mvr3lFQBFo/wik/LFs1uGF8p0vIga1Uf3NWxBQP3KKcvsfjrfXayZSJdvvBIecXvu6X3UUDdlPK1TUP1DZ8RKTzfVxtijeR5w1UodqvLvK/ncJXl4fuoRYuHQF3lgznYoRlihKiLABf9UKficjic9INRvnsPSyzCGqsrvvbrJyu6C2xakX+Ce2d5gti/g29bdyicMlS7FVYrLyujrLT7O77WpKpp9R9yEAJcK8cGlaEWgSBCoqKg7Oz8+X9dJnxSaGdzFRml2fcSZfb/HW9gXqHOvRXcjE7L6qqqoHkxFbYptlmnt17dr1dOpeRd1BsfqfrVmz5kaPrYQkEz/54mWTTuLog3xxKmET34TG0xTQv9ew526em2Y12Zj3AOrJcpFmCWya/yGG28XEv1kAUKOKgCKgCCgCbRmBIO8wt7+QOz9jflGMoJMrjCa+ZM5xlE+WNMt85z0K+1gF7r2786LufF4YVfr3CrM6rR3jHTaC/sn2FAmB/l8XRIYlKKpAEVAEtgkEWo0Qyx92MvtcQdzUE2SPsU7731OPVnxx0XfkeTE4lC/4E8TVvymM8DAVxrMq+O2/WxsdCbWly11RqNg+i+JgxhJPCbVb2R8ygAxzCiHgajbMZhnjgShW4P3W39TGCLGs3K5suh//IiLL57WWN+j/TLhynWNK/ojXWnjLQpaAfkOTW03lwgdYMvkbpzy7aAD7iP3EyF5lGhQBRaB5EIgRV7+C3HqGFi5at27d79Ntia8TXswyx0nov85xHx5h7xA7SypT2WCzfmHb/zZixIjHBg8e/AvSlzDR/eWCBQtc908meTJpXe2z828Itbd9skZlGbe8XX3fa4SJ5wpvPlkaAov122aItxzZg0yqX/TK0kkz4V1AuwN8ujVgUuuTaVYRUAQUAUVAEegwCHD/G8hgTqhnQLdzj5QP8fjDDpBcX/iF6ea5Z4/ikJdtMi+531uPLR9kW4iUL+qsPhvkf4d0wrJFZGdh512rV19MPzb5dZDJ/mRrOeoe2qJKH1J2k19f84qAIrDtItBqhBjuTK2EeqxdlmtunXK84ROMKfshhJOEsGc/suxiuQfhNpDfG68vefECz7X5MydO9qfii3udrzzWboE4c1dDQah13dkU7nxOsmqOPH9o8P1OPNJkmWbVyldM3qDvY2snRz9vyPFssP+siVTq8vWUwGqhItBIBCCzZMKW9qRNmmMD/KVE3TiibLsIMwiLFi2q5PgLVeSICxBfZ8UJminTkHHbrkB8pf7Bs4ppxLzhnYbaIWmoqooioAgoAoqAItBhEIDo+gODyW8rA4KgO4g+jciwPzsE6UNY7caLw4xebPGiTrzG1zIPEq8Hg4f3TLq0I9tUyJzjtxw9KK/gZd6PmTvUiI4GRUARUAQEgVYjxKr5uqN4OrV0EE8tG9IjjEIsv4wSYLZeqHioI8vuVredjxBnVk+8vmwQWagoOk5ZNilLOWUJZHptWyvBcd6gozmDxaZ8ztUQY3eY4v3vxeONr2lm55t8lnJWINOgCCgCbRKBBpFhbXIk2ilFQBFQBBQBRUARaDEE+Fr1jjR2eiYNQgb9BzLoKakDSXQs+XGx+uuJB/D8IC/qnEDZNSTE2zyXOhujUvlmWFY+h2yZIJ5dcQEyTDzDeDBpfMDOuQ2xQj3xTnAIMakP8VVBdBtLR2W556WUF9DP3wl5liKMTFJ2OfWiG0InUbBiVgLcyMvP1J4SVlljRUARaHUEWo0QC5ethBBb6QCQVdDXZHcJfEnQeIAgn7wkmN9g0R7XmGw28Q8KEb5uWbH4UVO8141xxdmdh5nO4517iisvgICSwx8Kd/21X8RSxzVm69QfOPKab+eY0o9kz8e6kNf/sLr9yio3mrI5cl+K4FSXZ0KdhrFB/0nsv9bLqZDbb6KpXPIkHmqfmupVr5m8gUc48ryBRzvySIV4C2tQBBQBRUARUAQUAUVAEVAEFIH2jgDLHa9lDBk9w0EGHQERtgNk1yscO5HvG8NBPgp0CMd0IYxiMiG2Hid/B3VKKfsT6anInuAI3qQ5VrGNRuNtvxjHqTadSUy9sejLUW/Au00eEpUQqxcpVVAE2gYCGf2YNleX84ccZ2RPseYKm18/CNPBDhlZ+b1YNVnn0eXtQ1i29WmOpZ1em+wpVrN2urdZlj7uYnJjEtk0v3bjx3XlbPJf/c1k03nCMw5Bxg+0ydvuEFOx9Utn37Dc7Q7GQ6yAshzIMUixRQ/V1dWUIqAIKAKKgCKgCCgCioAioAi0VwSy6fikdDoPkTUPve48K+wa09+B9IXeuuh0Jr8BT7CzIL8eIf8iG+5flpeXd2VMr5g6sjxTHqRCMZksT1yEPGHvLluusSKgCCgC7QWBNkGItSZYVSteMuKlFRQild9CVs0wW6f/LKg4qaxgp7NMLl++lFC55ClTBYEVF2pK4rL+TIiN8W2oLVlmk24cqVzvkGJ5A77nyEKxPc0iVZv4+uX7rneZeItVLvo7OsFkoGtQE4qAIqAIKAKKgCKgCCgCioAi0NYRqCWMY+mffJ15KMSULG18hfTP/R1nv89xLBc8AZ1/Up4VK99IfipZ52vXxEKILcaebJAv4XDIsCOR23fzQn7JhsqdkDkKsT8Ly8rKTvAI3kav3JNvkiRt7oKh3f3GZEx+GfmlATIVKQKKgCKQEoE2R4hVLHrEVC4N+uBIynHEFYYK+pjOBz4eJ0uWkb3M6gthvK8yCRG+/miDfAlS6mfldDI5fcaZmo0fmfqWMYYKt7PV2cx/uZv2JsKlK9xsiCWnNlSvmeoSYqGC3ian9/6QZDNsscaKgCKgCCgCioAioAgoAoqAItBOEWBvrM8huvaHFHqO41ZIozFBQ2HPq7GUy9JHl8kify7eYN/IPmKeOtmoiOeZ7BNml026xcjGUWd/BPeRdmwRHVFUVPTm3nvvfRRfwd4M+XYn5XI0aWAMZ9HWvX6jtHeSX6Z5RUARUAQagkCbI8Syu+1qclkC2JgQyu+ZdvW8IT9g/7IdA/Vl4/uKhfc5ZUV73Wxy+6ReOl7ywfksb/zEhKu3uPbsVyhz+3/X2P3EKpf+w1R8cY+r4094PcS8X7f06oXxBgsK1Xi0RcJVznJKKc/dbpISYkFAqUwRUAQUAUVAEVAEFAFFQBFohwjwxeY1dNvZGB/SKJAQg0iShxgvwfUwG75PY4+rJwKGXAZZJhvo13BUUHcT+a84nuXLjXORzYWEEzIs+mBEgrBvly5d9iGezBcd++Fl9i9H2oR/6MfgIHOMWfabYW+baEBvNZh4PdZskamurj6RvgXvj+NqRRPo/Qhbl/vEBkLwIrD4r18elF+5cmVmnhRBRlSmCCgCLYZAmyPEcnvtx3LD/VoMgNx+B5mc7gmeuE77QjpZQiwru7DePlkd+eKkG/gKpAS72b2ka7cslCgwyBcqvXuaBS2ZdCqy95gNkYjcu2JBPiKw/kPIuwMcQU7PvW2JxoqAIqAIKAKKgCKgCCgCioAisA0gUFlZOYEN+GUvsHMhcz6E1HkbMmwOhE/3gOG/jOxzK0ffSaI7CvJplGRERv45ksdzLCH/A8iyj6QMoq0LbUUfPkTQzIF+xHkp0BdZOhoY+OKjLKupW1oTqBUVQvp9FVRMe4sY6/ygMpUpAopA+0agzRFiQiZFakrlVzeGbDSOyEsARxaTx5V7ZfxY5xSZUGG/tM5M7dZFjn6QsnwNMiiUvH+OK84beGQc2SUFkao6DzHxVpNN8q0XWrhqs6lePcWt70/keMjASHWJkf3CAkOW59SFq+NUxL4lxEL53U2o8/Ys21wcp6MZRUARUAQUAUVAEVAEFAFFQBHomAhMmzbtW0Z28cSJE/8DoXMByySfSDHSk9BJUewWhSGfpm/evPlIWSrpSjWhCCgCikA7RcDDqrSNEcgm9JVLn2xUZ7LYQ6zLQel57VZ8ekdGbUVqykztpnlundpustdjfIhU190fZD8wWZZpQ/Wq/8CYxRNYtkzinN51Xs81Gz70FsWn+YqkG8IeDzGE8tXKCDL50qSErNwuTqx/FAFFQBFQBBQBRUARUAQUAUWg4yOAt9OukFe/g+iS/bacPcKaYNQhbD6mZFgTIKkmFAFFoE0g4GFV2kR/jOy1lVVYt0l8Q3rlXXJYb/3sItlBMlgtUsv6xrqlicFKidJw2deuMKfnnji2YYfADcRUrfi3W5aYCBmvh1j1mmmJKjGJ3ZtMshHfVyslX/HZ3SZSW2ZqNszGy2xDUjtaoAgEITB27Ng+hYWFL8bKatmX4SDS0Qs5qEITyXDLPx1T3Zi8RTZt2vQ3JlxlTWRazSgCzYoADx59+Y2XJRyj+WT9LbE38/42s8aNG9ctSZlft948tobn5ubuUVpaOvWDDz5oth/6MWPGFDKmLDwCahctWlRFx2Ju2fV2URUUAUVAEVAEWgEB5lG/otkfEIfSaL6S+5d80cx5Y08d+brXUUH10LuCpYMP+MtYirmcr1+e6pWzH9cu2PqdV0b9amRnoJvWfQSvtu9R/0deG5IOaKtueY5fWfOKgCKgCKRAoM0RYtmdhxk5WiKEioek/BqleFlt+e93hXFyuyPLMbsc8mpdPrezm7aJcMlXVClnKWZ037Gs6IdbTPXKV0y4bJVVS4izu41k/7CoN5e0XbNuZoKOFXi9vmQZpj9UrbBchr9E84pA/QgwiemEluuuyFeEQpBTzU6I0eaVTJS2lx5CyMl+FkskraFFEciGAMlrSIvsHxLh61eZv0VoSGNp1GGZyBFcTxOZgM9j8vxObB+RNGo2SOVF2tpfavLJ+qlEr3mtQJgdSj9uRqfX6NGjd581a1ajJ+/g/XPauKJTp04R7M/B/jvkX5d9YjgPdTcub0cakOZLYlM59u3WrZsZMmTISAjyTxtgRqsoAoqAIqAItBwCr3BPOIx7TjdPk+xJY9Zy+B+08pEdxPEoxwDqHUI9knGhFvmVfN3x5jhpLBO797tLfLj//piiS/262M1Fti/6F/jLgvK8KO1MnQRCjPpuW0H1VKYIKAKKQLoItAlCTPbqqk1BFNnBZBcNcJKyz5j3S462PDB2PLySvIQIyW9y8uAsOZQXK77qWQEkWLyVMBvnf2FyeuzhiqXPFQsTXqi45ZLI3e5gN1/77bwEzy+3kEQor+7+FknyxUmvvqYVgfaAAJOehBlYe+h3R+ojk88/cxrObuCYaiFmRjWWMIEw6gIBsx2T71ImvSsb2BfZ/PdkjlNjl9WZ2En9I9zQhqgHCTUbItkhxMjuxxFHiDGW39CPvaQJxnY7kZBZjQr2oQW78n+zB5HcdC7kjfpGzsOLkIDPkn8LDBtFjtFO72gTxuApti5Zp8WTjLE9DhYP40Hwn2R6KlcEFAFFQBFoXgT43V7O77bcy58mvYz4L/w2P7h169bSrl273kLZhd4ekB9K/g9emSe9hPvJj7iXvO+RpUxibzKHbGQ/PEDxfO5Rm5kr/D6gzBWNGDFCiLoJriCDBITcVbT/kwyqWNVeNuGNsfUI8yPZky3tAO7Xci98LO0KqqgIKAKtgkCbIMSqlj9v5LAhGyKpaLfLnWzNxo9M+fw/OkspC3e/ggecbBMu/8aUfvDrlISRVA51Gmpy+01k1Ty/p/UsfazZ+Imp+OJep83C3S7DSy3o99spNiWzzosm+Ctfj8wbIN688aF282dxhFjFlw+xddhmSK9DjSyjrNn0qeMxZmsJyZY34AibNdVr33PTQYlQ8SBXnHTjfVdDE4pA+0CAyUM2k460OssnvjtBQFzHJO2fU6dOnZlWpUYqjRw5Mq9v37430MdQI00lVGfsK3jzeqe/YPz48btAcOwocr7i9MF77733jV+nKfOMrTH7jGQzjqvoz8mZ9Ilz2YsxHk9dWd4hpFKxrc+keSPyOeTnUjaFCfSLtiyN2BJUsmR9htUX4qagoGA4su7I5O1CV66lLtjvzANDMTFr6Z1P1eeQDiGLEMtGwtOY3D5l7Xhj6suDwjkx2WhvmaSpK7hMwo6EM5hY/5Xz/ZFfL5M8/fo/9CfQ9kHEE7G7E7GEHhxngOkZxN+A4SO0fz/tyUNRxgG7vWOVwlx/SZdm4tUp2BxDf47lYeQSsEq5SWdLX9sZD1wrKAKKgCLQjhHgfvkMv8VL+S3+3wEHHFCEV/HukGHf4X5QxO96JiPrxv3kOu4lC7nvLOY3fi025F4gx5qgewuyVdznDqadd9EZHNDYVfRtE32TF0QG29di81yfXgH1o8ttfAX1ZanXn8NZcVCfbprlPbAn99a0A/r23pl2HVVUBBSBlkeg1Qmx7B57QiodZYRAqln3PksKV+L91MOEivo7aIQqxLMXPmsrK6dqK9l1vsj5YmPRvreb0g95uSFfpAwIQmrlQjDxY8QXJ7cz5fNuDNCqEzleavRBQpg9t5IRYs6m+t/Ks1k01Ha1zx9WEo1lY39vqFoefYbL7rarM97sbrvFEWJ5g45xl1hKG9WrXvdWT0hn8+VIG2pZoqlBEWhJBNi7aEeWhcnD9kT+x4YSd2Mi8yXxR8RTOB5roFeK+5uE3XLsBQYmdv2ZnAlrPJz4GDyKvtMUS9ACG/MIe/fuLZPISzyipkwuwFgCIcYeUb9G/ktpiD065G3nY5JON4i3VXFx8fX0e3cmxwdTL1JP3Wc4fytEjxCmnui7ackzIXbkpGVyKESPDRsousdm0oizmQTL5+CvQ1eWRQRVkUnoRArkuID59cvV1dVn1kcM7rfffj2pN0IMYn8T16Pg6wSIm4MoC/RgYqJv1dzYyqgj4w0kxOjTLM6VrbOvTdiYSf8s+v4E+dOwk0Wf5CHgII6sAw88sB/ntk9FRcWKmTNnbkSWVmBM8pn5f8QOI3uK8cBzNLZPpImxMSOyF8wV5C+l/RcgVS9l6ejSWFm9kZCHKFmCcj3pcIpK0h8JQBa6nfZ2Yd+xc1huXR0Vx/9thWs7vgOaUwQUAUWg4yLwR36DNzO8fsRyH+gl9x4ZbiySZLpB7n2T5PDcD21deRk0xma8sRBltG1JseiDnUcBW7cxB1jO3ORfzB3KyctLqnRC0hcz6VRWHUVAEVAEvAi4D59eYUum84efanJ78ezQ/1BTkdPJVC5+JLD58NZFpuzjK03R3n90vp6Y03VnU7zPn0zp+79CPwKBNtB0GvcIG8hvNFWr3jAR9tWyP/h5Aw5nc/n/meqv3wy03dTC3P6Hm7ztDokzmw1xJqRfFmOUEPF6rLGcPm/I8a6+kGf+jfLdQhLZXXbky5GdXZHsWaZBEWgMAsxXnuf/xX2a54G6S5A99GTd8r3oHu0vRzYS2Uji06gvn/k+HxJgsl+vnnyeLWdyVGLT/njNmjUbBg8eLKSM/J8PhfAR984f+fWaOg/pUcuErZw2E1mT4MZk8umOKVjFlda6KU8CLIfKOCUQf+UkMvgDNu9Rb5RUYeL5IyaeQsokDZS/Q6EcKQPXwvYouKQS/VwE2XIEZIsQo/UGIaw6d+78Cor72/FhQzyxooOlgGvgYrI7k9ybY3fSuRxHQ6SMw6vsPAihpHuIMG7XO4y64kEoxJ4NpTYRFEs/kFdw1NCefFErm7R4vyW9JmXc4CtklhB4vYScYvN83uTUBfD5A30/TSToTADDFcTy9sS5RlhuKOdIPABn0NbFQW/dIc96Q0a/SnkVeuvQOZbYCbH27iJzF3bk62I/x/6PyffkEO/LEyCQnyW9lCMh8D+7E3V28BVIXRtywP0om7ExdTaIlyZ9OZsxbaKdy6WM+Bd4IwyXOpwrwTMuUK9Fr+24xjWjCCgCikDHRmAIv8H90h0iv8fy4mIexwDq9c2g3h9T6XJfWMw94DDmTjOwW/fwEq20FC//lZKkbFEqO94y+jrdm9e0IqAIKAKNQaBVCbFQ8WCWD+7j9J8ft3oJKyG1yufdZApHXSk/nHiTfU3d6DOOEERZoTy+UNnP8S4TvRyItuwu0bl94a4XmVqWKYoHWmOCbKqf0+cA10R2113dtCRCnYabwpEXx8kkkzf0JFM+52qIrCgh5l3CmTf4+yaUH/XCjYSrTOUyeV5JHnI9SzRrS5Y5SzGTa2uJIlA/Avw/uQ/Voi3/X/7Aw/KJyO6nTJaYuYH/3QpklQi6WiF5+cd4nTrHQIq9auU2lqWHffr02Ze6/oZi/yD8z+Tl7cXDNSoR8aapZe+ihTNmzFgrNvjSXeWgQYN+TTtCqEh/T6Gtf9LWS5JvrjB9+vSt2C5K1z6kxLXoWg+qtRAiRzGO+UH1t2zZEkiIoTvY6lM/kMiw5Unix5HfGiu7hYnpi5ATSYmdJDbixGA9GsHLHL2lgPMzvaSk5P/S/dIhfejF5Pgtqn4nVn8T8d857sGWfCL+p8QRzqd4zDkeSdTZGTLnafKyV1Z30k8gy2EsjyJLCOjs7xHGTZ4hNj+j/ukcm9HZTFObId+2kN/K10234tEk3onRm4vHSBrJD9A5XPS4fgWjJfSxH335PseRHIdImQ3kB9q0J5Y3+cdzfJfr51d+AjNWZ19iqbJQ/gQF6n2K/CLa/y3j+hnpyxhn7tq1a18M0o/JzkP3nBTlPSiX8+4P8xA4pCsPP1dwfWzk/P5RlGTMpB8jeRKHH9M2d21LnzUoAoqAItDeEeC3V15YnZFsHNwP5OXeLOKp6LyLN+/79svesfvtBMomUHYgekH3Krn3L+A3P9U9xWme+/R87guyp+e/EchLJgl/3bBhw2Vz5861L6gWO8r1/xHvsPPrU8N+Le3Vp9as5dKHZm1AjSsCikCTINCqhFjekBPcB+9a9goLlwvBFR+8nlBSUv3Nfx2FSG2ZqVlb94yT3XWX+Ip8GbJs7nWm09iHIMpy8cwqMrIHWemsVHP9eBPJcsV73RRYFGKZZOEuF5gs2bOMIPuSyRJJIepy+01gieTeLN+MvqyJ1MrzFg8LbI5fMKLuflW18j94uclvfTQU7XmjCbNsVL4aKZ5gsi9a3qCjbTHLTGe4aU0oAs2FAF4epzOxuA/7IWmDm7x8NvsOiIVnSktL58sXKCdMmLA3y76+R5ksz5J9H+T35VkmQQdCbMyWejb07NlzJx6Sp9l8UEz5FJFjxylmmZuBIFuJ/XOF+OJ4FcJACDHHYwW9G0jLw7pDoDiVWvEPfbuU5h0yjD5/BeFyKF40ab8BtV1nXIMkLZjjhbTKytON8aa7m33PzsTOCOr0B9ffEV+Rbn2/HudAyNMnsefs60G/nlm+fPnpQlL6dYPyfLE0F1LlNcocMox4Ocd4JtXLRB/73SXG/lYi91wyof6cDXb3xzNQvtT4a9FhLHfgMfVm0PJJdFxCDOzrbhbUQ38d0aNioykDWLxPuw4hht1LuAbORzYaWdJZOeUfUfwP+lhBnV1JH8chm9h3puxhHkz+J2O3/QQ7d9kJ5autPFlMXbF7DyT031jyO3zBggXiWdasgf/NWzmP3zKG+2hIPNN+QH4Z5/g33oaRt6lr29s3TSsCioAi0I4QKOF+EPeii3vKC9wj9+N3dhVlcp9dLrEclC1j7rYy2XL22D1H7jv3Cwbct4vwuh7CHG8o2aHYHIodST/B4X/RgSgxxOZsl1LvLEp/Rv5drxaE3GLmmnFjsOW0J3t4fkX+XbYWuM6+HLXlQTEvGS9kr9AGz3WCbGYq4yVqWaZ1VF8RUARaHoGclm8y2qJ4UsneYTZUrZDnWBvqfltlryxZVlmzYbazjDASrjY17OElJFeo0zCIrmITKh5i8rc/zVYmjtYXAqly6TOmIFaW0313yKRjHHLJo+wkc/t/F/JqpJPOLg58EeJWCSL8s9iH2usZVr36HVP2ydVOvwp2+DkPd9mmeN+6/YUjFesdewU7ne0uf4ywH1rl4rpnNFkamdt3nKOXP+Q4iLH1jq4QbBLY3sdUrUxwvnHK9I8ikAkCeC3J5qPu7wGTqAE8eM+0Nih7wKaZlHzAcQYPtwusTGLIng+JPoQEeI/yf1OnE4eQJrdzyFvGRgfsyT/nCzxcn0n7f6Md8RI7FFk+8UjaPgXPGJmgpR2Y6HVlojeciZ6QEEWQfAsgnoS4qvshSttaVBESYxKpWyRHH9cz+TyQCebKaGn6f1l2J+RQcayGTGhdgihdK0KA9OvXT4iIF6QOYzxv1KhR13veyqZrSpbzXYCynM9QrNJNnAch2NLGignvtejvE6v/DcslDgGbZbG8RA4hRrzZI3OSQrpxXEg/xKX2x4ylO55Y95I+xqcr/dtPZOBfw1e1xHOrWQPnfCgNyOEE+raXJIijAv7Sl7lEkzkGIT8hVpDHNXsb6VrJQ/Bdw7LKFymXBxkhD/+MWK5xJyDbzqaJ6yXErG6MCJMHnKSBcyFfHnvKpyBfHXXGQv9voEy8DuIC8oRzxXXxIOdJrt07RRkbl/B/uwS5nC/Z76xNXdvSJw2KgCKgCLRHBPhdvZ5+y+EPr/gFDcnHPMc+o64cDQ6xe53c7xICbch9pHNCQQMFMbKvuoHVtZoioAhsQwjktNZYC0deAqkVbV6W/VWvnuJ2RfLeULDjL73ZetO1Wxe7OpWLHzN57E9mPbMKdjqLtiazzFCcD+oCk3VTHxEm2rLh/Za3rANAtL4s0+w0+i9GPMQkVK+bZcrmyDNfxFQuecr5smR2pyFOmf1Ty9JNIeBkvzEbKr64P847LLu7daCIaoQKellVJ66GDAuXLo+TaUYRaAgCfg8bHu6TTSKm8BbvyNjkKLApJjzvUP9oHuTfEQX+t8bjJXYYbwPfsBUgnRZR/n82LzEk3AFEl0qaB+z51DufB3QhWnLQlb2NhPwawSFLKG+kjaeZBC7mIftWRFdKPcI1yJ+BYKmJZuP+ZvFVuxG0sxf25AFfvrQke54JyeYGyAghfmQZ3fPr168/L1PiiPYLsP9X1yBLFhpChkl9SLq+HjsrPemMkpyTFxnTNCqN4yjGQ+944scyMBICZ5nEOp5ZYCN7a52F3YcysCHeX0Ly2HMsHkSTwGaR1wayHrH8Jq/cm4bAvQQiTN6oiO7/YfdYrgWH8BO9sWPHyo9lF0kTFqS6XqMqDfvLuR5If+XLmCdxjA6wUgZWr3O8Sp9f523x16Ij+6d16tTpMOrIhwR24//jJ/x/PCxl8r/IdfpzrsNPyAqxN4lz1xes10g5trajjiTlfyttQsypUM8fiOAVqMhhQxbYDrIZiN1/cb6kX2kF+ix7mcn/2o+lAv39M2NdzlhfbUPXdlpjUSVFQBFQBBQBRUARUAQUgY6HQKsQYuIdJksJbahYKKsq6hwfwiVL8OJ6OW5poNWtL67Z8DFLEz1eU+FKU/7Z3aZ4rxtNJFzDkkvIMGJ/EBKuZq08L9YFZ+N7PNIklH92J4RX38DN7sVLLSs3+uxVs3EOm///jqcW52U/cY2z71nxvrc53mxiiwcaljrOYrlkV3wCKnjqLcTrbX6C51rVsmdN7ZaFJp8N92WvNXf/MWwI6Vb+2V1iToMi0OQIsFdVEaSO3+409ldKSYbZCjw0T+FB+m0egA8WGfEPiVxCjC/plZP/t5TZgL58FdDJEn/Ew7RDqMXK34J8eBQyayll8qWkXvTvJMoegqC7qVu3brJHknjODEfnaGKHHMHmANKXcOxFnT2ILUlC0umXEwf86Yr+T1litj/tHsdwUnrWeOvTr9+S30FkEAj38PD/src8w7SXBXcIkQzru+r05e9gI4SYnA8hKNIixOQrg4QnqHNczNgW0idwfv4by6cdUe/3KAvJI+E2bHwaTdb95fexO3oiSPA6slqy5BGiRYi1B2Oy7xK7hBhfWuxtdbHVpKSRtSsx51rIoZ5emTfN/9Ek2WzeK5O07LUGMXRHDA8hg69E/LDVg5iax7U7jfLxIuPc7UzknH9kXg+xJbZOc8QQc7Jfm4Ml50X+Z+enaoc+n4X+haIDmf0z/m+mEZ8JTnLD34eDYucjAqLS6te2dEKDIqAIKAKKgCKgCCgCisC2i0CrEGJCeJW8dyobzZ9oIuVr4vYCs6eifMGtbC7/nMnma5JCHGVlFzp7cRmWSpKAVQpz1Dpfa5QvMsoSxNqSpeyztdSacGMhusrn38qeXh/HbaofqVzveqaJh1r16rfdOv6E2A2yLXphPNJKZ19q8gcfZ8rm3YwgfouW2s2fmhK+hpk/7BTHU636m7ewFX2OKZn5c1Ow0zmmYuH9/iadfC3LQ8s4JMjS0FBRf2dPMWlTgyLQXAjgvTHYZ/vr8vLy4zPxtOEB+jYefi0hdpjPXlB2uBVCACQQUDxcl/DALf8oMM5O2En+Sp+Q/5O2LoiKzS+IHXIEmZAVv47J3Yi+bSXzP4456HxO/kvi9cT9kB3IIV83LCTeBbLiOeJRHDGWm1SSwFLEYmxcSF0hvkvYw8L2NUmN1GLseMmWtam1U5filfcCRNG9aOVhdyJkx6CYR1DSiuAqhOJL6O/tUZIls1dCSD1BvA65YLeQ+EMIrueJ+XFODOgLhkfGSrZAZP4lUcthTMTrS8KmaBT8F3L2MYjQeyjN59jdp+UlW6Lr030KTZQVsusocJAPS7zKdfs018vJyI4X+/wfiXeU6CQEro3b6f+pFLzOIeOIC9hbhGB8TCjX+lRJI+8fkwnpFL05xATysQqWx44QAo1+DCP+lqI59G8B/z8Vtl66MV5qh3p0P8JGjScflOyLcMdYQTeJpV1I5WPpz6tkL8eT7zWRM45WvbalDxoUAUVAEVAEFAFFQBFQBLZtBFqFEBPI5WuPFZ/enhJ9IY0scZRSMY3CqpUvJ2hFqjaxz9fvE+QNEdSygX4ZR7IgZFr5vBsSisOlK0zZR5cnyIME4dJlLJFcFlSkMkWgSRHg4fVEn8EfprOJqbcOnlFvQKjI5vuw2Ga7NAiY7W192v/Mpr0xD/YLsWdFLoGGTEgrhxAjfRj7Ew2eNm3a8rKyspVFRUVCTn2F/F103oUYmgER9AXpIOJmLvI36bf8YMjRh3q7QuacDtnzEPmUoVevXrIheidRos1HIeuSejmlNBQrxIZjS7LYFXKjwQE8vmUcb2LgKI4QXjsnEN+RzCAeTLIZ/AuUb+fTmYTcERH3ITHSloPbXPp8Bef+P1ZmY+Sn2Hqk/xqEDcSJkChFUgedlIQY9asZzzxU98HublLHE1xCDDvrPfImTUJI3UPbz3KdvThr1qwtYhwMZEnj8ZKm7dFECWSXlMXG717zIksWsBeyZdjcnryTxQNtjiy/ZA+8X/E/cxpC+Z/IJu2U25hMLf2aCkF2JgSVEG3pBi8h9kG6lfx6tLkS2Xe8csbRate2tx+aVgQUAUVAEVAEFAFFQBHYdhFwJ9nbLgQ6ckVAEfAiACkh+yL9xCvDG+d9bz7NtHhULbO62BTvq1TBJQcgGj4PUuQh2vWSIi1EmxMgq6aTt0vjQnhCieeNYWnmRmxth1fKMHR+IqQWZJiQbUFkmGNL/qAvXlBepvoPbmHqhIMbdSOo/Tm1av2lEBripeYEyIxym25E/A9bl/Oxn037Y4imU2l7KvI4MoxhVXCIx9EzHNdz3MvxNkeJ2MDmKOq9Cpn2oN8meZdcYSx3BZTL0kHxqLJBSJSUATuzYwpdIXyGWGXsuIQYsmYjxCB6Xof8e8ySYdI+19ss2w/wEEKsoUE86pzAOOdLgvPSl8ghIMF8Fdf5jzt37ryM8V6LfAeObI6gIF96PBgSdA7n5ldBCn6ZLJWljXFWTh8SSE5b1pCYPrfKtd2QvmodRUARUAQUAUVAEVAEFIGOiYASYh3zvOqoFIEGI8BDM+t+o146DTZSV3G5TfIA3Numg2Ie2EeInIfwar4KuDhIh76VeuTetclCcIk3kxOwIXtKOQHSwhJlVpRWDAHwOIpLY8qDxBMnVcURI0bIly4nig7xfIgS8UJrbKixBrBZbNMNjcHlPVsXe3vbtCcOQbrcQl7GLksR5XxIeJnkwRCFxRx7cJzMcRXHrzgOwetOlsk9JopSh3P9M+ycKWkJBxxwQGeiPSWNyppk54Qyt0+k0yFhZammDUIWOYG6LUKI2fa8cUlJySe0XyEy4h1iX1P0qtSbhpTeGSWXEOP/YV6s0qGcN8c9jEiWs97J4VwXtLWV4y9ctydw7EGdXsT7UH4Wh/0/LOLc3AN5+D1kKQP7xh1IGwWihN31nLN3UlbIvLClr+3Me6g1FAFFQBFQBBQBRUARUAQ6NAJKiHXo06uDUwQyQ2DChAljePg9JbNaKbW72lIexKtt2h/jtSLLqXrE5F/Kcji/juTpm+sVRtZLiEmZLJt0Ag/yY/bee29n6Z2VZRpDAMgDu0sgsSzNIeyS2enfv/9gyuxv6qfJ9DKRMybXI44xDcqkbpAu5NUybDpLEYlHjB49uovVE9IKEusl8pdaGfE89MZQ7/t41wkhEuhZJ19GFA88+nilp+5dsfMqBKEsI3SIHMqTEoWouB5ilZWVgXtveeyLXRcTSDlLXoqKS4ihE+ghBuk0FGLoYQgru+eV13SD03Lt0ubHYoA4i324knriBTUinlkQv/+kLE/Kwf+/seWVknaJXlsX2TqOC0tLSwdyns6DiH2OY45s3E88m/NyP15r8v8l59YJdOseacfmk8SuRx/6z6MjHp9NFuhzi13bTdZpNaQIKAKKgCKgCCgCioAi0KEQsA9vHWpQOhhFQBFoEAJZbAJ+tzzEN6h2QCVMeUmkNQEqjgiy7EhP2ZuedFwSjxeHJIgJ4wgxHv6n8JDtkB/EuV26dJElZI0K2FniMbC9J52QZAxDrJB6gUs+bXkGsYsZNl3yJ4P6QapzRSjnmf3VHK8tSKHhLL8TAuqoWAUhP/7AUtm9wXVWTFZvBPlyC/2cEVMUD7PjJA0p5PUOXBgrT4jokvUQW5LmnnV2+eC38uVJa5A+uMQpaa9XoVURL7a7aO+neXl5C9jfzsHBLWxkgjZdzGgnYdkkZFwvjnEcI+RDDEJM0ocdICQv4JwIYbi7dAE7JVzzv4x1R/4vXZIqVj6deE+IsDu9yzZj+m4Eubtp3bp1P8KeXYY6DA+wU10FX0L6hMgtpw9C0DV1aJFru6k7rfYUAUWg1RCQ38DsVmtdG1YEFAFFQBHokAjkdMhR6aAUAUUgYwTw5vkplWSJVZOE2BJD10OMr1SuTmaYB/UjISecYh6+XU8Wvz468qDuBNJbbDoW12LnAtLV2HgHEiDQM8hXJ2WWNiJWAdsuyWJl3hivnn6e/CpPusFJ2nRJA/oyMJUhyBXx0FoHgZVyryd0PsHOeLEFWbMb0VQIK6lryaXV4Hcy+E0RnQyDEGl/4Rgr9bBvPb46ST4W3DFZgcRCCjHeEfRDsvV6h4kSutJ/CV9Go+hf5O6G/KTda9DqcK3L9fb9WH4q+8oJJk0WwO99rgfHHmNKIMRoeyzYONd5795errCuC9Qrx85ZnIavRApZJiSZ9xp7gPJzKK+R8vrC3LlzS/GI+y16j8V0nfMdVI+PQ/yGPtq2lgjZHKTXGFlLXduN6aPWVQQUgbaDAPe4A/hdlRdfK/l9eooXMPJ7pkERUAQUAUVAEWgUAkqINQo+rawIdAwEWF7YlQf0mzyjuZv0+Z58xkk2+97VU2lpMo8fIc6Y3FrSYCN1pnnq+ZM9rYBJ8TqbtjEP7k/ZdBPFozx2FnjSCUn6s4RxWHl/m2hMzD5Qa7p161aGjSLsCyEmDbgknbUtGHL+/kL7nSBOXuFB4Whb5o+x85ntJ+nuUr5ixYobBw8efBTJPI7DIVkaTOjx5cNPINjErARLiHnJ0EAiBo+l79EvC2C9hBhL/npgfzunFWMWxmInYlwbrSlII9GLC5RdKwL0xAPr55KMU2h8xvUQw1TCkknOleCcKrxeVVV1Dl8GdT0U6av7dUnS0zMhw2xDnJsp9tyAwU5W7o0PPPBAWd56iZXR1s2k45ZLig7epHuhtwNHHjpr6Y88pA639eqLW+rarq8fWq4IKALtAwHIsLH0VD4QIt7Y7kuP9tH7tt1LyEbneZB7v/zWN/X9MHDwvKD5BQXfk0LuIbcxf5seqNiCwhgOe3CNjaVPG8DjyaDmZW9Q7s9yDTYpVmDyFm3LfO8rPL9PCWq7JWR6PbQEytpGW0JACbG2dDa0L4pAKyHQtWvXP9B0n1jzX/Jw+1ce2htFiGHrMjscbu6Tbdofd+rU6fvIHHca9P5Tj8eLS4gxaUggxPy2myBvl9KF2dMqJSGGB9zHkDo19Et+V0c0QdtG9qNigjQZm0dzFDJJOQx8XvfbZn+ziyi3XljL/eXePBivQ9eKukli0aJFlUOGDDmCJZIVdr8qq0Cbh3Mt/Ij8rtT7hvqfQKzI1zqXWh1vvGHDhsX9+lnnoqhHE3VWeXT29aTdZKwNJ8+eV/VOjFla+HO3sm9fMvopxKoTSDukn83LckBksqeWhBfB8ysn1YR/xCbEpOyR1Ye2enEOt2dyu9g2wbU0GWLqcMoGIROiU0i75fzffU78OfUXEccF6r+AZ9tR4PQH9H6ITlqeYV4jnLNV9EseeLI5J/b/3asiy1uFLCwWITor16xZ86hVEOKV/9c/0O8zkbmkHnljPeKsLv0cZtNBcUtd20Ftq0wRUATaJQKOZ3Os5wn3waARCXHBsviTgsqSyfh9fnL69Olbk5V3NDn3+IP4/X5HxsW96gbuNVe2xBi5v4zmPnFsrK0XiOu97zd3v7iXHUKfnGuL/n1Ae3GEmFxPbC9xBWXnci+9gpePdzVln2h/HPbyOQLvz03ZVjJbej0kQ0blHRmBbZAQsw+CTUrqd+RrRMfWwRFg76JdGOJ5dpjc6C9jg/JqbvpWlHHMpEomrkd6Kj7vSfuTsszRCUwGXrLpoJhy1wMF0sRLsgSpN0rGBwb2BYthtCl2Fs2cObM8lUEpZ9yfojOKOkfIpv489JelqpNOGX14BXuOxxcTtYuoE/cgIJ5SlDvnD90InkX1TdDWe9p1lxMysUtYysh4HsD2Lzz6skzxSLyDLoCcuYA3ug97yyTdvXv3gVZGdxxiCvJmPba2UrczxwA28O/PA8fXVi92Ddo3xXPRT7mEEX0hW4TEFdJmKw8wcf2QdmnHMU8c5yHGckDZp8zuQ/Ouo9QMf+jDLNp2zhtp8YB0CTHeLH9L/o1MmwXvV6kjR4MC50zISDv2lX4jlI+kzz+1cvp964IFC6okLx9d4DdByNnv2HLiMDqbkXX3yJwksrs55ycQX8215Txs+XWo2yLXtr9dzSsCikD7QiD2AZhJsV5/zW/K3HRGANEjy/DvTUfX6lBHiJl5Nr8NxN5nQW96Gxh6/BC5J822Eq6bPUaOHJln74Eih1yV+bJsKSBzj5uZi/yHF01xWzbY+u049l4D3nQ7HpJ2XRFIjcA2daF3Hv+MCRX1dxApm3uDqf464+eR1GhqqSLQDhHAI+Ruum1/C6aIJ4psst6IocgD9x899edhM47EsWU8MH+XiYXzgM3kYuXmzZtTEmLUG2XrQg59ZtNNHYsnDJPiZ+mbw6rQN5kg1xvQ+5Aq0sceLHU8jfj+eivVowDB9QpERET6QjiUt3e7QRjNt9XwShPvsM6x/GuQLQttWZI4kBDz60KOnI9dlwxjbIvIy1vzPYnFG+1B3pAu9ZMd9HUvjy2XBEL2Lw6HbCkoKDiZ9G2ix3hyOJd/xqZzDRLL9ZgycM3KA06RKKF/jZdcExl9dYi4WLq3xDbgXTWIc2uzy2yiqWP69T42HUKM8Qkh9lRTt5GpPfrhJakTJvH0+VZsOuCA4RccD9g2OGfiNWD/Vz9H9094Rb48Y8aMtULKch3ujEw8x35s65AXYvxtrhMh8X7mJ11b69q2/dNYEVAE2gcC/L7Ib6l9S7eB+9P/1dPzmtgRgd/RAABAAElEQVQLBFeN37NqMuK5mxD4rdoOYSihoBkEQrL07dv3Btps8vYY4wrmW3c2Q7e3CZOxl3eLOTfbM2A5T3tAiImnmBPAdgbz1tcoly0eCng5+CcK6rsWY7WbJpIXgrQ7CWsy1xrC8RXn/ROOx+h/RdO0olYUgW0LAfsQvG2MOrvQHWdWdoGb1oQisK0iwI11d8YuN1YJYRzDLoomG/aXicIAaj7NREEIACdwk76ORDKXTHevIur8SZZRxaolROKhgtAhxLBZzsRkaYJSEwh4uC9kOd6TmJKJhoSvIVEujSZT/4VweJS+ncFYsohvguyZygTl89S1UpcK2QOuM9A6QDQhc35D9BNJI5dJ2wWSpr0I/bxJ0qkCahs85UJsBQbG8nNbQJ1fgbeQUNKmyMVzTMjCBxnjSN8kzIvVM1JHAjYeoopDiJG9gQeaatr4jPTFHIdwSPiyrKwsKXEkXgKcm9vRO0yUsfkpY07wiEO2zEN6eQk62ej/S6kbC0L4vcURtoKmiunDLNpyzNFP9/+hqexnage8R9OPc+W0EQvBGudVR/khyBwvPWyH8cD86dSpU93JNVVOjNWtYMnsd3krvsL2Ae9IISBnQHyJB5olxOQ66xnTOZL687hWzuBaeSUmM611bdv2NVYEFIH2gQC/pc49L9bb3cm/mEbP/c84T3Ifs/eguOr8dslLO+e+ElfQDBk+pFLEb6k792niJhZgzyXE+F2XF2au13aStmQe4QR0D+Men2fzSeJ7wNF52YXu1eickESvPrGdY4nerdi6LFUFXqAcwQu/5al0mqhsFnYsJvuRdgkxsc+97EKiSWCVy/F9rp2J8mJQtmPo0aPHIO6PYfop+NSKflMF7p8Due5/j72f0m7ctU1emrmM830KRLD0PzDo9RAIiwoVAdcrpF1Bkd1lZ5O/w88y7nMov25VR/7wU01On3GZ2aitMGWfXJVZHdVWBNowAjzUzuMGeTw32b9xk3+J/McN7S4368Op+zg35l4eG48ycXrWk3eT6O+D7qEioO31eIf9zS0MSOB5JMuvHCabeDoqTUpiyGSG5XTHYfc6DjtRkyVhp/EQvz6gSwkiJkXvMTmScfySPnYH19fA9xgmKHMSlDMQ0IfrsCcTdgk/ZuI4Bbz+QfpJ5JbUepB+TnM0UvxBZw31D6OeEGgrkqnS5m7oSPE36LnnhvP5oNRHLpPg4ehMIHbcbWMTWiFFJNRS9nQ0aQwYTKf8X8ikXj7Y+ImsKtr8YbKlqeB4BHXv57CT+zDpcxlPjW3DxkLWcB5kbIM4dpWPRti90RjLXNr+irpDOU5A7310HoIA+ge2Nlkb/pjrNWfjxo358rVGf1lQHmLvQ/bbkms0RDsJSy+C6jSXDNwPxvZL9MNeK69xrX7qbQ/sSznWoNMX+Z2QYTM95dnIh8byX3jJMI+OAdsisHVE4Hk6aapl3YNgEHFvSMqXOY+7cS3IQ5sTaLPFr23btsaKgCLQ9hHgt3d/fj+cuUKst87vqq/n/vlAwn3Bp99qWV481vLbWM6Yoj+W9fdEbsT1kVTWShwJQzvyAmsXW5hGLBvK75FKj9/2NylfLDroDiUaydGogB2578iRNDAHtPevpDpNUcA9SbY7OCVmSwixuMD96wtuqTL/OjVW8CLziGrSzgsgeRlHvhI78jL0PuZM98X04iJ05GXmgDhhnRdknJj2TqdPYic/riA+I/Oxf7HCY1RsW4b4UnJ6PSRAogJFwEEgjmFuL5iEigeY3N6jG9XdUGFfI0fmQe5LkcyraQ1FoI0iwM39eb4aN5Obd0UmXRSPLZauTeAGewg34UOoK95mbsDeO+vXrz/HFcQnspg0/NkjutO73xY3/7Ox+Q0P7S+jUyteW+Qv9+i/4klnlJR+03Yv+i1ftxzMIV5nexHLGJxleGKQ/osXzVVMZt6WfLqBjekvZbnk0ejL1/qGEv+Pic/dxI8ynrnEGQfO0RvYeImK1jX/IdqQt8BdYsaEtPJ6ZqVqI8KQZEKbMtB3IfFkYpzNFwFlMu4+YNDWbWAoxJZMsA7hgWU28e+pc57IJKBzDf1eE81F/0LincIHHOTt+BFeOelvOH5Cvz7yyLMgT8S7S4iwIzm8P/pbsC9vQt/x6MclOX3TqHMyRxZtSl1nzJBeFVxfPyMv15acbyHw9mU8dyH/ivRaqpRRXwi3buR7ke5F3I03+yuJB3PUG2bNmrUFe/JFT3lYyPcvvajXQCMVhOClv/KlrF9g6lj64dzvyS8Du4T/S3B5n2vsO+j+FjLvSl/ztdSzZNkQ+R/Cu2urT0cejg6yMvBcLtc718ZMrg0hQidg411OWRwRR77Fr23bR40VAUWg7SPAb8kfbC/57bqU34xbuTfIhuzyMkPu1c9y7zjR6rT1OPbb6c416usvv8vXomPfxq/FA+kovKXmB9XbsmVLHCEGNrKf5uYgXY+skLQl3IRYTPht9+jK73y5zXM+ZpBPeyy2XiweQ92BsfTH9HWRrzwui654HbdEmGUboU0778jmfn4A8u8jk/nLLlaH2M7DPCKTj57cT++l3nEyX+Ee63+xeiblXjve+m6aa/1CMrdxyAOoXO9rOP7I8S7Z1bRzIv8LvyUtc9qB7HMmdm/mSAjU0eshARUVKAJ1+wa1KyzC5atNzbcNeq5s1DgjeIj5ybDcfgebUJcRjt3q1VNMeMvCzNvIyjZZ+T1NpGJt5nW1hiLQBAi89957QkikHWTDePYUkpu7nUR564qnyeVMUMUzJJA9ZoJ3BmX7SyV0V7IpuhBGTpCHbW7qt5IpZiKxmvgd8kOJd+SQUMpk8KloMvO/vGWUfb52qqfm/yi/gAf6GfXoJRSLJxJLUY+ELHySwl1oS4iIi+RgPKuIhRCQid23HEIcXctEScaZMkBSnME+KtOxJ3s1ycTInYRhQzylNqU0kHmhEEZCiPWBfHsDYuMa3mzPik3mP0dexSHn/zdMxmQpnkyqnUB/7ueh5Tqbt3FsSeyRnP9dOe8TkA+g3ie8cX7L33+w+i9lQlLGBerNx/4P0Jc+JA3oOYRYTGEs8ZtWmWvzbc7RPuzD8WdkB9OO4CkTWLkunGsjKorWsGlspvtG36lIPZlYCyEmQSbWHzipJvrDRFkm5z0xV8BRzNGfYxDHcI5RHDm276Tlf+0rsJsIdl9J3h+43tcgu8Avj+VnEh+DvW78D71E27/hHH+ELMK10YuH1itIfzemWwUx/JmkaWs9vxeHcg1dT/sPI0r4TWiFazvWTY0UAUWgLSMgxBf9O1z6yO/Ht9z772vL/W3qvnGvlBddDhkW+/0+FO/dlMSRtw/c6sZ580Fpfr8n8fv9XymjjVupc3mQXpCMe8ADyOXIOHBuH+R+Ii+npN07aPfxjI00Q4W1a9d+zJeyqzAt85sdOQdPEMs1KPfapIEx3EXhSg7xZBvH2Jz5C/GhzJFuR/ZjDjegv4WyUlcQTch93A20fS0ZS4bWcv++hf+Bm30vpG4Hy54xUkzqyovEwKDXQyAsKlQE2ueSydpNC0zprHPbxOnLG3S0yem5d7QvNWWmMkNCLLv7d0zhyItNCEJs67unmEh1fS9y2sSwtRPbOALizcWNWpY97emBQpa8vU7+Im66iz3yuKR8thq9m5kIOHLS53hv7jxsH0SBMylApx9p2YDdDej/CQJvnSvIPLGMKg7pYatiU8ikORzTSD/NJE/G1uAgS0/xatub/a5uxt55jMMZLJG4x8e5yDOJkclWvYSY7NPEZv/jWIb3KnbsW8ta6p5Df59vcGeTVISkfIJzcTrFgzjGyYSZQ/YQq6H9HG818g4ZxlhXctxEf+73lvvTEC9CCsqRKgih4iXE3id/C9fWv4nlLXbKAK7TPAojPWknyTkS+5MgxgZBXgqRsz2HEEnbM4ZejClEvIW8EJffkv+WvFw7aQcmr7KP2BlSgfpyzoSAa7KAzRs5Esbmb4B+b+W4A+LpNvFc85enk6f+5bQ1Ht0exBM5/se1UE1cjqyL1wa6f4iRn444lr7Mq+NNt/S17W1b04qAItB2EeD382pP7+7xzhU88tZMhpjTDOXlSn/uj+JNvJF758dN0U8hqhjYLTI47K7nfnIgLxhWtuZgO3rbvLzJ7dKlyyTwLuXeJoSYhB9FI/fvFsqncEyLXZ+Ohxz5Gcx9/mm1mCP/DNnfsCPhNM7nA5w/d17CXGZ/q2tj6ghBJl70WdxfZb7gPOxiZyvpk7D/mtX1xqg/R/63IiNtve68KppWBBSBFAjkpChrV0W52x1qsnKFlG+6EKnabKpXv53SYFZBX7c8XP6Nm04rgWdY8b63m6xQrqNesOMvTPmCP6VVVZUUgdZGgMmZbJ4vxNQ84vcrKireSGcSyARiIPoOQcRN/nlu8EJwuIFJguwztA9651EuS+VkuZoTyD9Oubwxa3Cg39dh+xkMrOcQT61V2MyI6Ein8dheWBdAuDzIZFmW/ckkS94aFnjr05+0CYoPPvhA+nsAE6t9GcMw0u/Sd/E6a/LAHhQL8dYbCSn2R4yfSb+dc0YUdN9Yis5ty5cvf3DRokWVTdSZv2OnDHxm40H2IQSWtJF2gHSbz4RS3qzOxoZ4NwWG2H5YDwUWNlLIORISzwmc+51tugnjr7GVQIjR1mrk8qWs2aRf52uQU5LtzZZuX/g//YLr7jAe+u6mzhiph325eUVvYCIwRt7o3M016TzEOZI0/7TktZ1ml1RNEVAEWhEBfm/2ofnDpQvym8bv+G2t2B0jH3UpLi4Wr2nZYkFeBu4uv+uknRdC0jfShntmhHvPZ2Qv5LfwTZFnGhh7Ab+1f/XUkw+StDsybOzYsX3wbP8d49gXrGRf0mzSCzmX/yYd9yLFM9YWTYK1fOlaPMVPoo+yvUB3fweQL0D+H/r9KunpnIsa0YHAEt0rJE35jRBqL9iXQcxBHuI6OIyiH0g5bQix5hJiIgsI1TGZ7AdmybBVtHkk9+A5AfqOCF2nP5JB11l9kEy3NeXt4XpoTXy07dZDIOjBpvV604iWC3e71GRl5zfCQmLVSPXWegmxUGEft6Is5cwoRGpN1fIXTP7QE51quQOPMpXLXzLhrV9mZEaVFYGmRgAy5CsmCXty8xcSpMbe4L3tcHO+lbwcGQUIiHlMEr5DpT/xJvXioMrYno38dClDVzx2duJYwiTkc5E1JsTe0NU3KWlME3F1ZbwI5LhFPrfOflbd2OMhj31A8vBMymV/riVxFerP1DKG91GTo1lDjOA8mweBy/B2GyYkHOdhqDQq50MONppfmu5G85l0lgeJj9CXo6EhjI3rG1q5KeoxIV7A9XsK5/oTroMvmsKm1wb4X0i+J4RhOeemjLiMpYprm+N8SLtcd/8jGsuYxjIB35P0cPogX1RdSfvL0yXFxVaS0GLXdpL2VawIKAJtBAEIoRV05Ul+X07h9+Y8fn+aelsA70gTlnJLIYTHqURHcexFP0bQD+fFkJRJ8GWtTHR25XiN38rruA9dQzrQvlMh4A9jF2+fHaSIedg9zIleDlBr0yLGLnt4/oVO9pCOerDag/uFEIttItCXs+jbn6Uznj66feO8v8k5FGIrITCHvRUC9FcUdKXu9niXnUz6MauI7F7SDiFGemcrTxEXeMtoez1LJA+WF5ReuT/NNdKZcVjxGptoS3F7uR7aEmbal5ZDoMMQYl7IastwmAi7ZLm3qP50KMdkFw2oXw+NrLxueHdZj1qaLPsmrXpepcpFj5jc/oeZUF5XfohDpnCX803pB+d5VTStCLQGAmEmn580V8NMLvgnjV8KmawtdBdTJke7DwsWLKhiEGvb20Biy+zk7WTSN5TtbUwt1N9art+nm6stHpIatbS3of1iTDOoK4cGRUARUASaBQFeKMiD/al4WV/FC4WMPIQb0KE4osvWh5A4DiLjWMkTO2JkQm7JC465HPPIfkrZatIVpOUrjadzHEg+RPwHSLXPGcsz5NMK8kEU7FxIXXnxVMJG+b9Lq2KAEm33xcavA4pcEe04xFtMMAni4ia30JeAeLmNuaF416cMePkfgN3HURKPMBnHR+TFu6oTsbxMEXycMilvzUCfZtInpwuk5bw+Q/wBBNOrsX5JfwMDRNW3YCxe9MfwQuoe4n96Fdl3dRHvPa1oJ5sIinkJLVuE5HvKxEP+6PrIMNGn/15vu6SEmF4PHnQ1qQh4EOiQhFjJdLZsqS33DDODZHah6XroG2lVyCqo8w6L1FaaSNXGtOp5lSI1JaZy0d9N4a7R+1VOj++YUOcReIkt8qppWhFQBBQBRUARUAQUAUVAEdimEGgBMiwVnrIvZgWEw/vEU1GcwdeSZ+E1vzlJpY8gNh6DTLmXOj+P6dzAUrrngjztg2z06tVLSLhOUkabj6ZoK6h6nAzv5MFs2XB5nDBFhnb3pliOwEC5EHv1EWLZ6D2JniXD/sJLFHnIqbVGId3Ea+pJ9By2iHF2tmUtHfNi6WP6cw3t/pt+ul7pyNbTP9lPtDf7xA2HmAr05ofsvJG6cqQMjDHKuiXR4ppxiNdYsXzZ+YeQj+8nUY8To9ubflpZUkJMrwcLkcaKQDwCHZIQix9i8+VCeIjZEK6s7/5gNRPjqhUvmbwhJ5js4oFOYd6Aw03F5+JlrEERUAQUAUVAEVAEFAFFQBHYthCAWNqDpYMf1zdqiIAf4PmSsCQRj50DIQoq66ufqpz9F6/GQ+uSmHd3KlW3DBKjhr6fTd8PRjhcDpbSnUb8sKuUOvETKabvMiZnKV9q9eSlkCzysaP6PAQKwNBlU1Lpg6l4uacMePSNwtwQUcLWR34yTOTInoVw+i5JhzSMkUHePdNEraVCmP5cHdDYB8iOEDm7XIwmCiTEpDxZ4BoYZcvAZL5NB8SC/zlWDm5f0aeXbb6+GNt1HhrGJCXE9HqoD0kt31YR6JCEWJeJL/Ir7L6IyOzcOvs9plclK7erqxipzNw7rK5yran++g2TvcPPHFHudpNMxRcsO2/oGFzDmlAEFAFFQBFQBBQBRUARUATaFwKQAu5as4b0HDIiF4+YRhFi8gXchrQtpBjLBm+AgHhI6kNYJF1257U/YsSIfHQnxurMhxSRJXwNDng/zaFyUSoDkHeTwOq/ogPm8iXntD3Kguxia4yVY+9fpJM9kHn3pzlYlvPFlsna6q0a0/f3ORcOIUZHhBDLePsDzn90k2gqYy8pIQY5eAJtJXwgJwMA+np0kxJiej14UNKkIuBBoEMSYlk5hZ4hNl8yK6+LazxS1biPesjXLAtihFgov4fJ6bWfqVk307WvCUVAEVAEFAFFQBFQBBQBRWBbQACCYJ54eQWNFaLht5R/L1b2BnrX+/X4YM1HnTp1agzJ4DeZUZ4+vUM/nTr0dUQ6lf+fvfuAk6Ou/z8+V3OXemkkkEoIBAiEEkgISYj0DgoiKvoTsaAi+hO7ooLyt/tTAQuIdOxSlI5AQpoJBELoIZQ0SnrPldzt//2Z25mbnZ3dnbvbK7t5zeOxzMx3vt/vfOc54Wb2M9/57l577TVS+ZoLOc6Lccp0tzw61mAALnJAZ71CasHOwwNtL5XXvlrPGMwJ5O2URR3HAm9HWraAWKsmBfg+ogL/Y4UUDLPJgoNpkwKS9l38+2kbWpfgB8S0n25jaIdQLP8eWnc6yF1oAkUTENu+6OtOSUXvvPrbr0xmm0pKq/zNiYZt/nJbFpq2r3Qat7zqlPW164F+x36PaQTE2gJJGQQQQAABBBBAAIGCFlAvq1odwJyog1CPGv/7iwIAxyiY8srs2bPXhvPOmDEjnNRp6wqGrVTbdikgYG3dJ86OVcZ91dDyquzLccp0wzz2YwPupGM/Qws/S676s5qami9pxQ/i2Ab1LBvqZ+gGCxrQ3gbWT+gY7HXGwyyIFx4HTv++jtTmBrX97eXLl2/ac889B2gQffsiZ7+Odk7gMOyXQucG1v1Flf+cPvv7CW1b2Msr1t0CYmpXUfx78HyZF6eAf0Ep9MNr3PB05x9CWcuPgSSacr5Wn7N9DW8/5gfEyvqNy5mfDAgggAACCCCAAAII7GYCh3rHq2BCtcZ4+qrWv+aldaO5jQNmwa1Yg8aHgkKr830cCur01HhmB6g9FfX19a/PmzdvTb73oXqf7NGjxxbV21fn5hj1lPrJpk2bLrdg0vjx4yuHDBnyNe3/e9qWsmulDU5J6OIVBWQ3KfBqr6xasKqHehvav7kng83SDxZcp3X3ddhRo/xYZjCLLc9XcO2b4URbnzJlygA5XJHctlnzlrF4kokxZ+7rpzLcpXavj1nG4d9DXCnyFbtA4QbESiud3kffoI7FFZ1yjpq2LXd2PB16rT7R0hO4pCLWtS5rW3dttFf9m6fS3hqH0x4qBfbhbWOOAAIIIIAAAggggMDuJmC/+KcgQkrwRIGA/9Vg7rfpFymf60Ye+6ud7pcUzS1AlHPScbyuvF4+v9ePl9DWuQI71kPtatV9iubuK5nV1dWO0u1VmLq21htVTr/GuFHjp31WvavuSG7/Wr9+/T6rwNjbWh+tT6Wl61htrJnn1KZjbF1Ty5eq5vUu/6/aZq9Nur23FKy01yZTAmI6hsrA+Uppr7ZtUsI3NSabBc3cwGhKBq3oHFyp8v0tXfl/pOUrtdjS28I2xJhUzv23orkFOCP3FayGfw9BDZYRcJwCDohVOGW9R3faOSxx/AuUv89EXcu4YaVVKddmP09rFhq3vmZ/EO19a6ektNwp6zNGr1EubU0V5EUAAQQQQAABBBBAoCgF9EraZd6B6Z55p+6Zq/WpUG8dPSV3pujT5G3vyrkCQm7PIWuD2umPR5WtTfpVy2cUJPFesxybLW/cbQoUWjvmmlO4jNLsaX7wif5FCpasfvfdd69rzS9rhuvV64F/Uj02lthPtY/+4f3IY5lec/1wsoeVW1xpC8P1dPW6nTe1/WPJdlhA7Npgm/SjDR/VMYxVvhHKN1zbLLj4inqEvdzQ0PDC3LlzM469k3zd8rPJ+laqzK8VdLOAWKsm6+WlAt6g1u/mKsy/h1xCbN8dBQo3IBY6W/VvP+rkGvMrVCTnqgXcygf4vbLT8jcFBtIvrQr+4m1a1ngJjTudpp1vOWU9m394pazvOAJi8eTIhUBRC0ydOnUvvYLgPqXU6wjL9AR2RWcfsG7epgRu1vTQ87Efd3Yb2B8CCCCAwO4rMH369D0VeGj+SXYxKKhyvK5LP1fa0fpMUi+kK/RLhd/tDkJqj/8Lgwp2PBSnTfpVy50KJNlg+hNU/jQLduhVwx1xykblsV+tVMDmz6rLDYYpcLNIbbExvZYrYGc9k8br80Ftn2jlNben+1frtcbL9thjj+8psHW71tsUYNQ9wg1HH330vxTgO1P7PUj12Jhhy/V5WtvunDRpUo1eQzxI+1SSs0H78seasoRMkwI6I3RMt2j7m6rnokz58pS+wKtH7bSAWMqkHonPKME+rZrs1VH9u71RhcqsoP4df8fGzNO/31bVY5nlGxx7LWtArBj/PbQajAIIRAgUTUCs9uVrnUTd+ohDbHtS+eApWQNiibqWX2Mu6TFIO7I/6tE9VasnfMdJ1G9y6l6/zZ1nalXTlmV+QKy014hM2UhHAIHdSEDjo5yhmzHrdu9o2QJR3+zsw9fN23C14cTkfmO9/tHGNpZNmDChasCAAfZT7TYeRrd7jaKNx0UxBBBAAIF2CKh32Nd1HaqyKhRkmTdr1qz5+pW+S3R9ekpJZUq7XAGlJxUo+Xc7dtPuogpsfFmV2IDy1s6EHmQ9ErdSZX9SxzhB+Qdo8PmPau5e++OWD+YbNmzY4arLHZRY9S5Sz6+jQz2/HpDff+U3O1hOZUbrc4ssv6b0y+T5cHB73OXkGGV/jMqvYNiN2of7SqnaNkt5or9ABQorQGg9ARepnPtajtq3RG37VSBLXhcVPFyiwKHbC1EV72tjfilo2fLlr417U7Dx2zoGCxLa9Jzuc25rXmz9f3XuLNDoTfbKZMap2P49ZDxQNiDQSoGiCYgFj9uCU1X7XxJMirVsAaval34dK69latr5jp/XXnEs0WuTidr0v0Vl/Q9xKvdq/h5ZOfw0Z8t/TvXLhRcaty933KuDNpSU9wpvZh0BBIpIQONsTNVNkd3Eb9fT0UWZDk03ZBZtjzUln57ubZlV9yt6Wp71iWGsSjsxk0xO1vHeZ7uUy98185+yd2Iz2BUCCCCAQDcSUODmfDXnC8km1StYYUEnR8GExQpA/ca26Zpn18rbFCg5ToGSp217Z0/a9Um6dv24uSnu3m9IBoZiNUXXv1tU/iI7Fs1/pOOepWNs0y9OKlhySGCnN4SCYe4m5fG+dnjX3Ne06y9pYw/Nx6sND8r3Kt1LXKG0NvUWc3cU+I+M/ld1n5VMatI+7PzlnGxgfpX9gTJebZlVx8+1/mJbA3a5dij3XTp2uzebZnnVU3+SZg/aclsnnc/eavdXvfL6d2wPONvsqvNnPTLcSY5rveWoebH9e4g6RtIQaItAUQbEStV7tHLP1nc7TTRsa1VALFG/wX2lsazvfq595bBTnbrXbkk7D1VjL/TTdq3P3rPWgnLelI+B+r26mCOAQPcS0E1RlW5851irdHP0lmbN70q3s5l6gn6pqnBvtnRzZDe1kU9Ptf9Dtd99WrG76V5e1TtagatzvfU48+3bt89cuHBhzm68qnuwV5/al/XmTm04W4bnrV279uIlS5Zs98oxRwABBBAoHgEFPY7R9cBusC3g5SiIcKmCFf/1jlDXgG8NGjRomvIcrrR++vxH14cTlc/L0uFzXVMP0vXoMu3oQrXDbaeWn1yxYoVdk2NPCjzNVhDmDyrwaVXTX3U+oGN5rx6aPRu7kmRGXU/9Qd+1XB1VXq/rjVSgxN2kPFu0n2/qWK7Tfn+i/X8geSzfUZuOrKur+7ANmh9VT8y0UtXzWeX9iZdf+/yh9vmot55rruDXNfr3cKTaZb3nrOF/0YPAyXp98dVcZduyXe2zccTcgJhM7LXJdgXE9O92m4agOF493e5Q3at07Pe1pV2BMr0Dy3sElu1HEw7XOGcbZfOGpWt/RffvIXi8LCPQVoGiDIgFMRK7tjsN77rfOYPJ/nJJWQ+nYuh7/PXWLjSsmef4AbGR79UrkXfoL07LGz5lNQc75QMn+tXWLbcOD5mnRP3mlo30EGuxYAkBBPIqoBtgC5b9T1sq1c3hRH3+0ZqyvXr1Ol35789VRjecfkBMN2/pXW6TFeiG/Si14S9ardIXoYN0Q3ymbvpW5qpf+Q7QsbtPMXSjuHD27Nn2y1dMCCCAAALdUMDGr1Sz7tbH+/W96xVEuD7YVHsgomvC6bp+/FfXhVH69Nf1w3og3RvIN00BgmsC68HFCcGVLMtlCuhYj5yBCiTtof0doGUb72uG5rYcnN7QwOrnLlu2rC6YGGd506ZNX9Prkmcqr42ZNlrzp7Rf6xV1iwJmSzSPOy3yMqqeL+v6d7cXHLF0ewVR18MPBvK4r74oaPOm0s6X119U7jYt99LnFPWQWqSxv46M83BL+VMm7ftgBYEs0Bcci2umAlxXpGSMsaIfH7i4Z8+e9srhYWpff9X7d7snULtrYxRvVRbV7wdeVTDY9lbVE8xsr/pOnjz5UI3/1TeY3sbl5YFyp8jhArV5mz4fUfq5srGHohaotako/z00Hxr/RaDtAkUfENu16QVn53P/L7OQgk792hEQ26WAmJPsAVbaY6BToVcjG1Y/4O+vat+W8R4bNT5Y44YcPcQaWgJivDLpM7KAwG4toBt73dt4D5zzQ6En5w26mc9PZTFqUftbnhRkya98fkBM2TIGxNT+7bqR36I8VSpziG76nrQeY/qitCBL9Y560P2vtn/a8qjMxzS71ZbjTrqJ7avg3lXa58H6YnKcyuUc9yRu3eRDAAEEEGgW0Bf7cv2d/Y6uU99WSnMXJseZ/84770T2uFIw5B0FjU7T9dJ+UXGOrgXfVzDtcM9TaWO1/HlvvS1z1X+eyv3Zyur6E1mF9r9NG36/efPm77V1QHyV26wA0um6Xukpu3OA2m7f1yyocZmCVKs1f1Gf9fq4vbV0Pfy+Hb/WUya1xQIg1nNqX9UxTNe813QMlvaYyvRT2lQtW2DJnZR/obdscwWr7tJ5mKZjvUerI7V9rQKBO4N5Mi1Pmzatv8Y8tZ5VR+tjQU0bIsL/3qm67lRg61NKb9SnVVPyxwfOU31LVLCn5ofoY4Gfz7SqohiZFdRcoPPg5tQ+7JXJvEwLFiyw+xf7tGvSOVqgc7pBlQxQ+wbrXN0erFDOFhi2fzvWQ6wo/z0Ej5dlBNoi4P9hakthyuiv+JaXnaYdbzulPfd0OXrs/SGnQb946TTVOxV6bTOld5gG1M81BV+Z5HtWLi22I4BAWwX0ZeGTKms3o7EmBZvO0xeTv1pmu5HVTdj7YxVsyRQOHJWpzpNVV0pUTuv2KqdbSsvjdTN+RksVzUs7duyYr6fcz+mGe7qeWD+i1JEqM0Tzmfqy8AG17d/hMt666hzt1a/5m1563LmCYbNVzu1NoJvQCxQUS7n5jFsP+RBAAAEEogX0t32Mrjf264h+AEJ/u29XEOfSqHGwvFr09/hFXVemrVu37k2lpQRaVN4CRikBH6+c5tO1r/6B9chF9SperqBSyjbVa0+slmn2pDY8qEDYP9saCAtWrGvcMxrEfaJ6Qv1YdV+qfbgXRs2GKZ99/ElWdh1KC4hZjyldQ8/S9vkqV5Os4wjlPUJpfnlb0D7u1H1B2rVTddgYbZO0/Qfy/1bcY1Mw7CPa39UpO2le2ax6vqB9tephVLgeXedf0/X+G94+dDwXa/2+bNf/cB1x1q3nuY7/beW1L3oD5TlWJsvilO2kPI3yvFbH/93w/nTOrIfGFV56Mf978I6ROQJtEUj9q96WGrp5mfJ+BzrVB309cyvLqjJvi7mlVuOG9Tz4G27ust6jnZ4TLnfqVtzlVB/4Zb+GhrX/dRreedxfz7TQuOVVZ9vCL2pMoXKnKc+/mplpn6QjgMBuK+AGqaZOnbqX/ZKlbqim6unvxXbTFBbRTacf0Eou++vBvMkeVA8oz1O6SXtIN70PaXvKFxPLr5tKGxsl69gZ2n6JstonZVJQ6lwl3KmxTJbqKfo0fUF5WPvbXx/7g/4X3RQfq5viTF98RnqV6cvNG95yK+b2ZONnyfw/0XHcLS/rEcCEAAIIIJAHAV2PxuvvuRsM05f6tfp8RteSO+NUrXwvZMj3oK4LH4/apoCHBQ5OidoWTNM143n1wPmU2lara6UFoN5RL6cVyd4+wax5WbaeUKroi7rO3aDr3Gna7wmysLHSUr686FqbsaeRrk8vT58+fT/1cvqWytkwCQMCjWvS8gsq/3vVe6OWI6/rCjS+q21uz+pA2ayL+mXNe/TAyguI1av+/6jAP5R+dzvHIfP3q/N5ra735+q4Zqj+JTqOtlzT/foyLahuexX3fZondF9ir8Z2p4CYo3/z39O/4f+oedZrvUIOL2m+yM59+JiK+d9D+FhZRyCuQNEHxEoqejuVw0+P69GmfA1vPeTsGnGWU15zoFvexiQLjkuW2LXD2fnCz2PWncj5WmXMisiGAALFI5Df9yVDLrpptUFjh1uybvae0uyaUJbYqwpW2ZNse0XiaM3PV8BotG7A0gJisSvMkdGe3mof09XuB7W/icpur0/8W18gjtK2tJtjbRthVerGsUHb7dWTVk362fqrhwwZcrHqGauCe2m/39b8m62qhMwIIIAAAhkFrJePAh2PKsMWvbJ2scZ6XJsxc5YNKrtcAawrLIv+5j+ZKauCWzfrb/l/bbvKZLwuzJ07d6uy3JCpno5K17XqOdVtn5+MHz++sl+/fjUKGlYqQFepQFfF1q1bX8+276SfjRv6JY0BNrBPnz7D5LFegZN3dX3ela1sW7cp6LVC5/Bk7WODTF9J2rW1ukzlEgqwXSSCs3U813TUsegYfqhr/m+0DwsybcrUmPamaz8T9W+xUvW0+iGbgpazVc4+Oaci/veQ89jJgECUQNEHxBJNDU7jRruG5J6a7Bcey6rdjCWaB4NaWUsnGp0dz17h9J78G6e0anBa1tpX/+AkatekpZOAAAIIdAcB3ejZ2Bte1P7rY8eOvb4tAwErMGU/J2433e6k5W/r5jGtt5ltVPp65Z+iLyHB9zb2U5mbbLtuPO3p+7m2HJ70yuTzwTTVtU6vlpykV0vsC88YffbQ0/QH9NrNlOCTaBvTRNt6Jcuu0Nyejrdqstd1hg4d+lUVussKqr2XTpgw4Sp+5bJVjGRGAAEEsgro1cNT9XpeQ9ZMOTbOmzfPbr6vzJHNrkfucAC58nWH7clXRtv8pSI5IP76zjgWBTYf7uj96BpvwcBfduR+9O/DHhR2+JSld2OH7bvY/j10GBQVF7VAUQbEmravdOresDEvSzTG11KN6fWfWCexcsTZTr8T7e2e9CnRlP0BSmLnO862/37O6XXEL5yy3iP9CmqX3eTUL/+nv84CAggg0FoBBYcUd+m4TmL6yfrfDx48+Ftqlw3KOmzEiBEXKCB2Y2vbqdjWV1RmYLLcM3pi6Qa3MtST0E2m+0Te264u/4d5y2rHApWf563nmuvVkg3qFfZePSmer7y9VH6cHqDfrafpJ3pjzihINiRQz6rAcqsW1a671dY5KjRNn14DBw60wN2traqEzAgggAACGQXaGwzLWDEbEEAAAQQQCAgUZUAsoV9qrH3ld4HDjLeY2JW5h2r9yrtzVpKofdfZNvdCp6xmvFNaPcTtmda008ZhZEIAAQSyCtRoIODLMuVQcGdqYNvUbHmVb0ogb6xF692kVxt+q/1cbgU0/7JmFsxK2HqcSb29hquc9ZxyJwXx/lcLreqBpTInqY5kDRkHP/a2O2rzC8pfrnKL9ST6fHutRIGqC5Xh78lMg/r27VuWXLbZoMCyjYnS5kmvNtykAKAFxMzrfzQjINZmTQoigAACCCCAAAIIIND5AoUbELNXIbctd0pKK/RqTaOTaKxrt17j5lc08P1Mvx573TJRt8FpWDs//rheiV0KhD2rj18NCwgggEAugZ4KrvwiVybbruCL/RrW9Dh5W5Ontrb2mqqqqq+o7ip9DlTQ7VR1378/bh0ap+XHytvT8itA9Q8FqJ6IW9byKaBWrv2+xyujcTQWesuZ5tbO5LatXh713vqHgmI/UBvGKWj1ieSgxO5m5fd6r9l6m185scIaE+Uujb1mT14qVe+x6p02QgG5lbaNCQEEEEAAAQQQQAABBLq/QAEHxOqdbXM+mlfhph2rnB2Lv5vXOqkMAQQQiBLQa4pNGpz9ZQVTgj2YorJagGlP5eud3LhB81jjf6hcZNBHwSf3FyXDO9M+7MlClaUrQPdj9cDyA2/adnAg/2Ha9qPAerX29WHlcZM0bwxtd9OV50EF2WYFyvmLKjNZK30tQfmsZ1qbx+xQUCzyD7mq9QwtsNiuxxY2NpkCbzY+yhn6lCog+H7NO3QcE9XPhAACCCCAAAIIIIAAAnkSKNyAWJ4AqAYBBBDoCgEb10of+/nunJN6a31OAZzfWEYFdX6r3lffyVkoSwbVdYY+F2fJYpsOVp5gECyYfYy2fSOYEFo+X9tDSe6qDbAfGRBT+kmBAvM0vph+5SS/k4J8zb+aomrVe2xnHmq3gZgtIGYBtkl5qI8qEEAAAQQQQAABBBBAoJMECIh1EjS7QQABBNoqoECOH11S4CX2uF6Z9qc6bHDD1zNtD6crCLeXyrg9x0LbYtdh5VTP2lB5f1XHeKK3on15Y4B5Sfma+7+Oon14vzbZ5rp1PLNVj1te84ltroiCCCCAAAIIIIAAAggg0OkCBMQ6nZwdIoDA7i6gHl9fUgDoPHPQWFQX22Dw+TbR63xfU53vtXrVG+qrelVxrrcP9TC7Usv2yTlNnTq1j8YWs/HADg1mVjDIBqU/SXW9Fkxvy/LEiRP7qZzbw0r1WsDvH22pJ1cZVb0mEMAakSt/ru069uV6NXST6qxR3WMnT57cd8GCBVtylWM7AggggAACCCCAAAIIdL1Aadc3gRYggAACu53AOB2x/RrkFAXGggO95w1CARp7HdPdh+ZD2lKxAlUVGjj+nyqbEgyzuhQEGqLPwxqPbGhb6g6W0S9BfkLr7lhqqnOuAk2rg9vzuGxBPHeST7sDYsmqlthc7S7p2bPnYck0ZggggAACCCCAAAIIINDNBQiIdfMTRPMQQAABBW/8VybV26vdr0zGEZ0wYUKvmpqaOxXn8V9ljCg3RgG9mQqK7R+xLVbStGnT+msfl3uZdax/9JbzPVfdfkBM+xyerX4d08fUk++0bHlsm+pZ7OWRxUHeMnMEEEAAAQQQQAABBBDo3gK8Mtm9zw+tQwABBDpdQK9bWo+ye/U5IrnzRgWT7lfw50xb1/IjmvXT+iR9xikQtFBl/ke/7nh3Mn/smXqgWTCsvxVQvcs3b958R6hwqYJTtp/9lD5K803Kt1rzVaF8OVe3bt36roJ8O5Sxp+qwgJgFGtMCjJMmTRqoY7pW++it47pXx+Ued9QOVM9Lyudu0rJ7HFH5SEMAAQQQQAABBBBAAIHuJUAPse51PmgNAggg0KUCxxxzzAEK7PxXjfCCYfXqlfYBrd/mNUwBoC07d+48Vfm81wX7aPlOjaf1A+WJfV3RvvZW/s979Wr+k0WLFjV46+qhdbrqXFJWVjZfAapb9Pm+9n215v/UfIGXT/Ma62kWWI9ctLrVzkdto8pXK9B2clTGXr16XabtvZPbVkTl8dJUX/CHAmq8dOYIIIAAAggggAACCCDQvQVif3Hp3odB6xBAAIGiFvBfmVSgJq1HU76OXAGoD1dUVMzXPkYn69yiYNhZGpD/zvA+5s+fv0E/CHCC0ufYNpWx6XL1qHpIQaxR4fxR69rXj5Remdz29ooVK2708qkt56i+f+sz3ktT8GmrPn7AzEtXnn3U0+wNlblSQa6sQSmVt55v7qTA2mXesjefMmXKANV3qa0rb6Kuru7X3rYM83WBdPtxACYEEEAAAQQQQAABBBAoAAECYgVwkmgiAggg0JEC9uuICmTdrgCRva7oBnUUC3pRwaAjFQx7KNO+Z8+evXbTpk3HKWh2XSCPBcmeV1DMgkoZrzEKXk3W9vO9ctrft5YtW1Zn6wpqDVJQ6mZ93ECgtl2rfUzTYPs1mvdUu8Zpfray2uuP3tRP7f+uPm/oWD7iJYbn9fX196o+N6io6k/UvlLG/aqurrbeYX2S5R6YM2fO0nAdoXUCYiEQVhFAAAEEEEAAAQQQKASBjF9WCqHxtBEBBBBAoH0CCkxN1SuCz6qWC7yaFC/6mwJOk2MEgxx7DVFBs8+o7GdUzu29pYBSb32uVlBstgJOkQPua/vPAvt7QMGum711zY8KBKV+q22Xah9zld40c+bMXdYurf9L+6v3ymjZDUypnPUQu037/pN+JTOtx9bcuXPf0vZ5Xjm9jvlVb1ll9tHyF21d9SVkYD3Ysk7Ktj6QoXdgmUUEEEAAAQQQQAABBBDoxgIExLrxyaFpCCCAgAko6OK/Mmmr+VBR8GeUPreqR9UTCiKNtjq1H3sl8XMKQJ2vwNM2S4s7aeD56xRAmqT8i70yqvdoBZyeVY+t6zTG1xgv3eba9npy3V7L/HRwm9p0aGD9kcBycNGuXz0sQW1epDHNrNeY/wuVqv9D/fr1uyFYwFtWfhvrzJv+Rw4fV/CspxLuUDkvqHWDDNzXQb2MUXPleVf12VhkJ2n/aa9gRpUhDQEEEEAAAQQQQAABBLpeoLzrm0ALEEAAgd1XQAGYYxWQyTogvAIuEwJChyv/+wLrmRatt1PaZGNk9ezZ89vacIk+bkDJMmkfD+zateviJ554YqWtt2VScGixeoQdqYDWN3Rc31EdNj6YfT6tMb4+ocDYXzTu2JXax6sKoF2o47AB7mtVbpXmwcl/DVFBpoO14e7gRlueMWPGZO2jOpm+wsY00/InVecspf9By3Zsv0tuT5nZa6Bqyz1KtNcubfqjfn3yV5r3ddcc523t92vJ5VyzhAKID+fKxHYEEEAAAQQQQAABBBDoXgIExLrX+aA1CCCwmwkoePTdXIesAI+fRctnacU+bZoUDLNfkNzXK6xA2GrV+Q0FdW730tozV3Brl8pfpcDY3Tq2X6nu45P1lWl+gdIe0PxVS9M+b7N5eFKbbGB/N1n5L1eQa6PGDbtFrztuVWKp1t+j+fX6uJPy+r3SrE69BrpUaado+TEvT3i+Y8eOizRe2Fzl218f25kXDHMUDPu8jmNTuAzrCCCAAAIIIIAAAgggUDwCvDJZPOeSI0EAAQRyCijY9EPLZIEwfS7VLzvuo95aeQmGBXeugNLzikedoH3M0GdWcp8PKN0G7s86qQeXjWn222SmSsWrrqmqqtqiXl2bFAyr1fqj+uxj21X3Kg2Un9ITTOUXaN9XJstHzqxH2bZt26ap/IJAhkYtf0bl7wyksYgAAggggAACCCCAAAJFKEAPsSI8qRwSAggUjoB6I53hBYzy2Wr1rLpOQaMPh+tUoOhmBZXeUiBslverjuE8+VzX/p5Qfe/RPo/R65Juz7A49StI9wWV2ai8X9BxeL/62E/LweJz5Hep/dplMDHu8sKFC21A/KnJ1zz31vITau/quOXJhwACCCCAAAIIIIAAAoUrQECscM8dLUcAgcIVeEyBHLf1jY2NL2pMrVYNYB/nsPXa4H0KtNkrhtaLammwjII+rR7zSnU0ecEoWw7WF2c5GRiLk9XL06gyl2vMs//Tq40na59jFeQbqrkFv1bJb7F6mz3lZW7HvFH12Guk9mFCAAEEEEAAAQQQQACB3USAgNhucqI5TAQQ6D4CeiXvb2qNfTps0j7+pMrtk5dJ9d01YcIE9xcYFcRryEulMSpJDpb/5xhZyYIAAggggAACCCCAAAIIxBYgIBabiowIIIDAbi3QtGTJku27tQAHjwACCCCAAAIIIIAAAkUjwKD6RXMqORAEEEAAAQQQQAABBBBAAAEEEEAAgTgCBMTiKJEHAQQQQAABBBBAAAEEEEAAAQQQQKBoBAiIFc2p5EAQQAABBBBAAAEEEEAAAQQQQAABBOIIEBCLo0QeBBBAAAEEEEAAAQQQQAABBBBAAIGiESAgVjSnkgNBAAEEEEAAAQQQQAABBBBAAAEEEIgjQEAsjhJ5EEAAAQQQQAABBBBAAAEEEEAAAQSKRoCAWNGcSg4EAQQQQAABBBBAAAEEEEAAAQQQQCCOAAGxOErkQQABBBBAAAEEEEAAAQQQQAABBBAoGgECYkVzKjkQBBBAAAEEEEAAAQQQQAABBBBAAIE4AgTE4iiRBwEEEEAAAQQQQAABBBBAAAEEEECgaAQIiBXNqeRAEEAAAQQQQAABBBBAAAEEEEAAAQTiCBAQi6NEHgQQQAABBBBAAAEEEEAAAQQQQACBohEgIFY0p5IDQQABBBBAAAEEEEAAAQQQQAABBBCII0BALI4SeRBAAAEEEEAAAQQQQAABBBBAAAEEikaAgFjRnEoOBAEEEEAAAQQQQAABBBBAAAEEEEAgjgABsThK5EEAAQQQQAABBBBAAAEEEEAAAQQQKBoBAmJFcyo5EAQQQAABBBBAAAEEEEAAAQQQQACBOAIExOIokQcBBBBAAAEEEEAAAQQQQAABBBBAoGgECIgVzankQBBAAAEEEEAAAQQQQAABBBBAAAEE4ggQEIujRB4EEEAAAQQQQAABBBBAAAEEEEAAgaIRICBWNKeSA0EAAQQQQAABBBBAAAEEEEAAAQQQiCNAQCyOEnkQQAABBBBAAAEEEEAAAQQQQAABBIpGgIBY0ZxKDgQBBBBAAAEEEEAAAQQQQAABBBBAII4AAbE4SuRBAAEEEEAAAQQQQAABBBBAAAEEECgaAQJiRXMqORAEEEAAAQQQQAABBBBAAAEEEEAAgTgCBMTiKJEHAQQQQAABBBBAAAEEEEAAAQQQQKBoBAiIFc2p5EAQQAABBBBAAAEEEEAAAQQQQAABBOIIEBCLo0QeBBBAAAEEEEAAAQQQQAABBBBAAIGiESAgVjSnkgNBAAEEEEAAAQQQQAABBBBAAAEEEIgjQEAsjhJ5EEAAAQQQQAABBBBAAAEEEEAAAQSKRoCAWNGcSg4EAQQQQAABBBBAAAEEEEAAAQQQQCCOAAGxOErkQQABBBBAAAEEEEAAAQQQQAABBBAoGgECYkVzKjkQBBBAAAEEEEAAAQQQQAABBBBAAIE4AgTE4iiRBwEEEEAAAQQQQAABBBBAAAEEEECgaAQIiBXNqeRAEEAAAQQQQAABBBBAAAEEEEAAAQTiCBAQi6NEHgQQQAABBBBAAAEEEEAAAQQQQACBohEgIFY0p5IDQQABBBBAAAEEEEAAAQQQQAABBBCII0BALI4SeRBAAAEEEEAAAQQQQAABBBBAAAEEikaAgFjRnEoOBAEEEEAAAQQQQAABBBBAAAEEEEAgjgABsThK5EEAAQQQQAABBBBAAAEEEEAAAQQQKBoBAmJFcyo5EAQQQAABBBBAAAEEEEAAAQQQQACBOAIExOIokQcBBBBAAAEEEEAAAQQQQAABBBBAoGgECIgVzankQBBAAAEEEEAAAQQQQAABBBBAAAEE4ggQEIujRB4EEEAAAQQQQAABBBBAAAEEEEAAgaIRICBWNKeSA0EAAQQQQAABBBBAAAEEEEAAAQQQiCNAQCyOEnkQQAABBBBAAAEEEEAAAQQQQAABBIpGgIBY0ZxKDgQBBBBAAAEEEEAAAQQQQAABBBBAII4AAbE4SuRBAAEEEEAAAQQQQAABBBBAAAEEECgaAQJiRXMqORAEEEAAAQQQQAABBBBAAAEEEEAAgTgCBMTiKJEHAQQQQAABBBBAAAEEEEAAAQQQQKBoBAiIFc2p5EAQQAABBBBAAAEEEEAAAQQQQAABBOIIEBCLo0QeBBBAAAEEEEAAAQQQQAABBBBAAIGiESAgVjSnkgNBAAEEEEAAAQQQQAABBBBAAAEEEIgjQEAsjhJ5EEAAAQQQQAABBBBAAAEEEEAAAQSKRoCAWNGcSg4EAQQQQAABBBBAAAEEEEAAAQQQQCCOgB8QSziJujgFyINAikAiUZ+yzgoCCCCAAAIIIIAAAggggAACCCDQzQX8gJjauaGbt5XmdUuBEv7ddMvzQqMQQAABBBBAAAEEEEAAAQQQQCCTgB8QK0k4SzNlIh2BTAIJh383mWxIRwABBBBAAAEEEEAAAQQQQACB7ingB8R2NTpPqYm7umczaVV3FShxEvO7a9toFwIIIIAAAggggAACCCCAAAIIIBAl4AfEBp89d2sikZgVlYk0BDIJNJU492baRjoCCCCAAAIIIIAAAggggAACCCDQHQX8gJg1LpFwbuyOjaRN3VQgkVg64NQ5c7tp62gWAggggAACCCCAAAIIIIAAAgggECmQEhD7z/Y5f1WuZZE5SUQgJJAoSfxQSRpGjAkBBBBAAAEEEEAAAQQQQAABBBAoHIGUgNgHPuA0NjlNXyyc5tPSLhNIJBb0P3XurV22f3aMAAIIIIAAAggggAACCCCAAAIItFEgJSBmdQw4de79enfyd22sj2K7gYDGmttS39D4ER0qvcN2g/PNISKAAAIIIIAAAggggAACCCBQbAJpATE7wGUrd1ovsYeK7WA5njwIJBL1JU3OuXucPZ9Xa/PASRUIIIAAAggggAACCCCAAAIIIND5ApEBsSMuXtSw8Z2V71VPoLs6v0nssbsKWM8wp8k5veaMOf/prm2kXQgggAACCCCAAAIIIIAAAggggEAugciAmBXa++Nv1vY/bc65TqLpq1qtzVUR24tcQGOGNTQ0TiQYVuTnmcNDAAEEEEAAAQQQYtET1wAAQABJREFUQAABBBBAYDcQyBgQSx57oua0uT93GuoO1GBRN2vIqIbdwIRDDAokEksTTtOFNafNmcJrkkEYlhFAAAEEEEAAAQQQQAABBBBAoFAFyuM0vOashW8o38dX3TnpK72repyj5eP1mZBwEsNLSpzejqP/MhW+gMYH07ncoODn0hInMb+pxLl3wGlz5urAGDy/8M8uR4AAAggggAACCCCAAAIIIIAAAkmBWAExT2v4OQvXa/kPyY+XzBwBBBBAAAEEEEAAAQQQQAABBBBAAIGCEcj1ymTBHAgNRQABBBBAAAEEEEAAAQQQQAABBBBAII4AAbE4SuRBAAEEEEAAAQQQQAABBBBAAAEEECgaAQJiRXMqORAEEEAAAQQQQAABBBBAAAEEEEAAgTgCBMTiKJEHAQQQQAABBBBAAAEEEEAAAQQQQKBoBAiIFc2p5EAQQAABBBBAAAEEEEAAAQQQQAABBOIIEBCLo0QeBBBAAAEEEEAAAQQQQAABBBBAAIGiESAgVjSnkgNBAAEEEEAAAQQQQAABBBBAAAEEEIgjQEAsjhJ5EEAAAQQQQAABBBBAAAEEEEAAAQSKRoCAWNGcSg4EAQQQQAABBBBAAAEEEEAAAQQQQCCOAAGxOErkQQABBBBAAAEEEEAAAQQQQAABBBAoGgECYkVzKjkQBBBAAAEEEEAAAQQQQAABBBBAAIE4AgTE4iiRBwEEEEAAAQQQQAABBBBAAAEEEECgaAQIiBXNqeRAEEAAAQQQQAABBBBAAAEEEEAAAQTiCBAQi6NEHgQQQAABBBBAAAEEEEAAAQQQQACBohEgIFY0p5IDQQABBBBAAAEEEEAAAQQQQAABBBCII0BALI4SeRBAAAEEEEAAAQQQQAABBBBAAAEEikaAgFjRnEoOBAEEEEAAAQQQQAABBBBAAAEEEEAgjgABsThK5EEAAQQQQAABBBBAAAEEEEAAAQQQKBoBAmJFcyo5EAQQQAABBBBAAAEEEEAAAQQQQACBOAIExOIokQcBBBBAAAEEEEAAAQQQQAABBBBAoGgECIgVzankQBBAAAEEEEAAAQQQQAABBBBAAAEE4giUBzPdd999o4Lr+Vo+/fTTl+erLupBAAEEEEAAAQQQQAABBBBAAAEEEECgPQIpAbFEIvEHVTa9PRVGlb333nujkrtz2oru3LgMbSuooKP+rRVUe5PmBdXm0tLSgmqvjAutvfbPoqDazMOJ5P/JzBBAAAEEEEAAAQQQQGC3FygJCihw9bDW8x4QC+6DZQQQQAABBGIK8HAiJlRbsxXgw4mCCkIX6oMJtXvIrl27bm/lv6uHVe5nrSyTj+wF9W+CBxP5OOXUgQACCCCAQH4ECIjlx5FaEEAAAQQQQACBYhEoUbC0RysPprGkpKShlWXI3v0FeDDRweeoAB9MmEhBBaIL9eFEB//Ty3f1BfVvgocT+T79hVtfyiuThXsYtBwBBBBAAAEEEEAAAQTyLDAyz/V1RnUF1WYFknk7p4P/VSjo2MF7oPpCEyiwIZ14MNGOf2BnnHHGSdmKExDLpsM2BBBAAAEEEEAAAQQQQAABBBBAoGsECirInyTqLm3OGUws7Zpzyl4RQAABBBBAAAEEEEAAAQQQQAABBBDoEIGcr/ISEOsQdypFAAEEEEAAAQQQQAABBBBAAAEEEOiuAgTEuuuZoV0IIIAAAggggAACCCCAAAIIIIAAAh0iQECsQ1ipFAEEEEAAAQQQQAABBBBAAAEEEECguwoQEOuuZ4Z2IYAAAggggAACCCCAAAIIIIAAAgh0iAABsQ5hpVIEEEAAAQQQQAABBBBAAAEEEEAAge4qQECsu54Z2oUAAggggAACCCCAAAIIIIAAAggg0CEC5cFaE4nEE1rP+dOUwTJxlktKSkbFydfN8hRam0d2Mz+agwACCCCAAAIIIIAAAggggAACCHRLgZSA2JlnnnlVt2wljSo6gfvuu6/QAo52DgqtzYXWXqepqanQ2lww7eXBRKf8GeXBRKcwsxMEEEAAAQQQQAABBNovkBIQa3911IBAPIHTTz897z0R4+25XbkKsc3tOmAKI4BA8QrwYKJTzm3BBM09jeSDiRoF0b/opcWZ6y2DZ/W5O07ePOcpKGMeTuT57EdXx8OJaBdSEUAAAQRCAgTEQiCsIoAAAgggsDsI8GBidzjLbTtGC5YquHVJK0s/w5sGrRQjOwIS4OFEh/8zKKiguWnwxkTH/pvgwUTH+iZrL5gHEwTEOuXfAztBAAEEEEAAAQQQQAABBFIFeDiR6sEaAggg0JkC/MpkZ2qzLwQQQAABBBBAAAEEEEAAAQQQQACBLhcgINblp4AGIIAAAggggAACCCCAAAIIIIAAAgh0pgABsc7UZl8IIIAAAggggAACCCCAAAIIIIAAAl0uQECsy08BDUAAAQQQQAABBBBAAAEEEEAAAQQQ6EwBAmKdqc2+EEAAAQQQQAABBBBAAAEEEEAAAQS6XICAWJefAhqAAAIIIIAAAggggAACCCCAAAIIINCZAgTEOlObfSGAAAIIIIAAAggggAACCCCAAAIIdLkAAbEuPwU0AAEEEEAAAQQQQAABBBBAAAEEEECgMwUIiHWmNvtCAAEEEEAAAQQQQAABBBBAAAEEEOhyAQJiXX4KaAACCCCAAAIIIIAAAggggAACCCCAQGcKEBDrTG32hQACCCCAAAIIIIAAAggggAACCCDQ5QIExLr8FNAABBBAAAEEEEAAAQQQQAABBBBAAIHOFChvy87+fdN1+5eWl0xQ2eElJaW9E4kEgbW2QHajMqWlTqIpUVLvJJwNidLGpY21m546+xNf39qNmkhTEEAAAQQQQAABBBBAAAEEEEAAgbwIxA6I3XvHb8eUOZWXaK8f1Gev4N5LSkqCqywXqECpnUb3VJY5ZVUDdt1/+w2zEo5z4/Z7HvrrB/7+98YCPSyajQACCCCAAAIIIIAAAggggAACCKQI5OzZpUBY/wduv/73pU7lUpW8TJ+UYFhKbawUkUBJueKcxytIdkefs096+YFb/3BaER0ch4IAAggggAACCCCAAAIIIIAAAruxQNaA2P23/+Go0kTFEqek9GJ1HCrbjZ1270MvKRnrlJXcd/8df/jtddddV7F7Y3D0CCCAAAIIIIAAAggggAACCCBQ6AIZA2Juj6AS5zG9Djm80A+S9udHoMQp+ezI3qX/vummK6ryUyO1IIAAAggggAACCCCAAAIIIIAAAp0vEBkQs55hiTLnHwqAVHd+k9hj9xYoOXlIxbA/qY0MHNe9TxStQwABBBBAAAEEEEAAAQQQQACBDAJpATEbM0x5/04wLIMYyY56Db7v/juu/zIUCCCAAAIIIIAAAggggAACCCCAQCEKpAXEyhLlP+I1yUI8lZ3d5pLv/+vWP+zd2XtlfwgggAACCCCAAAIIIIAAAggggEB7BVICYuodNiZRUvrJ9lZK+eIXsB6EFaUl3y3+I+UIEUAAAQQQQAABBBBAAAEEEECg2ARSAmJlTuUl/JpksZ3ijjyexAV33nLtwI7cA3UjgAACCCCAAAIIIIAAAggggAAC+RZICYip8g/mewfUV8QCJSUVVWWV5xTxEXJoCCCAAAIIIIAAAggggAACCCBQhAJ+QOzfN123v45vryI8Rg6pQwVKju/Q6qkcAQQQQAABBBBAAAEEEEAAAQQQyLOAHxArLS+ZkOe6qW73EODfze5xnjlKBBBAAAEEEEAAAQQQQAABBIpGwA+I6YiGF81RcSCdKFDCv5tO1GZXCCCAAAIIIIAAAggggAACCCDQfgE/IFZSUtq7/dVRw+4mUFLi8O9mdzvpHC8CCCCAAAIIIIAAAggggAACBS7gB8QSiYS/XODHRPM7V0A/TMqEAAIIIIAAAggggAACCCCAAAIIFI4AQbDCOVe0FAEEEEAAAQQQQAABBBBAAAEEEEAgDwIExPKASBUIIIAAAggggAACCCCAAAIIIIAAAoUjQECscM4VLUUAAQQQQAABBBBAAAEEEEAAAQQQyIMAAbE8IFIFAggggAACCCCAAAIIIIAAAggggEDhCBAQK5xzRUsRQAABBBBAAAEEEEAAAQQQQAABBPIgQEAsD4hUgQACCCCAAAIIIIAAAggggAACCCBQOAIExArnXNFSBBBAAAEEEEAAAQQQQAABBBBAAIE8CBAQywMiVSCAAAIIIIAAAggggAACCCCAAAIIFI4AAbHCOVe0FAEEEEAAAQQQQAABBBBAAAEEEEAgDwIExPKASBUIIIAAAggggAACCCCAAAIIIIAAAoUjQECscM4VLUUAAQQQQAABBBBAAAEEEEAAAQQQyIMAAbE8IFIFAggggAACCCCAAAIIIIAAAggggEDhCBAQK5xzRUsRQAABBBBAAAEEEEAAAQQQQAABBPIgQEAsD4hUgQACCCCAAAIIIIAAAggggAACCCBQOAIExArnXNFSBBBAAAEEEEAAAQQQQAABBBBAAIE8CBAQywMiVSCAAAIIIIAAAggggAACCCCAAAIIFI4AAbHCOVe0FAEEEEAAAQQQQAABBBBAAAEEEEAgDwIExPKASBUIIIAAAggggAACCCCAAAIIIIAAAoUjQECscM4VLUUAAQQQQAABBBBAAAEEEEAAAQQQyIMAAbE8IFIFAggggAACCCCAAAIIIIAAAggggEDhCBAQK5xzRUsRQAABBBBAAAEEEEAAAQQQQAABBPIgQEAsD4hUgQACCCCAAAIIIIAAAggggAACCCBQOAIExArnXNFSBBBAAAEEEEAAAQQQQAABBBBAAIE8CBAQywMiVSCAAAIIIIAAAggggAACCCCAAAIIFI4AAbHCOVe0FAEEEEAAAQQQQAABBBBAAAEEEEAgDwIExPKASBUIIIAAAggggAACCCCAAAIIIIAAAoUjQECscM4VLUUAAQQQQAABBBBAAAEEEEAAAQQQyIMAAbE8IFIFAggggAACCCCAAAIIIIAAAggggEDhCBAQK5xzRUsRQAABBBBAAAEEEEAAAQQQQAABBPIgQEAsD4hUgQACCCCAAAIIIIAAAggggAACCCBQOAIExArnXNFSBBBAAAEEEEAAAQQQQAABBBBAAIE8CBAQywMiVSCAAAIIIIAAAggggAACCCCAAAIIFI4AAbHCOVe0FAEEEEAAAQQQQAABBBBAAAEEEEAgDwIExPKASBUIIIAAAggggAACCCCAAAIIIIAAAoUjQECscM4VLUUAAQQQQAABBBBAAAEEEEAAAQQQyIMAAbE8IFIFAggggAACCCCAAAIIIIAAAggggEDhCBAQK5xzRUsRQAABBBBAAAEEEEAAAQQQQAABBPIgQEAsD4hUgQACCCCAAAIIIIAAAggggAACCCBQOAIExArnXNFSBBBAAAEEEEAAAQQQQAABBBBAAIE8CBAQywMiVSCAAAIIIIAAAggggAACCCCAAAIIFI4AAbHCOVe0FAEEEEAAAQQQQAABBBBAAAEEEEAgDwIExPKASBUIIIAAAggggAACCCCAAAIIIIAAAoUjQECscM4VLUUAAQQQQAABBBBAAAEEEEAAAQQQyIMAAbE8IFIFAggggAACCCCAAAIIIIAAAggggEDhCBAQK5xzRUsRQAABBBBAAAEEEEAAAQQQQAABBPIgQEAsD4hUgQACCCCAAAIIIIAAAggggAACCCBQOAIExArnXNFSBBBAAAEEEEAAAQQQQAABBBBAAIE8CBAQywMiVSCAAAIIIIAAAggggAACCCCAAAIIFI4AAbHCOVe0FAEEEEAAAQQQQAABBBBAAAEEEEAgDwIExPKASBUIIIAAAggggAACCCCAAAIIIIAAAoUjQECscM4VLUUAAQQQQAABBBBAAAEEEEAAAQQQyIMAAbE8IFIFAggggAACCCCAAAIIIIAAAggggEDhCBAQK5xzRUsRQAABBBBAAAEEEEAAAQQQQAABBPIgQEAsD4hUgQACCCCAAAIIIIAAAggggAACCCBQOAIExArnXNFSBBBAAAEEEEAAAQQQQAABBBBAAIE8CBAQywMiVSCAAAIIIIAAAggggAACCCCAAAIIFI4AAbHCOVe0FAEEEEAAAQQQQAABBBBAAAEEEEAgDwIExPKASBUIIIAAAggggAACCCCAAAIIIIAAAoUjQECscM4VLUUAAQQQQAABBBBAAAEEEEAAAQQQyIMAAbE8IFIFAggggAACCCCAAAIIIIAAAggggEDhCBAQK5xzRUsRQAABBBBAAAEEEEAAAQQQQAABBPIgQEAsD4hUgQACCCCAAAIIIIAAAggggAACCCBQOAIExArnXNFSBBBAAAEEEEAAAQQQQAABBBBAAIE8CBAQywMiVSCAAAIIIIAAAggggAACCCCAAAIIFI4AAbHCOVe0FAEEEEAAAQQQQAABBBBAAAEEEEAgDwIExPKASBUIIIAAAggggAACCCCAAAIIIIAAAoUjQECscM4VLUUAAQQQQAABBBBAAAEEEEAAAQQQyIMAAbE8IFIFAggggAACCCCAAAIIIIAAAggggEDhCBAQK5xzRUsRQAABBBBAAAEEEEAAAQQQQAABBPIgUJ6HOqgCAQQQQAABBBBAAAEEEECgawVKjzvuuJvVhPB3vEcee+yxm7qqae95z3uOKCsrOyu8/8bGxp/OnDlzWziddQQQQKCzBMJ/LDtrv+wHAQQQ6PYCuoHbv6Sk5Ex9atXYnU1NTTsTicTrs2bNmt/VjZ82bdqYHj16XBhsh9rX8Pjjj1+ltEQwvSOXdeN9purvHdyH2vGcbnCfD6a1ZVl13yX7cTJfq/la1btO83t0U/9AW+qjDAIIIIAAAoUkMHHixH7V1dWx3+jRfUGlju+j4WPUdbRE9w13h9OzrZeXlyd0Ld+ULU/cbaWlpdOU9zsR+W9UGgGxCBiSEECgcwQIiHWOM3tBAIECFFDw5WjdxP3Ua7qebjq6qfy71jMGxI499thx69evX7VkyZLtXrmOmFdWVo5XvSk3l2qroyDej3QDu6s1+1TgaZHyb9WxvaxjflnzlxoaGhbOmTNnY656lN+eOA8M5pPT/2n9y8G01i5PmDChl+o+TeUqNT/AytvxKSi2pLV1kR8BBBBAAIFCE1AwrGe/fv026hpY0t62q4oPKlj2wdbWo/uD4XoItdrK2f2NZqNtuQ3ThKgyul84XvWuitoWlabjeFntWR61jTQEEECgLQIExNqiRhkEENgtBHTjNSDiQDM+LVUwaqjKzB48ePA63eCdp95aL0SU71ZJkyZNGqg2H26N0nxGcu4o4PZhLf/Z1nNMaTfq9iQ6R5mcmwcOHGhtsSfdKZPa+FRKQgev6AtJRd++fcfomPZVQG6E5o2ab9BrHusUnFv+xBNPvNHBTaB6BBBAAIHdUEAPpnTJa38wrD10u3bt8nun6dr3TdX1sfbUF1H2BnvYFXfSdfeHyvvtuPmD+aZMmVKtANwI3d8M1bXc7tf20PbNmr8p6zd1PbfAX1OwDMsIIFD8AgTEiv8cc4QIINBGAd0w9Q/fi2o9U0CsRDd1t2j7YO1usJYXKkB2kXpr/bWNu++UYr169Tooakf19fXWayzOlAhnkkFaWjhPrnX5zQjn0floWLFixbPh9HyvJ5/Kn63juED7PEnzCm8fWnYXrbegfY4//vgVSnhcAbKbda5nevmYI4AAAggggECXCpTo4aQ98DtJ9xQnaX60Pu6DNu9a7rWuoqLCUW+4nVr/o4KAP1VwbKW3jTkCCBS3AAGx4j6/HB0CCLRDQDdMaT3EFCDZHFWlAiOXKd1uuLypp27A/qwbrMHq3n+tl5htrryf1/YTs+XxtqltI73l4FxBmrtVT2MwLbT8a7XnMS9N9RzsLQfmm/W65KuB9a5YPCa8U7X1+WXLltWF0/O4XiK7T2o/P1ad7rnXcq7q7Tx8TO4f07+B+Xp6/U31DJyVqxDbEUAAAQQQyCagoRdqdU36gvKUZcsX3KZ7lArde/hDPQS2PaNttwbWcy7q+pdQXWtzZuymGRQMO0vtjz1umo63WofyeQXHPi33a3Sr9JVuemg0CwEE8ihQ8AGxQ6cd5/Ts09fZuW2r8/qLS5zN61v3d/vAI452agZbj1nHeXbuTGf7lkydP9qn3n/wUOfQ6ce5lezYusVZ8Mi97auQ0gggkFcB9eYapKBG8x+DZM26eRwV3olumAYo8HFgOF3raYEl5bVoyjW6sRqkG6srIsqkJCn7UUpI+xWmlEy5V05v3m10RgVs7tMWPyCmYzwonF9p9lpiu3t5RbegJVUup2rtqy0pLUtqwxER7TpIZfy2t+SOXLK431WRWyIS7UcK9BrFn7TPyRGb4yZN0c33Y2rjD7Tv76tQU9yC5EMAAQQQQCAk0Khrid1DfFvXpsNC2zKtZgqeDVEdNrB9rEnX4B8++uijTwczK+0l1ZFxDNVg3ojl/ZSWMt6o5VGdz6vOrRH5MyW9lmlDHtNt7NIv615viwzsWs6EAAJFLFDQATG9n+QM3muEU1Ze7vTtP9BZ+9ZKp7KqKu10NdTVOZvWrUlLt4Q+/Qe4ZW25R3V1hwXEKnr0cHpU2YMH/fFv4juSC8F/EOhGAgpk/EjN+WSwSbohCq56y9YTzD4pk27qPqDPaypzpT4pBbX6Pd1YlerG6rsphbrBitqWFshTs57spKaN1v6Pjbsv5bVXF2Pl17nI+YMA3n51biYo/0Oqf6iX1o55qer5nr7AHKwvMuepHv7gtwOToggggAACzvEyiHXt0/UnE9de2nBupo3hdF0T/6S0lICYrmk/UZp9Wj3pmvh1tc16X6dMej3xrO46FqcMrlC7n9Fx/zul0awggEBRCRR0QKzfgEFuMMzOSOOuXc7AocOcPUeNSTtBDfX1zqP/uM2xoNS4Qydp5OiWLBZI86Z9J0x0tm9NfRtqx5bNbs8zL483H73/wU7vmhpvNee8d9/+fp6qnr2cg46a7q/HWWhqbHJeemqePUmJk508CCDQyQK60UvopukH6qK/XMs3avfhp7Tf0Y3VFuX5eSc3Levu1Na0McSU5o8fpja/T393mqP50TX1CScr/yFysEH5g9N2vUp4TzChOyzPmDHjSLX3YR1z/D/ojvO6yjytMvZ6a7+o49C2cxRo+6WCoF+M2k4aAggggAACxSaQ7G39r/Bx6Zpo46umTXo98VHdZ+xI25CakNi2bdt7Fi5cuD41udVrb+na/V+VelGf5frYjwpN0fxMfUr1SZm0rUT5P6REAmIpMqwgUFwCBR0Q6z94iH82Nq59R0GxBn89uLD+ndXualV1L2f4PtZjN3qy+oJ1Wq5tmzdGBsT2HD3GsYBcW6fhYzK3I1OdSxcvdHY1RB9jpjKkI4BA5woo6HOrgkG1uo+6Q5+Uv7Fa/5m2bVGe66NapRsve+f7naht4TTVZYGoXuF0ra9RPRl7JWmbH/XXjetI5e8brkOvVb7kpWk/t+vT01uPM1f+4+0TzKv9Wo8td1yuYHpXLtsvbJaXl/9TbUgLhqm9CR3Dndpmr2d8LdhObZqnwOZH9Zqtnd9T9KrtHzXfI5gnufwFne9ZOt9WDxMCCCCAAAKtFtC16Gpdl2ONtaK8Ffqk9cTSTherjtvi7lx1LIrKqwc99kT/L+Ft+pXGE9TT6yUFuPqo7Pjw9izreyt/ls3Nm3r27JntwVzW8rpmv6IMP968efMdixYtSvsipYDcJG2fqXak7UNpNpQFEwIIFLFAype1QjvOPYa3DO+z/t23nRVLX3SWPfeMU15R6Uw7/Rz/cJa/Yg8CHKd25w7nrTftu03LNGTEKP1SWDPDpnVrnR3btrgb9xq9T0umHEsN9XWOvZbZkVNTU6OjC1lH7oK6EUAgTwIKgPxNN431ugn7m26m7DU/f9L6b7TtVfUcetxPTC4oyPIlLdon56QbuDNVV9pTWP3a4TD92OGunBUog8bM2j8iX+OaNWs6ZUB9+azX/t8Mt0HHNTqcpry1SosVLEyWbX4SEq6oZb2kd+/e9uVgREuSv/S2XuM4XTf3zyig9VW9TutvSC64r2Mmne9VYGyi8vxT7bab6pRJaT/U9n/FPScphVlBAAEEENhtBXSd/4auIfsaQMR1KJNLWdQGXUNrVEdrAlXjda9i3z3m6p7Ger27k9b7qB57/TJlUlrUA7qUPJ29smXLlpn9+vWbqnur/2rfGb9EaftCWf9CeS6PaOPe+uXpfgqk+Q8TI/KQhAACBSxQsAGx6l69/d5c+iPvvLvyTfe1SXt1cuR+LYGyLRvXO9Z7zKaGulpnybyZtuhPk088w69n6bNPOhsUWLPJXr3URcjPl23hqccf1GD+67Jl8bcddswJTq8+9oZNwlk06xH3xwD8jSwggECXCegm7w719HnZa4D+rljAaYa3bnOlLVfaNcE0b1nbtit48h1v3QLYymvjbxypjx9RUVq58v5NN19H6CbMuux35dTyzniyFWrbGy+88EJ9ZzTKAofaj31SJtm8IKcDUxId5055XRBKa/Oq9vER7ePUiAosSGdPut0nKcqzZ0SeDcE0BbtWjR079piRI0cuVv6UIKPWx+nf1QeV//ZgGZYRQAABBBDIIWDjUB6eI0+szboWjVbGi2JlDmRSud5a9QNigU2tWtS9hY1JFmcarn0eEydjrjzJINa8XPlsu9r3nPabllXpDX369NmetoEEBBAoGoGCDYjtGejBteHdtxz75UZvGrnvAd6i4/UOGzBkL6d3XwtEpU72C5XeZL3CevdtfnPG+6No431ZfWtWr3Bqd2T/e2hjlI0Ym/JdyKvan9uPAOgpirs+9uDDNIh/5gcOFtxb/soLflkWEECg4wQU1Jip2u3jTgpu7au/AykBMW14XD277Cli2qQAy0f1//b3gxt0I7VOgbFLlf6bYLrqHaRt31Na2s3p1KlT7elrVTB/huW0YJblUw+xwdOnT4/sITZ79mwL9vhPSdWG/t7fusA+3ggsd/qielPZdcl9Ih7auf8aZyi9LatlOm4/eBmoYIvO18kK1DV3K27ekBYQU1m3h1ignLNs2bI6BcS+pbS01yPlfLbSCYgFwVhGAAEEENhdBOrjPtDSvZQFw2Z1AcyoqH3qev8GPbyjZEhDoHgECjYgFnylccWrfqcOZ8Aeezq9+zUHter1GuPby5tfkdxn/AR30P1sp274PuMcJ/SmpL1+eeCRR+tL5i5n9evZ3yLqUzPA2e+QI7LtImXbsL2jvvOlZCEglsrBGgKdJqCg1OSInVmPr1ZNCq78Vjd4e+qmKtgV/3UFXlKCZ16lVVVVT2j5UG+9tXO9BvlWpjIKNh2bDPy5WXSMaWNnacOmUPkLFNBJG1cjkOeHOrbRgXVb/I/KpDxR1nr2JwotFYxVfRUtq81LSmv5Qx/e2Mp1vQbyIRWJ+gP8XZ2vRaHq0gJiOnerQnncVd3w36W652tlSmj7CVq311gaQ+msIoAAAgggkElgp66dkQ+4wgV0jcz4nc6rw8vjrYfriFpXmdqo9FamVeo+6K8xywyLmS9v2exBnO6HPhBVoayWRKWThgACxSOQ8Y9ndz7EfgMHK+jV321incYFW7Nqud/ckfu19A5b9dorTlNj8/cP+6VJb9nPrIXSstRX7b08wXRLizOYfX1trQbhD3+XDO7N8YN1llpfu9OxoF148gJ64XTWEUCgcwQ0XoQNIn9weG+6MWp1QMzqUKDkuwqUWJDrDNXxYl1d3Ylz586NDFxpu+4/07vth9vSlnXd8JUGy2lfUT3EUrqtqkfc3cEy4WXd5F6itNGh9CU65j+H0tJWNaj/fjYAb2hDuFeeu1k933qp197EUF53VeN9rVDvt7XJbWW6uT1ShtM1fsivogbQ1XGfFzZW2js7d+5M+7ED5UsbK0V5X4lqh6UpWHa7mFMCYqqj5phjjhmj1zCzP1XJVCnpCCCAAAK7nYCuo9OiDlrXuCN0nRlhD2Fsu67Dx+m6dJ+uNWm9y5V+kfLdpDJVen3/bq2fpCKzda36o+b/1EOyfAS8rBlZJ7UtMuCUtVAnbZSl9djP1KPhZ53UDHaDAAJdJFCQAbG9D2j5nqo/sE5ZebkbsOpR3dPxBtpPaPyeFUtb3rBZPOexSOLgGGILH73fH0Ps5A9d5I4hZr8yOee+tDdgIutqzvvPyG1e4oyzz3ds/DObbAyxzeu973BeDl3Yzr3AqeyRdk1rycASAgh0qEBNTY31DkuNlivWsX79+sVt3HFi06ZNH1G9/6eb0K8rGBZv0ME27qwVxWoi8qYExCK25y2pR48e9qtZUT210vahG/mb0xKTCQqqXaWA4wu60T9PScdZAMo2adwPuwjYPvxp/PjxlVo5zk9ILqjsz+bPn78zmD558uS+Wh8TTNNy06pVqzIGtrTvZaH87qrav4cWMpaLKkMaAggggAACQQE9GDpE15lH7DqnOJj9sI79EvRNmqd8cdA1zabPq9ezGwxT0Oce5TlJea26Y3VNOlbbr1V9d+iHdC7rrLFDbefdZbLB8jVdK5OPRLVJPncpmLgwahtpCCBQPAIFFxCzYNKQwK9LVlZVO31qBroD548YO87RH3z37GzesM5J6JcZe2i7TfX6JUgLkpVX2nehlkkXBH+lorKHvz15wfC35VqwdlX1bA50Zctr44x5U//BQ9Telv176RV6TdOb+g8e6i7ar0xGBc+8fMwRQCCvAmdE1PbCkiVL4r72l1Y8ObjrJ9I2dGGC/s41d7UNtEE3gJ0WEAvstl2LOg41O3GO5ucEK9Lfd7vJTQmIDRky5AjlC/+xrldvst8Hy9qyfubdns6H/0gvt/HCwnm99fr6+mUK9Hmr/lzXpsH+CgsIIIAAAgi0UsB6Veta8rCKuQ99dC07S8v2SZl0PdylhE8pGHbzlClTqi0YprwnpmTSitKsnsqBAweO00Olo9Uj/Lpwnnytq01fiFnXAWrXZ2PmbVM2G6tV1+kLtZ+vqoIRGSqZuX379gszbCMZAQSKSKDgAmKjxo13SpJBr+B50B81xx0DLJlYM2gP59hzPuxnefnpBY794uSk40/z08ILh00/PpwUe/3AI452Bg/L9Dc1upr9D7dOKNmnySee7md45G+36pc0G/x1FhBAoGMEdON2lv1NCU5Kuz+43lHL2s/VqjvnHxO1z7rKnhtuh8pfpTS7GY6aUl71U96a8HHqxnlLVMHunqaed/9UAMx6iPmTju8su/FVj7ytXqLS7BesvFVv/poClju8FW+ufDa4b3haEk4IruvVzreD64HllKf3gXQWEUAAAQQQyCVQqiDOI8pkvY2zTVt07Xq/gluPWDBMD3b+pcwnRBWw1yZ1zd9YXl6+SNsr1OPsKPWI+qSWG6PytyPNBtW/Jk55tcGuux0WEFP9P5fPp7QP6wEeOek+4R8rVqz4SLaHX5EFSUQAgYIUKKiAmPWuCga9guK9NJC+/SJkpkl/3CJ7Y2XKnys9+IXK6rYeXB05We82/ShwR+6CuhFAQAIa68meTo4NY+jGMaWnUXh7vtb1RPfGOHXppu5MtTMtIKZ2XtmKX0RKuwaovBt1tyfRuvk+MNcYYmpDS5fWOA3voDwNDQ33KyBmPbf87llqW7V+ZOB9SrvV263Sor5MLPW2B+fKGzWe2ePBPOFlme0TTrN1XSc2RKWThgACCCCAQAwBXZ6bPq3r0nX6jMqUX3mu1X2EGwyrrq7+t/JFPu3XNWmu6jlB20dp7lan+YW6t+i9efPmD0eNv5lpnzHSbVD9ZTHyWZZ+MfO1KZuO8fMq6N8nhCp5VX7flF/28W9ChVhFAIHCFkj7MtSdD8d+wbG8oiKyids1mH14rC8ba2zYmObhaWwA+w1r3ta4XdbTuGUaf+RUP5D2+gvPOhvXvduyUUt1O1OGlPG3lZW3tMMG3H923kx3LDM/Q4aFaaef67/GuWjmw86m9WvScs4463z/OB/95+3u9kRTQr3DMnX6SKuCBAQQaKOAnpSmBZlU1QYFmea3scr2FitRcGqEAi3jdKPWUzdzazVfo0/f4CvfbdmJ6toULqc0N8ClQNKvtO1UjS/yR71O+IWoHlRWVjfV9guaKdWobWn1pmRIrqjs1Vbe26Z6yvT5urcemD+kOu0JduSkMv+xXmC64X5Yy2cGM+np94e07gfEtDwwuN2W1Ya0G/UJEyb0UvpE1ZeSXYG3x1ISQis6JweFkrzVdd4CcwQQQAABBForoEDNQxoc/yBd136qa1NkLypt+5ZefxynuofoMy28D13X7KHXxbqmvqG8FjBLmVTv+zWuVg+Nt/n+fI4rpnojHxal7LyLVmSyU+37qsZ6vT7PgcAuOiJ2iwACrREomIBY3wED/d5h+iPu7Ny+zenVp6W3q/6Y6RceNzrWi6wh+cuNDRo3zJvqFBCzX4tcu3qll+TOdx64zQ+IrXtntT+ofkqmiJXyQECsUQExq9s+uaZgnvq6Wr+twXLNvc2aA27esQS3s4wAAh0mYAGZT0XU/oDS/P/BrReZAh8H6mZynP72DNC2jfpMjCjX5qRJkyYN7N279/fUnotUidv9Vftz62tvIMxrlNq+UfV7q+5c65W64T5B81MtQfv8hG6OpyrYdIpeeVieklnjaymfH9Dytikt9Q+ttyE0V33XBpO03+E6trSAmP7mX68vAncG80Yt63ge1L5TAmLKd0gwr/LUK08wycZR8c+tt2Hw4MEnarnlyYdWVHatfinyeS9P1FxtPdg7T6HtqU9bQhtZRQABBBBAICigB1LjdX3qpetKva6NTXogk9C8RK/mX6/rzApt+1Ewf2A56sGet/kJLeyjeuzhzcv6HOFt8Oaq98yhQ4feo+vg+zrrVyi9fXfRfJ56w/+mi/bNbhFAoIsFCiYgZmN06Q+0y7X69VedKv2iZDAgZr8uuc/4Q5y+AwY5j9/1J6e+ttaxAfe9yXqIHTBxitOjuiXNtvVTfm8ad9gkZ+e2rd6qP1/23NMKtqV2eCiraKHbley5tefofZyDJqU9jPHrsQX7RUxvmnLyWZG9voJ5vLzMEUCg4wX0VNWCKSPDe9LN6J8sTUGhwzWzJ7P+Kwje36VwGVvXttTIS1SmiDTtx9pxq4rXRGzOmqSbZAvoXaePvWeda7JAXngaqBvlnwUT1Y696+rq0t7Z1vhc9gS6LJjXlhU4ihUQiyg3Ipxm69r/m1Hp4TTleyOcpvU9bRyVwC9Irg7nUXv3i0izV1NSkpXPgnJpDsFMKjM1uJ5cXqngX9p+I/KRhAACCCCAgCug6/k8Lfi9wfWLym66rtFtFtI1yu5f7JNrOkX7v0cPqs7OR1BM91Gn5Nqhbdc+7eHi/4uTlzwIIIBAPgRaojP5qK2j6tCXkh4KgNlUu3OHs3TxQmfClPe4695/Bg3dy+k3sPlHvCw4tmrZK+r51VzG8lgPMQtYVUb8+pdXhwXHggEyL/2tN19LDYipPV4PMX1B8ge6t1+HbG0wq7X5vTYxRwCBDhG4JKLW19U76UE9qf20tv1eN5OpUZKIAoGkgQpuWRDl0rgBEfU+21e7uF1lWrrABirMtaiyv1Vg7+N6gvw53cQ+lS2//n6l9RBT2qWqI+XJgdJ+NWfOnBXhunRzfmI4zda177S8UfnCaXpddVg4zdZ37tz5ZlR6OE033CujvihUVVWNUd4XLL+ObVW4nNb3D6Yln8qfHEyzZTncEE4Lrutcf0r1zwimJZezvmYZkZ8kBBBAAIHdXEDXnFd1Tclr7/PWkGrfJylA9S89VDo78FCpNVV4eevtdU9vJdtc11F7fTFbFrYhgAACeRUojICYgk4LHrnPOWz6cc6rS552Gurr0xDeXvGGM3K/A930oSNGO6tfW6rgVnOAzF5TtFcP17+9yg+seRX032Oo3/Nsx9YtTu2O7d4mf26vZwan6sDg/cFffVyzeoXTU69xDtpzuPPmy8/ry1N6Bw0bs6w08GTnxafmRfYSs/0xZlhQnWUEOlZgxowZU7SHE8J7UZDl99o2WTeF12hbq+/SdGNng7ofryCLDdT6Oy1n7WGkINOtytOmYJjKedORCgwt0I3ldfX19d9WMCuqJ5g9id3gFfDmam84GLZWPz3+Q297cK7ynwiue8t6rSMq6ORtzjjXzX//8I2w0hp0I57WzgyVRO5XdfoBMdW3OrwP1bWPnoIPUgDRxvnS5pKrNS8N7kPlns0WYEz+GMOvgmW8ZZW9z1tmjgACCCCAQEyBF5WvywJi1kZdD0/UL1VepcUv23obp0o9qHs9Ztn23v9k3Y2ux/fomMK/wvZk1kJsRACBohYoL5Sjq92xzZn/kP1ycPS0cc07bjDLfmly4NBhbm8wr/fVxrXvuoWenTczrfDkE89w+g+2t34c5/mFc2KNIdazTz+/nu0KonnT8LHjnFEKypWUljq99auXLz+9wNvkz8cefLhT3au3v2692p6b/4S/Hlyo6tnbmXTCaU7P3n2dJcqz4d23gptZRgCB/AmUKID0y3B1unGqVTDoRo3ldb+2VUZtV5r9j25BpP10k5XpFce+Ch79RgGqE9atW/fRJUuWpEfeVYGCMvbHYZI+KZPaYeN83KzP43pFe616Uh2q5Y9qfxZsyzSVavtnNRj/2drveeqhNi+cUcG+jWpXODllXfu+YsGCBS1/6JJb7VcoVf/0lMxaUf4FbX2SrPqiboRTn0iEdxhY37BhQ4PGPAmkNC+qXv+XJVeuXPnmqFGj7Hj8fWl7hRx+KafLlW7jth2XVonjRAa7LJ8sRuqc/EWLLd2SWypYKvs7W1ZZQgABBBBAIJaABcTCU72us3VKrNW1qlZzu771UJo90HlRaTs1T+vhrLTnlOdWze3+40rlG6z1n+jzdz3EsodmG/VjOnsr/XEtu9dHbXtH61e98847f1Bae6e921tBPsrrenx+PuqhDgQQKB6B7N+ECuw47dVGm/THW69Utry1svatVU5FZQ83EGXBqOCnXK85elMwPbgc/EVJyxscu8x+3dKbrEeXBcNsGr3/QY4FyHJNw/be19nnIPtumzrtNXqsM+309zkD9tjTHfT/yONOcZdTc7GGAAL5ENCTy/P1d2NyuC6l3aqA2FbN0/4n1Y3i5fpp8oG6uXqPPlb2snD58Lrqed+gQYPmKfAyKrwtuW77Sfm7rP1s0iuDU7WPn+izUIO6v6H5Xcp3U4Y6wsl7KWGm9vn58AYFgVaG04Lr2vdyfa4Pptny2LFjFWfrcXM43dYVZLOedG2aVPbtcEGZ9bcfGAinR60PHDgwbXBgy6d6LaDoTsuWLavT+m3eujfXfj6iz5v6fNxL8+YyWCTzW7x1bz5x4sR+cv2xvkS8onITvPTgXGXtyXraoP3BPCwjgAACCCAQFtA9xi9qa2v7ahiCan0qNPB7iT49dD2ygNWR+vxF1xj3dRRdgywQdpG221hdadcc5Xte5X6ufKP1cZ8caf51fa5Xz/TD1JN8s7Y/revjWcpr1/5vaP/72GDz+fy1SbWNCQEEEOhWAgXTQyyO2oqlLzmjx41PeSXRyq19a6Uz6fjTnD79B2St5uCjjonc/o5ex1w85zF/m70W6U1b9cuW3vTGi0ucGvX4GqJXNm2yHwLYsWWzs0G917JN+06YqCBeqWOD91dUVjrjNTD/0JEtD1J0cXJef/FZZ+Pa7PVk2wfbEEAgq0BaTyfl3q7XDa8YMmTIQVpuiZxrRTeKW3XjGB70tUfWPSQ36uZzgso/qSDcubrRnB0so20WvEqZlLYh6pVBpe+XkjHLivJWaPM12udR+lnxT+tnxXdYdt1gP6OecXYznRKEs23J6Rd6TXCXt+LNR44c+Tst2yumKZOO6921a9f+PSWxFSsK0C2Oyq4eet9U+leitnlpNnC+jvNqbz0wb1q/fn1KvTru67SvqPHiAsVaFnVcX9RaIplSotdfD9S+TtW6fZkY1JIzdUnl7ta/k9tTU1lDAAEEEEAgt4Cu1Q3KZR93mjBhQi89VDtJ1x0brsCuQdYTvHmj44zQwiy9vn+slxCe6wHOFUr7WjBd5Q/X5x/a9rLmv9f18R4N7zA6mKc1y7pvWqtxO//amjK58upamtCDQevZ3a5J1+7Tde2/J6oSfdcar+N+JWobaQggUNwCRRUQs9cqly990dn7gIP9s7Zz+1Zn+5ZN1m3MT2vtgtfryyvXp39LZ4VtgYCYbbdXG6fodcnefWtsfB5niAJbmQJiby9/3dlz1Bi32rEHH+b0Vb19Bwx0e4R5+7Jft1wyf5azZYP1hGZCAIGOEFBg6vMKFtkT0f+nG0L376KWfz579uy3dZO4Z3ifytNHN1YTdfO0KLAt8vVF1bNO+VOCJlofrJuvC1Q2JSCm1xYWq+dVoEp3cYz2dYOWfrlmzZpXFaCzsodpPeWm1iuk/X1B9V+q9X29tMD8gr59+1rvqIcsTcGubTo+e8XCgn7hab2eDv8xmKhXOmsUQPuF0j4eTPeWte/r2vMkWefhFbXHBtS1V1D9SetfVvpIzX+3Y8eOZy1AqLaUqy0DZbaHnm6fqX3br0Km9bxT+kvhV1TVy+45ne8HtQN7kp51kvW3VMd27f8bqn+alo/WvH/WQs0bn1PZj2rRC6TFKEIWBBBAAAEEWgR07RmmtTOTn+N0/alq2Zq6pG3D9Pr+A6mp/towbT/NXwstaNv+SvqVrqu/0j6f1fq/dA2z4NjTSo99HZs7d+5byv/BUPXdZdVusMqiGqNAYMqDz6g8pCGAQHEKFFVAzE7R6y8sdsfx8gau37Z5s3vmnp37uFNZlfIdy00/+KhpeoWyj7tsA/Z74425Ccn/WFDNm0pLy5z+g+x1/eZp68aWHmKWYoPsP/PEo84BRxzlWI81C5gdMPEot8fXnPvvTJZqntnA+7saGpwRyVcr9xg+0t9ur19ar7A3XnxOr/s0+uksIIBAhwgkFIz5qQJPs1T7X/Sp0lhfP7M9KSj0XL9+/WysjpSbUAW8/66bxruV5Q19putzoj7h6UE9Lb1EQa57teEAb6OCKg26+bLAUsqkVxaWKlCzXoktUXetaF/2NPgTQ4cOdfPrhtWdR/1Hdc+zQFZNTY21/3PBPNq2TmNozQymaflJfdICYsp7p9eTzPLrWC3g91t9mhthiYFJ+V/Rqx2/DiS1ZdH+2JnVeeHC8re08zS4r7XFeq0ZQomCYW5WbXfn4f+oXX8Mp9n6tm3bzlfPs0e1eETU9mTa1foy8CMLSKp+Owd6thK9n1Adc3R+z7OAYyidVQQQQAABBHIK6KHPGbr2X6lrzuE5Mycz6Hp3l+45vqJ7jqURZVarl9V56r31Y227UPVmvJhp0yHKc4j2/x1db1dp6IjxUWOJBvehvLOV117b7OjpEfW8Pr+jd0L9CCCw+wgUXUCsrFwB/sDf+MF7DXfH87LgkxPqzWWnuXbHDj8gZq8kbng3bQiblH8NNYP38F/JtN5b1istPFmPtDdfet4Zpdc3B+05zP8CNUiD/YenFzSQv01eUMzbvmjWIwyi72EwR6CTBBT8WKBxoQ5VL6qxXq8ie2VBQSr7H/WEUDP21k3jl0Jp4dXHFeR6XWNgTe/Tp8/j2nhwMsNv1Uvp1XBmW9cT2Z/oxvKnUdtipL0VeJp7iQI5z6oue73ReyXyBhtDK1TPQq1/PJRmf7ceDqV9SWmRwTDlW6F2nxD1ameojpyrCuZ9SsG8Q5UxqoebW17tiHvtulEev4zaqd3c6zXLk6urq29Tfccrj981T18q3tTnf1X2Hisrw5mauQExW88yNancr2XxtahXTbOUYxMCCCCAAAK+gK5LG/WJEwyzB0l369rzfwoUzbMKdM/i1xNcmDdv3hqtX6Rg29V6sHa5ypyjfWQMjFlZbZ6bKxiWzGcPDVMeHFp6B0wDOqBOqkQAgd1YwPuSVDQE4w470n1VMXhA+x8+2Rkz3h52tH8aMKTl7ak1q5anVNi7X38NkH+YM/2M9ztHHHuyY8E47zqzY9sWZ+eO7Sn5vRULir3x0nPeqjufOONEZ8S++6eksYIAAh0voADYZgVCFgX3pNfyLtJ69mh5sEDz8mKN1+UGYxYuXLheT22P183ni/ps1FPa76dnb07Rvn+mPBbEatWkMrX6fEWF/FcbVNf1SrtQaXbD3Kg2pNWr7dZDLDw11dXVWe+p4HRrcCWwvEY+JygAtCqQ1uZF81fvqnNUweY2V9Jc8EH5fyZbHRbA0xeI05VvgBxO0+cD2vcBShvrBcOsvNItmJltskDYX+RwkMpeRjAsGxXbEEAAAQRyCegaNFd5HsyUT9ecd7TN7hds4Pv3e8GwTPmD6bpGLbYyKmsP6W7VvDa4PbC8ZuvWrZcE1gt6UcdZn+kA9OCrIdM20hFAoLgF4j5lLwgFC1Z5Y3Lpj57GDtvs9NZ4Xjbtd8gRzpDho5wVr77svL38Naep0b4fOs6OrVucHtU93eX6ukzXA3ez+5/gYPdrVq9wx/2yccKGjhjt9OrbryVjcmnTujXO8ldecGxgfmtTpumVZxY6O7dtdSx4Z697lpWXO+OPnKp693ZeWbxQY4jZW1RMCCDQFQLqzbVSA9WertfzbtH+vV5e2ZoyXwGlC613mZdJ45Gt1VPb49R76NBcPal0Y3upnuAu0BPcb6n8fl4dGeaN+tvyhOq1QMzicB7VdZv2u1PpZ6q32orw9i1btixRj6yZqqM0sO015d0YWHd0PH/Vqxa/UlovL11lHlPQ/9JMvd28fK2d6zienzZt2t567eNSlf2iPrGeCKs9DWrPnbK4JvllItaudZ52KOMDmTLLcLUM7RUU/1xoX/ba5lzt79+yuct6AmYqTzoCCCCAAAKtFdi1a9d3NSbYKV45XXfstRQb2+s2XScf0XLzlxkvQyvnuk6+oCIfUy/2y9SL/ULV/0ld0/yn8Vr/jD3Qi1nt+mT7YmZvc7Y2P3yT2b3aa9YecW1uFQURQKBgBYomIGbBqEOntXQRfnXJIo2/tcQ5aPJ0Z9iY5jdv+ukXIA/WZ//DJzlrVq1wrNfW+nffct5VTy8bp6uyR7UzcGhPBaRK1cuszA1M2VwXB2f1G686g/cc7g6Wb2e7ducOx4JdM87+gP/KpfevwMb/sgHzV7z6Uspg+BWVPTSOWZWXLW1u+TetX+MeR8/efdztA4fu5Uw5+Wzn3ZVvOksXP6k2t4xnllYBCQgg0GECCvo8o8oPUWDkbN30XaS/C2M131tz+596s5bf1PKbWr79/7N3HgBaFdcev8uyyxbKAkvvsPRiQUE62I0SNbYkRlOMzxhLYtQklkRNe5pifaaZYkuiYixRLBEVBFRQlCIiSO+wdFiW7e93Zu/cne/br25jF87oZWbOnDkz87/f3jn3zJm5rLw+S1wtQN8G0RxoX60wlFCG4ibGtycxjJ2FXDHC9SOWgwbF1TSf9vLJf8ZZWK/EU1j9/kTsk2+0m4LMmIGDcvczdpHxddqex3UbynS4F1lMGckU+ga5nzH+ezEMnkfdvrwE9GQVtxdtd2Xs+4g3Q98ssVx4aL3hH+ibTFMJ8dL2XbQ5hHbEMLacw/2XJbKNJCHhyqQIKAKKgCKgCIQhMGvWrA84l+t+5h6moPJX+LDO7EQ+XMM8tQtRIQcnIyPqC4SvQ/yOOr9j8W8wi3/n014L5vjnw7oki/v7oFVbXGP+PRM9aVk4v+YVAUVAEWjsCARW8ulPPHJns2YpdzT2Dtv+jZx0utehWw+TXTjnLW/AsSd61oi0a/sWb/6bLPb7Hlmd+ZLjQMozs1va6knHH89+05xF1rZDJ1N32YL3jeeXbNHsM3iEoe3lS5AbV63wtqxdaQ7Lz8SoddyEKiNddqs2xvPLNj73lee9/XtkzgoNzdPSjadY936BM4JhsG2Gch/+3FmXfjv4HR3+3mgPFKnyZCoAAEAASURBVIEGRSCFz6Bn2fPGGrTlw9AYXlt9Wa0egLEu6jaOw9AtbVIRUATqGIHp06f34sX3s2TEwv/k1KlTr0ymjvIqAoqAIqAIKAKKgCJwOBE4IjzEMrKyvUwuCeK1tUC8iJ3tiVvx1tq+YZ3XtW+e16lbL69d5y5eampyQ9+HsSu7VWvTxiHOAtvA1ksJ65Yv8wrYdrl7+1azRdMQ/X/wZDBbKl2aTe/fvSuiMUzKS0uKvU/mzfY2rf7cGzpqLNs+23qyPVO2XmpQBBSBRoVAxdFiDBPU/W2BujWwUf0EtTOKgCKgCCgCioAioAgoAoqAIlATBJKzCtWkhXqqU1oaHM3jiUfY0g/mem07dPY+/fA9r8wps83LlsiNK5ebKwVDlXiLpbfI8JqnpbE1srnZFok7ceUh+PLBFd+gZk79Il1YcMB797UXvRFjJ3ub2T4p8iTIVyZFbqQg55OJcUvas6GosNB8yXLdik8tKWosX70ULzLxcJMtnhoUAUVAEVAEFAFFQBFQBBQBRUARUAQUAUVAEVAEao9AkzWILZr7tieXDXLovGxXTCRUlJebw/TFYJVMEM+w+TOmJ1yF7QPejGlPJMwfiVFkbFm7KlKR0hQBRUARUAQUAUVAEVAEFAFFQBFQBBQBRUARUARqgECV61INKmsVRUARUAQUAUVAEVAEFAFFQBFQBBQBRUARUAQUAUWgqSGgBrGmdse0v4qAIqAIKAKKgCKgCCgCioAioAgoAoqAIqAIKAK1QkANYrWCTysrAoqAIqAIKAKKgCKgCCgCioAioAgoAoqAIqAINDUE1CDW1O6Y9lcRUAQUAUVAEVAEFAFFQBFQBBQBRUARUAQUAUWgVgg02UP1azXqI7hyWnq6V1JcbL6g2XvQMK9lTlvvo3dmBF/NPIKHrkNTBOoDAT4568nCQeVnZeujBZWpCCgCioAioAgoAoqAIqAIJIjA+PHjB6SlpV3Kx9d+PnPmzNIEqymbIqAIRECgSRnEWrfL9caeea4ZRklxkffms09GGFL9kzr16O116t7Lky9AfvbR+8YA5bbaZ/Bwr037Doa0bMH7XlHhQbe4XtIduvbwBhx7opeRle29859nvP7HnOD1yBto2urZf5C3fsWyemlXhSoCRzICkydPHpeamjqTv/WNKSkp/3zzzTdvPZLHq2NTBBQBRUARUAQUAUVAEWg8CIwYMSI7Nzf3anr0tZKSktPQS3txzSMvC7a7uB7g0qAIKAI1ROCwG8R4yfQ8uRIIaektAq7mzdO8lGbJ7fisKC8P6tvEkBPGeK3atrfZkLgc/o9m/dcrKw01vLfv1NXr2ifP8K5ZtriaQSynQydjMBOGjatW1MggNnzMRK9ZSuX4li/8wDt0sCCkb+GZth07ea3wBpPQb9ix3obPl3nd+w0A2hQvb/hIb9PqlYyjJLya5hUBRSAGAigcYylO5e+oF/GeGKz1WsRKYF9WAo8tKCiYNX/+/J310FgqCldGu3btxBOuVFcb6wFhFakIKAKKgCLQKBEYO3Zsx8zMzBf8zpWx+DWZdL17hp988snfoJ0cdIyKPXv2PLJgwYJ6WUE/5ZRTLmRhb/Vbb721kPaqvwxBrE0YM2ZMZnFxccrevXvLVq5cWYysitrIOxrrTpw4sQ/jbs67Z9GcOXPWuxjk5OT05TfyG6GhC/6U+/g9fjufQhvGfb0THfFx6ux262haEVAEEkfgsBrEZHvflC9d6jVL0rAlwxNj2Blf/mbCIxVvLvGcKiw4EFKnbYfOGMTahdDcTCqGt2bNUj2JbUjPyLBJLzO7lVdaUmUwKy4qNEaogIFEt74DvPadupg+L5r7tlsUNd2lZ1+vWWqqKV//+WdxDWJrln3i9ew/xGuelkY82Fu3fKm3beM6rzPebOktWni9Bw31Vn0i86AGRUARSAKBiQ7va046ahLFpG16evolURkiFBQVFf1j7ty5+yMUGVKLFi2+TeKWli1bVqDYLuJ5Jg+S11Cc3qoL49WUKVPO4Dk8XRpD9jSiiyXdFANKokwMnaTvhYWFf37vvfdk9VSDIqAIKAKKgCIQEQHmv5YUjLGFI0eObIZxqt4NYrR3O0aNftIuBrmXiFZLui4Dnu4ytn/QTjrzoxhNZnK9hQHrP+GGF+g1CllZWbO4TsRw4/Xq1WsoBsVPaySoEVQaNWpU+4yMjJ78JpahXx1Kpkvgezo4Pyd10KUewXB1QyL1uUfNaW8VdVPg38uV49Z75513liD7eYrPh34V/A8g/w7y/+bKQee8Efrtbh1NKwKKQOIIHFaDmBi1eAAk3ttacMozxhqYXDGb1670sneFPHeC4oqKcoxdxd7Ys87zWraOzDNy8ukBvyRWf7o4JC+ZPoM5y6tNpffWCry9wo1y1SoIwTwTI5ZEJJYUHTJGMPEOk3HKlsmVixcYTzUZe6+BQ73VSxeZbZ4RBShREVAEQhAYPXp0awin+sTNKHjV/7hDalRm8CrL42/uDxGKopKoM5fCJdEYUHxOkb9jLlGWjiU6lvgG6u3CQPZCWVmZGLFm1NQ4hvzKPd4IQXY+UdSA8excntsX5efnX7V48eLYrqtRpdRrwa2MIU9aQKl9lUgNYvUKtwpXBBQBRUARqAkCzFUyp9drYL6eQAPp0gjNycuIGFXOx4jyIEaW+dCmsQ3vGYwuG4SnJkF0CDsUDG1RdQjxJMNw9gSLeX97++23X6lJW/Vdh4XHLzGWP9NOGfj8H0at7yfaJjhkUDfb5xdDZEJBdDfaEu+KNGREfDEGs5+i852L/DTu6a/o1yXU+Yj88dS7Hmzv1QXAhOBWJkWgGgKH1SBWUlTkyRlbrlFMDEfd+vYPOrp+xacJGZDcbYpSeePqFV7B3j2BHB4wEeWsWRb1HTSoa7cuBoQYCR5MnvxXFSq8HVs2BQaxjpw9Jt5b8YIrIZ7nsZxXNmz0eC9/8wa2bxZ5srW0U49e3ifvz/a2rFvtdezWw9u8ZqUaw+KBruWKgIMAq7VTydp92jvFEOQUR0qWouAZLytbyHNH9ilvt3k35lnRhXxExcflkzSKkLQ9iWflZOIp1K08INDzxL31WyhJ3yLegnHsUdr8E4rSOvIJB+QGBjHqR+yvCGNV8iTafopkBudZDMPFf2oiSjR8g+njAJFRWlo6f/bs2VskXR+B/lWuPiA8lmJeH22rTEVAEVAEFAFFIFEEmG/lSIaE2Jl/WzJX/5wFsGdmzZr1XkKVYEJ/eIM2ZO6eLBckMZBlk5aGR8vFNrxfY1x5HdKfkf9ysotr1LM6RDnze9RjHdCr/kl75zGO89GpbkJnuo98vJAC7xeFiXr7WJxMbKtNPKlRyhnLML8olfsTdSxRqteGLFuYRH+J+G7OPfmEe/QU/fsq10Wkb4FXvMKe53oBfachPBppSoMicOQhEPGPrqGGyYOmmnFIvMbasb0wM7vSsC7eTokYrcb07BN0e9/und4n8+aIv2pAi5TI7dLNS02NDcHBA/u9hWxz7DtkhNfZb0O2Hu7ZUfnOOPC4EwNj16cfvudtZ5vi0BPHhTQnhir54qMEOYw/IYMYONjA5GST1eK2nFc26pQvmO2Y2XixbV2/xpPz1datWMokWGaMYlJJ0hoUAUUgcQRQvL7ucA8n/4KTj5YMf6D8A+PUNyMxY7ySLZhnRCoLp6EIbYX2tH95cqYY2yin8gy9GMVIzjmTIAa2W8j/EEXpeQxPP8RYtcaUxPmHOlaZFc6oBjEU6wIMW/vgkVXQY5o3b/6BGApRauVw16gBZVtWWP9HGKgjuD4u6USDeOtlZ2f/gjaHowyfTL1oD3dR8HOsXM5k2WHTGisCioAioAgoAjVBgDl3AB5VsvA0hXmoN3EO8+/nxB8Rz+R6PFkjEnUlBDoDcgsrSdX/HTduXFfm3tmU9CU+jznxmHnz5slcHDf4/ZI5Wq578vLyWvTs2VPmUTEyXUK7YoRpRnwW8VnoOmvRIX6J7vIX8nGDeH3BZL2iZM6NdUaZ6DISaKbZvbQzmHPHrmF7atRDjidMmNDZ0b9Ep+lrJCTxD8bEU8HtQXSYG9BXXo9VlXs5HCwMC/HCWLx1XFaAPLkXVWf0hDVA/+8Ai06QZeFzLfEqzn9t30i99cN6r1lFoPEiEDyIG7qLYuiSLyJGClvWrcIAdYwp6tqnP95en3vFh6LOE15u527BVx2lkhjQslq2iiTaeInJ4fpieDthypkReVziji0bvQ95du7YuikwiBXs32u8sYRPtihK4CHlbVj5mRfp4P5d27ey9bLEnO8lBizx4BJPrmhBzixzQ6zD8A/s3e2VsK0zvUWG8bTLwVts7qvPBx8CUEOYi6SmFYHEEEB5ktXU0xxuUfCaOXlJhit94u5eZwElsAMK+HSUMzmgNh/l53wrnHM/5JyRB+TCsDYEnm/T38vJt+eSFecLUf6mkQ43iKViwDoD/pCxkJdtmLCbcy+GMv5zTMb55+DBg+/JORa8GEzAGPcGRT2pI4rZTJTai+nfSw57SBL5va184rUhhQlkMIbNpt4IYWW8l2IUezJSNV4S5MFvH6B7ly5dKthpUAQUAUVAEVAEAgSYs55jTgkMD8xRrYNCJwFfN7J/gHeqQzZJaENJDCW+jPo3Mrdej7HlzXC+OPl0W857ROghx7aAeNu2bTsxYpXTlmx77M2c+AfIlzos1ZL0/TZ4z6FvxVz30rcXhYlD74u4XiX5KnO9HL0gB+5fCe9EKRf5RD/gqmYQY4wD4a3axgMTQfQOG5pH0h+os1O82tATrqZfe2jjx1KB+Mo2bdr0lToY7iKe14UBqLcVjpy1Np1oTHvn085zwk98P+fDjYhlgINtuJXNPfnYphsgNvefPkZ9NwejlfTjVLcvagxz0dC0IlAzBKL+0dVMXOK1+gwe4fUfcXzcCjwIvZNOq/ZuFrPeMWMnRy1fOn8OhqvlxnuMB6s8HKPySoHwSCjYu9fE8k92qzZBumWbSmeE/XilRTKGCaPQd2JQ69Sjt1dWVuplYqwr2VVpEEvDkNWtT14gTxKpzUNvSw8OyS9yvjIpXmviBVdIXFJc7K1Y9KE3bNR4IyOrVWuMdMd5claZBkVAEagZAiiId9iaKEQ/RJH8DYrgaJ5H7wud58I0FLt6PXieZ1N3mjrRf0atsP0JjzEOyeG1P0ChvJV+X0H6R/Qvbfv27S+E88LTljFMD6e7ecqvIS9XSEABvwDCcxjjVrAFcjyeXv+lb4O4MqA/hdI5BUzmh1SqyvS0STzXwo10tihW/ASFv/EZ7mEcL6AYVnt5oI9trRAwyLdpjRUBRUARUAQUAYsA89b5Ni2xP8+6JI85X+b4P1FWqej7pcwth6CJEh+8DJAfQv416pyHvlBtjh06dGh6x44dT6Ru+EtHS1+sxwLY8cyjsFSkcJWxBW7Fu+++azy2xYjVo0eP79POy8JP/FXaesYauayMsHgUeVncE/Ifw8pM1jdCPUnmSRabRtCuHPJ/AbEY3CKF69AzqukHDmM7yiMtji2BxyxqoSfcQt93oWv8WurR3imkHyd5CVflS5cU+IHyQH8gnbT+gA73BvK3Urcz16DWrVtfh+h7rXw3RrcQnlyhgcEO8NnoltdnmnYDnUZ+L7qgV59oq2xFIBSBUMtLaFm95vjDr1f5UYWnVDpG8KDzZr7wVMj5ZZHqiMFJQsG+PUFxduvKObBFZhZeX5WLO3t3xn73Wo6BatXShRiydslTNpDVpl2uN+j40UE+UqI3B+JHCmLY+/TDd72NxD3yBnkiS0KvAUO8dZ994hXF8KqLJE9pioAiwH4IDF/gYNxHeU7sRimNqEjWN1YolV1tG/Rjq01Hi33F9mEUqUc6dOjQtz6VKTk3DMVxAkrmazzLR9KnLOKXMJSdFGmbJmU9pN+Mo4TyTdHGEI3O6viDnTp1ugo5efB0pd3biG8J50fxbQtuhgxv7IdyeGXNKwKKgCKgCCgCIIDX0jeYQ2TuNy8NMneRv4/D558qKCj4RL5AOWnSpJEsDJ1FmRxVIMcIyDvVNHSICRiqFrhAtm/ffiDz1hyXFp6mfKbQkGOKOG/Lw0C2EfnXiuFLDG0YrcQgZrwE4PslaTE+lZsKYf9QHugQpOPqECyuLUbExczj/Rlj0vN0WPMxs4zlN4xtN/0SjMWrXc7EWoex7ObwiuBi9AehM8evDS+Pl5fFM+6JeMv9VXiRd8fYsWOftMZGtz76Q+AdBv9CtwzPsiyMaddQP+oLLPfqGFuH+iO5Xz+0efpeIfpktC+KU7eAOoaddsRQygtjaPC37l4G36X8Fs8Vr/1QDs0pAopATRCQh/dhCfJ1x4MHEtr+Xqf927l1cyCvqPBgkI6a4OEkXldukLO6hJaT2zEgi+HM8onXlw1Cy8KTS4Jsm5StnGXEdWGs6pE30GzDXMQZZ59+8K530ulTzUQqHmaylVPONNOgCCgCySGAsnOnU+PhaMqLw1MvSRSeLo7guMqs5fUNYZ/ZvBujGO7EkDWGMbpbJgfQ1t+FD4VM2rnArWPTbJn8xKYlRtYOzg45nS9GfUC2L1dHXg5eRWEbgxfZbuGRQF68trJNxvPWE0dU3v3yiJGMqXPnzqIoPy8M9Pc6zs34RfhWAZRZ10NsR0RhSlQEFAFFQBE4qhHAMNGVeSR4B2JK7Mb8ESjNlP3ZAsS8OJ/rWxhrllqaxGwBlLnvA4wesyn/D3Vacsl5WuJ9NImr1gF54in+PMaiq2j/EdoRL7HToLUgHkrbX412hAC8XeAxfcB4krAOgZHl82gd50zje5D5z7Dyh6CZLT+0KUa6V8LKRbfYG05jPH+h/6Ib3C9lyLiJca6GHuKdBj0wiHGfkvYQE9kY4B6lrWtJHsfVmi9QX018F1dIwGgl58Va2sc2ITEGylzKjFebS3fT9NXNSltymSByKX+RTOVLoU+3EWWBhxi/xcAgJoY4DLSXU/51eE+y/PCIbDWIWUA0VgRqgUAwGdRCRo2qHty/z5NLQkZWS69123Y1khOvkmxRdI1g4fzHjj/ZHOIfTpd8YcEBTw7QP37iqSHFrXLaehOnXhRCEwOUPU/MLRhywlg3a9Iid9aLT5v0bs4X+2jWGyE8XdlCaQ/wLyos9MTgxauqJ+euyVc4ew8e7mXgnSZB+FZ/utgTD7VNaz73uvcdYOjd8RgT+iFnq6Up0H8UAUUgKgIYi06g8ExhQIHbinL0u6jM9VzgKrMoQgkrs3G6VYEh632XByUxUNhoZx7K9btueay0fOKb1eTzODRfXiTkq1UD2fbxAl5qp1kPNYxknRwZG510Ukn69QJ9nUMl2R+ezYq7GO4ed4WAWQ59MCTifLdM04qAIqAIKAKKgCAQ/qVj5v6SKMjM5ND3s/EIi7qCztz0NvWnYqAQZV2MHhPxSDoDI8zrViYGqZWUn2vzEmMgGUf0Q0kzd31CvesxOFWQbQ6vnNUlxq88LtlC+Sva+BfGolUYjX4D6XapR7gL+lPM66WV2eBfseoEcy+6TJ3oEBjLNiBXLhtS6E9gsKKdZ+lLiGeVZYwUg52cgyrGtMulnHE9BHbrwW66wx+MA3xqqkPQtfKbwXyG3460V80gRvs9bbu0tcimJaau3JtahTgyAoMYOlUrFhzbYYS7jj7JFs/2YQ2XkRejmQZFQBGoAwSa14GMWovoNXCwJ2eK1Vd47V9/k9kmonjZ9igH0kcMVAmx9UdkSp7Iwy2oJAa77ZvEaaIqtOFgfBvk0Pxd27fYrLdjyyZvy7rV3qQvXmwMZCKrS6++npxhtuLjD7wuPfuaM8h46Hrd8SBbufijoK4mFAFFIDYCKKGi6P0D5VM+a30dil3VXunYVWtSGvmh5EuifddDbHVNGkikDmM93XkmzY9XB+V3KfzNqbcQ5fwScdlHof0G9ab5dXNx96/ct1hJyPXpEm1z0kknUWj/zrNNDGKiOItCG2IQI+8+zAPlUvg1KAKKgCKgCCgCkRDgbMss5v/wojl8qTimMcxWQFeQj8u8xbx0stCIv0wUGMRYPCok/x8pswH+9vCZLPFHYlizZcQzMHQ9xny3hrJcuejfJdD/ioHuf3Nycq4gLTpCX3imEhvvaWIT2BIodcw7HnP1Htdr2/LURcyC2LG0Y15aaEfG+EksuYz5O/DfIDwYnK4AtjnEVzG2IZBO4KI4pWr7DQTkylhImS2TNdYhMLK9ha4iL1xi9JKD/MdL+yLXCa53Rsi2UTEGUsfVy5xqlUnGcTapv/gFTzO277tMyIhlmCywvNzT3+J9P4G8eNAFASxE/3r80KFDT7J7YXNQoAlFQBGoFQKNwiBWqxHUsvKGzz/zxEsrUpBtjds3b+CrjS9EKo5KG3jsiV5ul26mXLy0xIDlhlK+ChkruF/IPOCcXWbryFZPkdmtb39Dyva3dBYXHTJfv7TeZeIttnIJHr9RjIFWnsaKgCJQiQAKqShbX0PJ+wmKy5p6xqVSw4vSCEpPcP5H+EqlHLjKFsI8DESDUJz6EO9GzCJRllDwDkURWY2MctecdibbAtqJaxCDXxRXCYHbP7g9i6L5c9ofSF+u8JV/wwS/u7K53RBr+A+r7M/zhcs/UD0duVO4Tz1ESXXEtXDSRU5ak4qAIqAIKAKKQEQE8GQWI4kbNhcWFl4QyzPMZZY089/vmJesQeyM8PII+b6WxrxZ7ZgD5vIDGJD+BM9tPt9AiaVP0J+hre/59CuJQwxieGoH+gNlIZ5OUof5upPM1yTFE60V8XLiRbS5UcoTDXgynebwfkT9cE81p9gkO/Fv5VYWz8sRCnUOoYucjy4jXmE/ZqHtVaHb4OoQGIJqo0MwxArB7SaRTXuyqBZiEKOsrW2XuNqxC/Q18gujXwnvtnzkmhxt7Y/H77QlSXcR70xbhhzpx7+IH8Oot8DSNVYEFIG6Q6DRGcTEgLNm2eJajTAjK9ubcM6FCcmQs8ziBfG+SiYUFgTviWy73G+8t5qnp3sdu/X0dm3bEncbY2bLqjPL3MP83T4U7N8bZDOyq7xmt21YG2y3FBw6dO3u5W9y3xeDappQBBSBKAg0gDEsSstVZJSffihnhsDq9aJRo0a15yuK30XZugyiKNKpVvGyMbQyFOVZKNdXoYjFfbghfzR1zAOH9sRj7UOuGgWMYj+NVBGxwQOK9sRwV+Mgq9wo8v9FwDlc7CJPlQf9fVYg8l2DWMKGQVtfY0VAEVAEFIGjDwHm0IvDRv3lSIeuh/GEZDFWvM78K4fvp1HQJcKCTQg/mX6WQPvLbNqNmT9XIM+SAgMatH9DNAYx0mdwVmdP5sf1lhFaIJu0MYhhrJGvOd6ATNmq6R4vYKvJIf47KP8VY3kAYnlQED3hGsTiLqhFE4O+Ioa4YyKViw7BGEzR/Pnza6VDIOspZBmDGAIv4voOVzBOytvatqDv4GqQgEGwM22f6rQtBlb56MDdGGYfchcZG6RD2ogicJQh0OgMYjm5HcwWwNrcB9kGmWjoxRccW7dzHRiqasr5XSv4OqSE4yedZgxaVaXVU/NnTGd741avpKjKMcF+hbJr7zxvyAljTKU1y5Z4yz+OPm9ktZLFmspQsK/K8GVpEhdH+YLkdoxf5WVlZjul8HXp1U8NYgKEBkUgAQRQSo7FyPJxPFaUlIswzFTb8oiH1QSUmKoHQDxBUcr91duhUoy8TXhFXc71S7Ih7vMRqsvXmk5mDItQfm9Gqf19BB6XdLqTeReltM63iKKAZ9o2MNQV2nQt4qepKwYx2VsxypWD/Ba0Z0lqELNIaKwIKAJNDoHdPxt6DMfHXpBS2Oy+nLuX1MoQ0OQG34AdZt7vzlzydbdJtkq+7+YTTMu5Tuu48oQfmZ2JYq1IB0YrdIdqHmIig/k/8IgiLYY2E1iAmovxaqvfRjP0g69R8Cu/WNo+xaapVwjvTGiThEZsi6rFlMn2xHvhP48PD1zmGtnCmTnjKhPZ46085t9XwnnqKG91CNleExivaiJbPKwY2yr6LAuOOehJ/aEtt7KgBVsm9+/fn5w3hBWSZIzhtD862+tU6yNVwbSCftwHnj+vD50sye4puyJwVCDQ6AxiuV26s92we4OBL9sL23boFLG94kOHAoNYavNgHorIK0TLU1Jc9T7c3K/X3d/eKHz7YnicyRcq3TPNDuyN/H5aVloqokyoKK+aH8pKS8w5Yx279zRl7Tu7XtN+BY0UAUUgIgLoIfH/0CPWrCSi1KThzVX1AIjBG6foNBQio7USyf7r+y0/fRQX1MeIZxKv5PPoG/Ec640h6ATyt3LJH38W+YdR/NaEbz+gLAjwnGYztDPNpus4Dh5WtBHPoBe3acY924dGFPuRbgXy6TaPMlljg5gYRpEj20leRCGtsRzbF40VAUVAEUgWgfLylOzU1JSfVGRVfG/3XUMfUMNYsggmxs+8fTecia+kxxYrXlrGIMb8as7WisbOfGX4mNNKML6sisRH34JzpSgXg5ANovg/z3W1EJAhi1uBQYy05E2gnR/ZtMTwylcz5XyyZXLYP7Es7slZYOeRvkJ4SE9k2+UzJMdyVb1kSKEfOPB9AnwZkkXeDubKt21ZHcdGh6CNNDkuwn6wpxZtzKauNUaKDrHcyqIN6yG2l62pJZZeX7F49rHtdA7yO0obtJ/PdRl62+v11abKVQQUgeoINDqDmBiT5Iyt0GOveFZX/i9PCzOKCiFI8CNJVBZVeM3T0rzM7Covq0rGyP/KdkhrtArnKDx4IJxk8u+/8XJA795vQPBlR0ssdjzEWmRleXJIfut2uaZYzvnaun6NZa0W27PHpKCkuNiT88IihZQqLwivvFwWparC1g1rPGsQa5GR6bXKaeft37OrikFTioAiEBEBlLsl4uUVqRBF8VbKz/LLXofvF+F8KLUftWzZ0nh2hZclk0chcg+6N1VFUSLxKwxgf5s3b96+MHmykrkAQ87TKNCPkj5Xyunvw6ziDo3kbs+nvNvAYjyskC1P0melTl0HRG+nH0YscY/aykdRXIehbw+ycpCdN3r06NYOHnWyZRIMr6Sf3+XaS1tfoM13a9tvra8IKAKKQE0Q4FnXmoe5GsZqAl6cOpMmTRrDPCIf0YnDmXCxzKsmoDNENajgmXQMTNYb6fNoxhf6lub0zTWIifHk35QZgxjxGOb0LDlfDCNLX/LW4OP3xkQvorfcjeEqkvfbRjheZr57kfgf1G/FNZr8Ncx/D7lCnLS7oPYc9NCXEYexNkn6IV5yvYhT+Lq0LBBGf4lKrCGzhVRYEXk80T9tNfLGMAq2IVjb8ngx9zxwUY/Hm5eXh2Nfi3/DZ4xhxKvxypsSyysvnkwtVwQUgZoh0OgMYnII/Rqu2gQ5O2vyeV9OSMSnH76XEJ9lEmPdnvxtNuvlOF+EtETXQ0wMc7It04ZNq1d4rkeXpdu4Q9eq98WdWzdZcrW4WbPUgIYnRJCWhHy1Umj2uZyW7r4jhrBqRhFQBBwEfG+gOQ4pSKIYBs9LlKWJKJbL+XS7GKlCAgp2SL4GGdHMA0VT6tPeXKJLUEyjPxRgoP97RowYcWlubu5nKHbiatuHVdyvET/CFRL4EuQVEMyDBN65bMGIKTukcnKZ4IHJOKoecMnJCOeWSWIi/U7hS0zHkZ7lMwT3iKIaKbQih35ag2QbnqXBuSx+GxopAoqAItDgCPBMU8NY3aKewmH6DyKyzqxh3KM8p4vB3OfQTBL9/GyH9l8nHZJk/klngcbSQuY0tvrJly130GYuc1Yac3p/GBfh2RV4h/kVxWv9e8zxf7KCosXoGC9hrLsdmQ/4POJdVs0ghp6RDV10CxPop3iT1VcIcOR+iQ5RK4MYY3MNYiFe5uAo53a15mpPOwJ8skY+d8tRYSxAevbs+UvKxbNfwnq89SZjDNtQmdV/FQFFoCERCF4eGrLRWG3JWVuZziHxsXijlblbDqPxWLpsc4y2MFRRXsFngY2nrmVPKD64f1/A175Tl8AAxoPWk69aRg10xN0uum3juqis4gVnQymeZG6Q/LIF73tlJSXezm2bo3qZuXU0rQgoAnERkG10JqAsZaJ03kzmhz6pziLODxuOsM6OwD+jbF6DsSuhh9HixYsLUJJvpf7jvowqi7xPYAVZtgXcbtvg2fRXm67rGNmBMkub3WPJx8Pt6/Dko+i/EosPnoWUTxQeXiyGEVmDmKu81mh+ow+DkG9eauj7J+C+UdrRoAgoAopAY0CA55MaxurgRmD4+SZirEGi1hLlwzcICTzEOAx9azShzC1ncx9NMfP7i9H44BHDkwmkq14uKkllyPkeyRJkvM1cZQ+BDwxilAvtDAxdH1VWif8v8+/D6CHXwtmfNrvJuDjMXrzQg8Ci282UWT1ltRjngsI6TjC2bXaBn/FE1SH8Dw9dD89DDhbVenPw4MFFLKQZOryiPwSBMeWT6cXVbNy4cZ3mzp27WeTi+X8n/bgnnj4g/UOGkUe8LhAclpgwYYJsp/2ukKlTwnVx2Bezw2poVhFQBOoTgRq9MNRnh1rltGWLX9v6bCKQnd26TcyvUfLw89545rHAoCUV5ZD8Uy78WiAjkvfVgX17vFLO8rJbMe32xo2rVngHD+wP6oYncnI7cn5YpTeXtJ2/OfpCgZw1ZoO7RdPSNny+zCY1VgQUgVoi4G9BCDkPBAXm+xyG+gRKzJJaig+pjtzg65Kk5/IsSNgYZgVxjtlMzqUwWZSygZZuY9z0xRhmHrS0sW7v3r3/sGV+3AzD0CjqDiAvWxX2wLeJOGnjENtIt+Xk5BxEThYyRJkVbbGCKySI0onS+3+00RJl/GVWs6eGMDgZ5CyDz1BIuxNGqcNWtWrgEOMlWY2/3PLQRkzDnOXTWBFQBBSBhkaA55MaxmoIuhwZwHzzv0518RS73sknnWzVqtUQp9KaaF+plLmOezfa55XzTOY49cKTYmQzgblOjDUhAUNUsN3PKegnafglfB2ehI1hvgxZWJrN1V/yGI9kkW6mpCVgzOlC/2+qzJl27ibtLkYZHry5jodPjGrp9GM7usxG0n1tvURj6gQeYaR7RKsH/jdSdgtt3YD+8kWMVzMj8XKExC4WDbchqxOXqz8IZvnQTDUWPbuQ2Iwx7DZo16IbfAtdcDheXKsjyfVpouPYENUghn72P8jM9Blf4B7Ns5U0VgQUgYZHIOG9zvXZtcKCAk+8quJdtg+yJTEery03Z2f5547Z+jZ2tx1amhvLikRKBE9qMYLZy+UP0rS3b5ddqKmkSp9XLPowYImU6NKzap7YzbbMcM8vt441nAmtuCimV65bTdOKgCJQAwRQXn5gq6EwmT84lJk0FL6/QK/T5ygruc+jOJ6D3A+Iv4xO5xp5bDdixhjpNsFgFFT629FlxojXh/y1Du0e9/wSVs3PRllcjPL3Hs9AOXj3Z4z1QWI5r8RV2nLE08yREzEpsunDm1IoCiCK6hmRGPkwwA8ob+mXrY/EY2mitNo0cY5NUz84s4V0uqUnGtO35si+zOF/zElrUhFQBBSBRocAz7rWLLzKGWNrOXz/Z3t+PDzuc7nRDaKBO9SmTZs7aNLOjZ8z1/6+DrrwIyvDznk278YYWL5IPlVo8L0SZ44PDGLcZ3fec0WGpBnLJOQ+Cv8vMLTUaFGH+sEcjJxstwH0oZ+RNzT4Nm7bti2YJ8XYh/7wIMaktegML1P3PnjvIf47OsUbpIMFJ8pFF0kkvOowne+kg6S0S1+sXpOB7M+DwsgJi2Uq877VO0RHsXS5N10YiywIWk+uZRjDAuNcJLHwDrN0FibX2XSEeLSl0c5rNq2xIqAIHB4EGoWH2PoVn3py2dCuY2dv2ElmN4y3iy1/n8yb48lWyuEnTfDE26oQL6v5b70a02Akslq2yfHkK5Kpqc3jbn3ctX2Lt/zjD0wXho0ebw6it/0Jj+fNmB6Quvcd4HVzviBpC/buzPfadZTFhcrw+eKPvBIO1O/Su58n2yj37Mj3Nq5abosxsKV73fqZxRhD2x5ju6QwiHebDUUHD9qkxoqAIlDHCPiroVdYsZwddgqK3W9RfMZyjcKb6U68mX5qy+siRomVh0zVgyZJoRi1TqSKUbiJQ7y6UGZlVdwai7asX7/+b1Y89b7EmJ7lSrE0lLX9pDMghXhcke+Hp9ka6jwAz30o9XtsnfCYclGMjccXiqoYF0MUQA7+b0f5dVIP3goOln0gXEZYfoeTDx6GVN2HHFvU1yYSjenbN6hvV3jncF+rJiZfCAbFHhhCHyO7FuPltxKVrXyKgCKgCNQnAjy71GMsAYB5hg+Gzcw3ws688SPObyphPkugdmQWDCfy0nK2U/qckw5PyjZHE7hnL9p0pJjyYB5D95CFrrjBn4u/GZcxBgPtnmSLwWeBTTPfD6UskE3Zb+xXH9li2AoM36T8GMtPXA7PXmjVjLTQHgS3C4lFh3rbqROSZJ79GD1rM8Su8MpB/2Ohvesy+QtqrXzaNMpjYoWcQIdg3hcd4oDUpa+Bhxh0eYmTe2p/GHIURQVXxMDv6jgKzBZc5ODTULwqImMlUX6DJsAXog9ZerKx6ibJIqb8ikAVAs2qkocnJUajEWMnm4Pns1q1Np1I58uIWS1bVV4+TTy97Hle8sXGE6ecab4mGa3XYtQa94UveXnDj/eGnDg2GltALyw44IkRS66iQuMAEpS5CTlUf/f2rcEV7euNGVnBgoOpvt7fwpjTvqPXvd9Ar/egoa5Yr0f/wcEWy1LO/tq0Jvbihnw50gbZoqlBEVAE6gcBDEg/Qnkye5RRct6dNWvWe6zAXkNr1gPrdhS0qfXTes2kosi5innwMEGZlVXJS6xUxnPrypUriyTPKmku45RVZWNRouz/GOd4FMsc4qyioqKBxOfC6lrgZdvJT7nWoLB+zcoNj1H4XkaeUSQRfxptBauowsvB/+IdZpXZV1mFXREuIywfKLPQRZk1gSa2OelTbDqRWA4Jpg+BYZOx3hdej2024hW4AL4pXN/kvn8/nEfzioAioAgcTgR4NqnHWIwbwJz+IBhZh4CZzHHPx2BPpEgWn37tMC5BZkQjB3OGfLDlGOFlvtq4Z8+emAYx2EZYucyzy2y6PmP5WiV9myxtEK/CwBachUbffwPZLLZRtpzrz8InISMjQw7jt2P7DNK3OUetC1i049wu8eAaB+1x4bUBfjEkviXHJHB1svSwWHSHly2NOoHHvtDcBTXJYzi8X+JYgb4EOgTy2lhe6GJ4M4H0SMqM8Y/0O4zjv7YsUszv6lqHPk22Zjr58GSxJaBrHLLpmsaqm9QUOa2nCFQicNgNYn2HHoP3Vz9v8MiTvC69+kW9L2J4+nj2m+bricLUhq87noBRzAYxpp1+yTe8Sede7OWNOJ5thEXi+mqKxYNLPMwaKnTtk8dYgkUd02wbjHgSmqdXOlmUlVbtghKvt14DqgxkYjyLtV2ydbv2ZsumEcg/B/butkmNFQFFoA4RwHAjxqPrfZHFKC5yRoWHgriQ6GFJ85yR8ASK7vGSP9xBjF4ob0YxI66gb4EHGGlRZk2g6FUUvEf9rEQnUW6NUr+n7Do81eZCL2e8pWKkIv8f6gWKHGmjVFIvBz7B4J9yNosIc4McTEs+WNHFw+5mW04defB/T/LI4yO85eLBFjPAttNhaGnThw4dmkO6XPL0aaCsmNqyeDGHBItib/nnMNbnwuv4W0t/bum08Vt5wbF5jRUBRUARaCwI8HxSw1jYzWBOGA7pVJ9cjmNYiHEljD1ulud/N663wXq0ZWZ+kjkimifRTZZP5g/3uAJLt7F4XJE2BjFkFjInr7Fl9Rinsp30j/TNLAISy5xqArrFKeTP8rPlGJ6+iW4QGHPo48VSRnyI7YKn4/X1V3uOmhiH6L/oAB/59SVy5/GzqbcEnescpzxI0ta0ION558EXvNSxoPYL+iVYSZjBouUHlcno/9JW0DbpQIdwx4sB8iokGO8w9JJg3o8kFWxGIuerTtlvnXSk5FJLpP9n2HRNY9VNaoqc1lMEKhE4rAYx2fbXvnNX0xMeJN7mtStj3pedWzd7S95/Rx62hs89oF7O9GrGp4kzs8WzrLX3+eIF3r7dwfPOeIlZD7SYjcQplEP1O3brGVximHNDSz4IMPREWQQJDb0HDTOEtDTzbPVcg1jPvEFei8xMU84M46377JPQymG5bn36B5QDe/ewFdM4eAQ0TSgCikDtEUDJnYjh5jEUJGNZRyG6DuXvfSs5Pz//Vp5FVrkTI9AMUYps+eGI6fPJdHcGl92e8Kq77Q/6ar9f+xjP/7h9RPk71sm/4aTdpMwZ5iHG2Bew+iteY3+1DMj/Csr0X2zejeF3FcrL6eo3ZSUann9QzyqkfwHjQAF367tpeLYhT5TI02k/eKERpRt6oAyzYvvM6NGjW7t1w9NSzsr0Y/TBKrNFvCRdH85n8yj1D9HGE34+lfgpXrKqHsqWUWNFQBFQBBoBAjzb1DDm3wf5CA5zxgVkZa54jPzHNb1FGGVkVX4h+E5wZDzGHOEab4Ii+E+A9zQh0PYOvMMeCQojJNh+KNsJrWHKLE5FYKszUl5eXgvm5Wm0eZkvtAjD1p9sA/S5gMt6Yd8v3vK2jDiVer39/HJw3eCnQyKwlznfBIxc30DeF8kYXup3QOd6CT1qqM8SRMz5M8jY9mBLfU7mbngvoN7VwoisQmSadFAxSoI5/tfwf4Hik+nTYsvGvVtAeq/NSwzffL99lxykpb/oT6/TD3OvKBCvQ6sbBnxhiaBN6L9GhxgcVp50VnWTpCHTCopAgEDzIHUYEuIVxQPEtLxr2xZzNlh4N6wBydK3rF1lkmVsK9y+ab0lG4+xIEMCNwNv8bszvbFnnmcMZc354tpwziWb98bLLluN0sdPMvNZtboZWdne4BNO8lKbV8IqY5IvR4qhrnOP3t5GjH+Z2ZXvfdYgls7XIsWjzYaNq1d4RYcKbdY7buKp3qGDBZ58NVKMX3IuWg8MaDbkb67CwNI0VgQUgdohMGnSpDFIeIHLGH+I/4zHkHgQBWHx4sUFKLhnowi9z3NMDl5t6yt37kNmPArmQ0Gl0MSI0GzNcrLVr0OHDmNp+0oknE8/zAOI/DoUvWtcqRjHvkF/3oR2CAVvo1tGeofNU284aRl/SACX0cjP9Inr/S0B30bmLOii3Atefwip5GfA73UMT7I95Fyf9Fe+Pnk/6dZ+fgvt/tBPx4sqUP7+G4Xpr9Dtav1JHGD8OvfpfMa7NZyffk+k349C72PLwO3qeC9JGAKv4stbsspxHPXbso1yGm2cRBvBarmVp7EioAgoAo0BAZ5VesYYN0K8fzkb9D2e9Uk9r8Vji0WWScz54il1CqJkngwC8t7esWNHyJwbFOK0jBHH1QXux6snOH6AuehqZG5hjn6JOmVsA8wk/2OnvqtXOOTaJ5m78uibzMvSdzMXMhbxPLjMNXoxv73PHH4M9FvZAnk7sRvKqGK+3Aixl2CFZ/h+l0HSjGmypdHmesa7mPblAz5ydukkZLzD/fnU8rgxZd8nPwe+NOLhzO0boLWyPNDvpI8rbT5W7H8p0i4QuqxlZGZyWT1F+nyfy+Cm6ftkyv8Frb3Q6c9Gjoi4wuWJlIbnYT48cBV1u8uFDrGI38CDGPSeJv8x4yiNVM+l0XTzcD7VTVyENK0IJI5ApeUmcf464xRPqu55AwN5G1Z+FqTdRKu27TzZVrlz6ya2EZawZbLMnN/FwxPjUFtzjlh26xyvHzxB8D3IxIC0ZtkSr9+wY01R2w6dzFldYlwKD7KlMie3kyFn++eWhfPYvBjbwoNsexw6qsozbOv6Nd7COW/Rr2O9/seMNB8DOPHks4JqhwoLTHrgcaOC7Y9yPtmqTxYGPLI1slP3Xibfa8AQ71DhQS8NDzUxsEngwcvB/CtMWv9RBBSB2iMgCgbKyE94vtyGtMo/NFYlt27del0k6SgjW1EQv8Df4lzqyTa7n2E0Cizc0PKod22kusnQWIH8IrJE4ZIVyGyurlw9uPpyiWFN+k1UGejPWoxLU+jfWkuzMYakJ2zajanznpXB+OVctN2cG/aYr9Q2Iz8Z/sAoCG/wsBKZ9HEFtDNJvwVfxIAS/S22BwhWg7ikw9YYJtvhr6W/eyJWTIJI84/QVzmn5UK/2kko3lu4T2sY4wfQtlA2lPg4LqPECh9lB7hu5B7+XfKxAobAQtq4CDmyyptFfAzX/aS/E6uelikCioAicLgR4Fl11BvGZs+evSWZ+yDezJyRJYtG6RHqiefUj5l7HqascgtLGBPzz7cgnSRkeDcytz5oWcR4xD35Dfls5hVZuJEtmL2JB3BJKMCA8s/KZPL/otf0Zg4cT7uZciG7HbEYYnpwHYvEjuFSKZe5cFo4HQPWNmjfC6f7+feIz0NmDt5tL6IT3IyMj6BV0Idc+nAL6dN93mI85MzLGPP+DvA9jQWyX9Du34Tf5wmJwHc+Mr+PfMFZQmvSlSnP+xhj0r02U5uYPsiHAaxBbDv633Ph8hjPsYznf6Gfacuot4n0ZN/YZskRY3h2M5av0Y4s7KUTi5HvRgxjNyLnAL+Dj8mLPrSfMtFFc7jaOJfks5BxKhjLIqcJqptYJDRWBJJD4LAZxGRboRi1JIjhauuGtSZt8mGHxA845gTPkyvB4B50v2rpQq9rn35mK6VUH3jsCd7Wdau8kuLiEGk8cLx4hjCpIEarGdNC3yfF62v0aed44iEmIX/zRm/R3LdNevWyxebLkuLZ5YaD+/cZ7zE5b8yG5Qs/5ED/YMHIa9uhsy0ycUZm4Gls8mIMK9gX4tkbwq8ZRUARSByB8ePH9+WZ9C+eBaNsLRSTJzHUXGe/omTpboyC+ClKyXhWhtdCl9XFIFBflNv5ASE0MYG22oaSIufg+xXX0MilVVTa2891H4an382bN29fVUn8FErVIpT238P5XS5R0B7iBeAhaHuRKUYfUdhMIL+RLQd/sHmJqT+PSK6oQTzK+Dz6eFZ2pyNvtM8omF1D/WpKZ1RBcQoKCgquoI2WsAXKKuk+tNknUlXGIwrlFfRhXaTySDSU81UorT9Gpnmx4bdzFfnp0F+KxK80RUARUAQaEwI8u456w1ii90O8uZgLl8IvCyk2FDN3vEbmBzIfWGJ4jG4h3uN3g7cpIn2N6z2F8WgyBeYFAh5R/L9iGP1/4P8tBrx8l5ZMGsONvEA9Ie3bPtg4XA5tzYV2K3PhO+Fl8fLUlflwInzy1egpXB8yJ5YQF0Jr7daH9w73/DQ//SOXJ1Kafv0emfKi9AhyzTsssuRDN2djWIvrVRVJZjgNWaIPmID+93y4/ocxLIf5XvS6QCcivYTtpRfgXR71d1ApsepfxjKL38ZgPMXuoU27gCf3SHSXCVWc0VPwVjPQqm4SHS8tUQSiIXBYDGLi2SVbCW1YsfADWTKxWe/Ant3ehpXL2Ro4MKAlmtjJNkXXa0rO5Fq2YJ53PFsPebB5W9atNnG4PDHKbd8U+i4k2xrFI03Csg/f8zKysyMedi/niskZZhJ28QXKj2fPMN5bkhdvMjn37MST5auYlc8tHt5e/paNXnp6hvlyZvPmad7u/G1mW6TUsWHd8qXmHDTxDmvfuRttVD33xOi2bIEsxmhQBBSBukAApUQ+J26MYfyN5nN9B4UlISMNfKIoRwqvoZx8M1IByvWr0F2DTSQ2S9tMoppBjD6KwW0V/V5A+jXc5WfKCqGtlGyMce96lM3d1LsemXYrQhvSrqg5YiSsqYI+f/78nQgbh1J5IkplH9Ly9aZNbgO1TfvGwLNoYzJtyNYO8eDKdeQWkf6US86TeZP7J6scVZOQwxgrSb//D7zkDJNJ4L8YWWti8R+pZbt/Pvw8xiaXhiMEgbJFd2XvajPIfeGLO7L04n0T+S08GpdRGRJCIKWiokNCjLVk4vmlhrEEMOT5LgtmYphaQvw+H3F53TVsRRPBHCTeWGYSZZ54jvnmPy4v84icm3UCfNdRfjaswVxF/gnKf+byJ5tGxma/+ZCq0A9BWM21gustxvcqRqWEthyGCPIzjGs5U+4ZGOBkkUiOnRDjjjxD3OeIrOI/yJjukfKaBOo+Onbs2FdYsJvEGLZzza0rY5j0RxY5OdNrCH3Pwci1LryPtLWHef9R6FdyLQS3nzP250knrUP43mQXgdsw7r8skorx8niujoxLdLCW0OS3I14ce7gEP1mkNDFFm8hXC2Ckukk1VJSgCERHwDygpXj6E4/c2axZyh3RWeu2RA64l4PmCwsOeGs+XRxRuGyrbNOug5feogXncqWZrYI8MHjANsPgVG6MTmK0Eq8t2U4ohrRoX1yU7Zlyppd4Ztkg53cNOXGsycoWR7lqGtp17Oz1xHC15P3ZHJhfUk2MGAH7DBluPNXkHDS7RTS7VRtv4PGjvBV4h0XruxUmHyGQDwbImWKuF5wtP1zxWZd+O/gdHa4+aLuKQF0ggJIzAzn78H66qqYGHxS1jihqV0t/UFo+QFF6JVLfUIAu4Xk2SMowZD0k3lOR+ISGsizGuvZsCSikzkHig2w32C7nmEWrUxu6fMZcvnxE//NorzOxvARsRPFbiDL4YW1kH666cgAv5371AbtiVnHlBaBytaOWHRLPQs6VOReMHqpLpbyW3WrQ6rvvGnZnSgPqDw06OG1METjKEOBZto/J64GUwmb35dy9RBZIjobQjDl5BHOc6LOlzBFL6nLQ6BbdkPdbtkreiBFNFriiBnj7cQ8Gcq1mTvksKmOCBbLdk+2I8vXpIsZ3ECPPQfSJ/eg4sqCWtBEnkWYZw1jaEG+6vrSLbbdiI7rE+kSNiIm0cTh5fD1vGIanqEdE1FH/UoYOHZoW7qWWiGzVTRJBSXkUgUoEAkNGQxvE9AYcOQioQezIuZdH+0hQHNNcN/6jHQ8dvyKQCAJqEEsEJeVRBJoWAhgxjkbDWNO6SdpbRUARUAQUgVojUHmIV63FqABFQBFQBJo+AmoMa/r3UEegCCgCioAiUHsE8PBpzQejflKRVbF2911Df7bnx8Pb1l6qSlAEFAFFQBFQBBoXAmoQa1z3Q3ujCCgCioAioAgoAoqAIqAINAoE1DDWKG6DdkIRUAQUAUWgnhBQg1g9AatiFQFFQBFQBBQBRUARUAQUgSMBATWMHQl3UcegCCgCioAiEI6AGsTCEdG8IqAIKAKKgCKgCCgCioAioAhUQ0ANY9UgUYIioAgoAopAE0ZADWJN+OZp1xUBRUARUAQUAUVAEVAEFIGGRiAwjGVXLNpz5/C+Dd2+tqcIKAKKgCKgCNQFAmoQqwsUVYYioAgoAoqAIqAIKAKKgCJwlCAgX6GsKC//eUpByjE5dy5ZfZQMW4epCCgCioAicIQh0PwIG48ORxFQBBQBRUARUAQUAUVAEVAE6gEBMYR5FRUPpBQ2uy/n7k9210MTKlIRUAQUAUVAEWgwBI4sg1hKipcCdEzWDQagNqQIKAKKgCKgCCgCioAioAgcyQioIexIvrs6NkVAEVAEjl4EjiiDWM/+g73Bx4/2Dh7Y7+3avsVbOn9uje9syzZtvbYdOnntO3f1tm9a721es7LGsrSiIqAIKAKKQGIIjBs3rmuLFi0GCXdxcfHKOXPmrE+sZt1xTZo0aUxqaupdvsS3CHfXnXSVpAgoAopA00FADWFN515pTxUBRUARUASSR+CIMojldunmpTRr5mW3buPt37MrITQysloafqkjRrBWOXK185qnpQX123fu5u3YstErPnQooGlCEVAEkkPglFNO6YRiPZZaozF03IOhI9JWi5Tx48fnRClLrkGHm7YvpO3VGDYWQi53iuokOWbMmEzGlLJ3796ylStXFiNU3VRriGx6evo5HNb8J6lOWgxRt9RQVI2rYQzrTh9O8wXsq7Gg+BVTR4wYkdGuXbsyWEuoMnYMAABAAElEQVRnzpxZGr+KcigCioAiUP8IqCEscYynTJlyS7NmzaZKjfLy8r+8/fbbf0u8ds04Tz755BnMU1ncp7XoNl+tmZTEaqGXDfDnY6mwmPbuTKxmcly00zctLe3YgoKCWfPnz9+ZXO3o3A2lf06ePPkcfgcj6cm20tLSN995553Po/eqTkua0bY5F7yh9IiRI0e2IcjvXDZnbeQ3cX2djkiFKQINiMARYxATQ1j7Tl0D6LasW+01S031cnI7YtxK99JbtPBaZGZ7GVmVV1bLVl5mdkvDE1SKkkhLT/e69OrnrVu+NAqHkhUBRSABBF5AeTtJ+FCsZhG96tZBYTkNxe5ueHJHjx49fN68eXViiEBJaEk7/0BuOgqkGOFmcr2FAes/deV9lJWVNYvrxJycHK9Xr15D33zzzU9pQ4ODAC8M47gHqdzjAl4WFjhFIUmUSVGuEgoTJ07s0bx58z7CjOzl4L4toYqNhAlMzmC806U74DKN6OJG0jXthiKgCBylCPAsahJnhPH8H47xZHF93aaSkpKeGDQ2JCKf+WcwfGN83rcTqVNbHtocj4wWXB1rKytefXDuQHvnCx+/D2nvTknXdcA7/NvIvKVly5YV6ISLaEuwfA0j41u1NPQ0iP7JfH4ZOJl5nIW1S+l7gxjE0G3fot1JtFeel5eXxcJsEel6Da0ItPklvxH5qIYaxOoVcRVenwgcMQaxdh07e6nNK4dTWlLi5W/e4GW1au2NOuULSeFXVlrqHdy/zzuwb4/xMjuwZ7e3d2e+V3SoMCk5yqwIKAKhCKDQLEBZMAYxSkZxhRjEUHxuZnI9XmphXLqXSBSjWgfanICQdBGE/LZEotSdj1HuQZSI+dCmofg+k6jiK3LCA30XZdGQMbTlh5fbvHiSMbYnwOJvGIVesfQjPcYomcF9mCPjBKfNRN3qYswo6dch52aRxT24geh+SYcH2j+WdvuF02Pk5TdjAnJ7Y7i6wOYTiVndnpnI6rb8bqw8+hf1dyM89OFcMLwoPz//qsWLFxfYeo0ibpayEJfIxxpFX7QTdYJAWWpm9q42g8wLcKIC04v3rWpzYNV7ifIrX2wEUuT5kJKSnBIbW2TMUp5HTcIQZgfBYkjVVg5LrNv4iHlHqgNYXCzqbbsMv8FTRJfiEoVK5u1jiW/AuLQLA9kLZWVlsnA0I1njWAPqnwMdrJfaNN5UaXhTiU57OtdkxlXGWN8i/QY7C55ZsGDBXstbw9jen2bdu3dPwSBWQzFaTRE4OhGwf0BNfvTd+vQPxiBnfpWXyQ6U6kHoYtw6dLDAK+SsscKCA17PAUM88QKTsGDmf835Y9VrRqZ07tnHa922vSncun6Nt2938h6+8txvkZll+hS5FaUqAk0fAV7m32cU1/gjGR0+IpSDn0A7lb8HCd/CWPV7XLA/CudLNo8i9AbyTuISJWQy9cXYkU1aFC7px2gMK7+mvdch/RmF6+VklS3qWcNG+ezZs6M+BDIzM/9Je+eBxfkYOG7CKHYf+XghBd4vChP19uEF1SCrz/E61ZTKUabFWHZ5TfrMvR3J9WwydbOzs8+GP67Bk/tpfzdi0NserQ0MevL7fYryjNzc3GF4RkxNxIAL32DGPkDksn1jPr/NLdHaqA297U+WvEB9uTQcIQhMnz69F7/Jc5IZDvzvTJ069cpk6ihvdAR23jlsLBsd6t0gxn1rUoYwixiGhM9wUplq83UZ87ytYGFjY13KPByymAP6YDg8lbZlsbEX11ru90Kux9FzEjZsgUeq7T/pevMQQF87l3YmMTdOJp5CW9bA1I78t5jPvkW8BePYo4zhT+iI68jHDchrCP2T7qbYl9GyDRs2fCYdGzVqVHs83v5NmXhwBYH8RWQuwlD2Nby6Tm8Ir66gcU0oAopACAJHhEFMjFmdevYOBrZpdXUP1aLCQm/O9H97JcXVvUilrjWIVVSUB3ISSfTIG8jB+5XODqWlJUkbxNp26OwNHTXWGMTeeWmaV1JUvX+J9EN5FIHGjgBeWPMwPNlunmgTNsY4NA+j1JPkxeWcxfEK8RKbzJUyYcKEzih1HQ8dOrThvffe2wUt4eAbt+ZRQa57UDxa9OzZ82TSYmS6hKbaEjcjPov4LBSntfTjlyhafyEfN4jXF0zZPuMO4lgPka0+H800u5d2BqPUX8PqYIlPrxbJ2OG1xoY1MPStxhSHgEHlVBTJB1E2bwDn1+OwH9Zi7rvc/jrtA+MuAcM6lRlLGP1P6Cww+AKDGPKiGsTofwH3bx88GdQ5hr+FD8RjTP5mYvWDv7fvU/4/wkOdrxM9LulEA1uXW2Pc+wVtDscQK38zFYnWVT5FQBFo3AjwrG2ShjCLKvPmQdIv23xjjUXnwGtHFsK+yrN0ELj3IJa+f8z1Ec938RhfXpf9Z87vTns/ReY3aSvkXY+8NPUj5pCvRptD0E16wRd4SsM/XCpJoP99MEh9rTIX/V/4Pk12URN9TXSkp/3LkzPF2EY5FVkX05+xfmtdiG8h/0P6+TyLPT9kgUh0o6ihIfRP+tqDDmT5nVglBi7ug+hvc+ir8VBnHHKfXyUvi7FjhJf0RHTSv8N/KdmQOZZ7NJTyK4QvTjALX8JDe78Bl6g6JX1YyX3/vfByH+Vs3xkka6J0ZYgMCcjoQ5ufVOai/vsyv4cfRy3VAkXgMCIQ8pA8jP2oVdNd8Q5LTa0cimx13Ll1UzV55eVlEY1hhtF9/CT5IpaR3SpoSzzOkgk85LwTTz4zOMdswDEn1OrLmMm0rbyKQEMjgMLyOZOvGLPa8dvPFUWHM7xWu/1AsbmDl/jLhAbPJCbYDcQdyaYLje2GMoGLl8u7TMA3xlodpO5t1D0HvmKue1EAXhQZoqRwvUryVZQVccWXA/evhHeilBP3JvoBVzWDGMrJQHjtCiAsJlS6iFammyOzmlcFdXbOmjXrPfp7Nf3aQxtGKSC+ktXBvlIn2motyk3vStFG6Vhr04nGtHc+7Twn/MT347o/IpYBLlG5TYmPe/9t+ntlon3mPl8E7qKUi6L3HPftwkTr+nzurCKkVGSegawQqxx52RJiqpAeGum3c/Dgwff421nC38sEXgzegLkndToRz+TeXkzfXjICIvyDzN5WPvHaCCwxSRjDZlNvhDDxd3cpRrEnY1bQQkVAEWj0CPBcaLKGMBaIunDcgRgTGjSA2Qc8a83LBc9CmQ++7naA8mqLfFLOM/obPEN/SzLQE/xnsiyknSoX+R8g8/d4p9+GHnAAWrVA+fcgdgsraBGWN1m/zT+SiVju1+lLu88yr4yI9BEjyqRv1XQgqUvZUKInJB0nSB+ujsPjcU87cE+ng2ExvPngfL6t4+uID5B/AAyGwPNt2r+cvOCZSvpCdLhppNdwRQ0NoX+iuwa6If1cKp1Bj3iIPlpj2B+3bdv2vaVLl8o4PeZ7Wah8Xdjg+Qrje4Y51i5+CosEMYjdUJlM7F/4r43DOY9yYxDjN5dJH4bF4Y9bTJuiyMjvImoAk0+jFmqBInCYEWh+mNuvk+Z75A0K5KxfsSxIJ56oenfh4ZV4NTgzOaTfBtl+mUzg4eCt/3yZ13tQ5bOoe7+B5D/z9tdg22Uy7SqvInAYEZhP22dK+75SuxqloDNz6Re5zuY6xe0b+e5u3k/L6uAFXKejQHw3xkv6KHhkq5lUE8WsWvCNUPKS/ySyRvA3eTv8FxD/oRpzJeE6lIdropQJuR3lkQwUSygzhgWUvVswjuziWfNrqSBjJi2eO5dwVT2MpJBAec/KlEnHVPosnxuz+vwG8rciR3Ae1Lp16+sov9flOUrSBttx48Z15bcnX4IahzJ4VSRDJDgF98FPB3kXK9+DSlZ7PwTn1zG8iXJb5vJImt94W9qbHk5385TL76rabwujlPzWn+PFYAXbX8bj6fVfuY9csjr7FC8/U/hNyd9VpBD8djA2J/3bQaC89PzGF3wP43gh2gtbpMaVpggoAo0HAea1JmsIsyjy/DuN9GM231Axz9vv0NafpD1wFCPFOW7b5N2seDa1ZZ55EvoXQgoqM9uRIeeOmkpE8i52PbrDCJ6xZ0Wakyi/imtwZfXo/6JbiPHkd1xGNu1s4/o11zvQRA+4mLnmVtLtSXenjyL3bq7DFqQfNH4isfRhRbSOoOuJQeUHYHQrWF1B+keMK2379u3hRqRoIupV/wRX0U1tWMrcPJUxmcU0+vkE83SIcZD7PAOe38NjDVhiCAwZC/UOQttrhcaI29gy6uxHZrnNh8eU7bY09IK99PsZ8qE/YMsQI0aOeIQYfZ5YFp5fjMEuRfIb1KAINEoEmrxBTM7watkmx4BbWlLsRdouGQ/5ivKqd51mzVLjsQfl6S0yAu8uIR5M0kNM6qz85GOva588voKZIS++3uCRJ3nzZ8R8b5JqGhSBJokAE+b7/M7tBHoTRqjroY2GFnUypvwjip/G4HCIQQ8h/SUuUSZbUfY3lKMPUSw+CweE8q6WRnqrTUeLUbYWU3YxRof+nB1iVoKj8daWjuFEXNp30y8x1Mkq50Xk16Ew3RwuG2VF3PBNAIO1fjLhSAwYKMniLfdXqYS8O8aOHfvku+++uz1hIQ3LGPW3UBfdwMtqHlgYQytYfIjMh2oqF2PVdcgaS/2xxJfwW+wN3tUMYjWVH16PVe4NtDGBfr9GeyMpzyJ+id/sSZRVM3hRZn47/J2UUJ70b5rV7Ac7dep0FXLyaKsr7d5GfEt4vzSvCCgCjRcB/v6bvCHMostY6u35atuIEpdGoVcj87wUY5icXSrPaBuW0Pc7oL2LrrGN53guRp1ToX0H2iSfaTLPWFkcu9hWsrHcQ/gKbN6Ps908+tTPyP/Ep5WhL9zDR37unjt37n6H7170gfa0I0YxCcdXRqH/8vGWpzp06PCepdL+92n/SsmTvo/0X2xZtJj2E9IxwCHQ1ZAdV1djjhVd8OGhQ4c+Qh/7Wo+raP2wdGTXq/7JeDuAq21uPRg9LBnaXUnZd22BG6Nr3sb5Yt+EJvfyHH4XzRlf8Fsj/TL0ypdct2JYGv1RtmWOEzJtdfQxCuOqnvW9A2UxNulAX7tz7zb4FTeiv1b73SYtVCsoAocJgSZvEMsbXvUsb56W7rVp38HbtW1zUnDKdkobnIeZJUWNMxzvsLKyUq+4Bl+iLC0u9lYu+cgbcoK8U+FewtcyW+W0M1+4jNqwFigCTRABJs/edFsuE5i8zR8vsSWJ4iBGqTe55IwNs7JGOh0FUlY8zR8q7vV34Zr+AuWjuNKYkMWgIavGIQFZXaxszo+Iq2TZyuJab9PhMR5F9yDzn2F0cYk3Y6HNX1L2Sli5jKvaCh/Kw19QYEUJul/4kXETSs1q6CHeadB7WHk8n6oZPWxZrBgD3KO0JauQx3G1zsjIkJXKu2LVOVLLwFPw/q0/vh9xvsufZRttsuPl99wSWTfYeqRlu4so6tUC9J3wj+H+BdoyTAOo83dh5vchv88LJB0e2DL5iUtD1g7OrTud7cMfQO/L1RGviVfxSBjjK7eGXTwUSNgXpvWko64YmwoR/pEXjc6dO4uR9nkppr/XjRgx4heN7iuXEfquJEXgaEeA58oRYwiz95Ln3z94lj5t8w0V027wosC5n79hMeRvbts8g3/L89EYBIgDTyDuQQn529Ed7kWGa+jYQf2nMOo8x6LDU/CcL/KIL2KunoLO87YrH73gJDcvafjEQCaLIinoDqIHyRwv84kYwC5h3n9V8uEB9n9DMwYx0t3DyyXvP+M/tWXIP2jTxJ/Sv6DModcoSR9cz6qEdTXfEPZZIo3ym+kNn1wm0Gad65/I7OjIH0Ta6G7cj5u49wdsmRvPmzdvH9i+S13RYduhIkwkfsvlaWRpUdgrGlmftDuKQK0RaNIGsS69+wXeYRaJdh07RTSIZWa39Eafdo5lC4nFiGbDgGNP9HoPHm6zIXFx0SHv43dmBLT0jIwgXXTQnSsCckKJDWyT7DVwmJfdqrXh79a3v/fZR/MSqqtMikBjRgAlpDsT/UVccnj96Ah9PYiy8BrXdFYyX2Ml01iz/a/ynEGdVlzDWNH8OsqdUUDlS3l4xHwbo9hC5ImB4VQUw06y6urIF3onm2fFLGEly9aJFIuHDnS7IiYsoogGBivaeRbFR/qVUKDPci6GKGaXSwXG+hBjXc9YpzsCgnGgVG906Mkk6Vr5zShb5gFGO9JeozSI8Vuge6Jz1U9g5fuPrCrLy4CcZdetR48el2IQM7+tZFoEy5vgb+/X+Zh7aYxbUWRU8Lt43y3jvotx0gT6MY/679p8vFg+LMHfwHn8DcgKfjb1B+KR8AIvV6fZ1XJe0ILfDTw1/d149OsF+joHGeOlrfbt24vh7nEuDYqAItAIEeAZesQZwlyYXcOSS2+otH+Yf4jSz7wtHt8hXeA+lHBdhDHrxZACJyPPa+Yj2cYoXr+n+EW/Ih7jsEVLlvgFch6YNYZtos2z0SEWRasEb6ktgzfYPmdpUeLgRYk6+VF4AjK6X0ZRUVEWHtlisJOFGXlhKoWWH+6djrxg8RLeOtHVpCMNrX8yDtm5IE1LmFgZecu4F//x09Gidygwi7rUlxfQt6IxHg46Oq7o8JfStvStN+PcTH4ROmX44vDh6J62qQjUCQJN1iAmD528YcH7REJgtO3gvh9ErpLdug1L6sFW7BAm2ZLphjS2OdpQVAPvMFuXh4u3ec3nXv8RIw2pS69+3vKP58sqj2XRWBFokgjgvSXGIWs0qDYGzi84VQ6bDy+YP3/+ThRMccv/qZShLN5OFBgtMEwtYZIWF3GjdDAxD6I8MIixJTCXMvN84+9oj+s5I/LqKmCUkEPRjaJIO4XIDfHmCW+HPsv2iBuEjnHrChT7OcRXgdMQSCdwUVy1yih8yJWxSFJc4YMxGkIS/6CUvYVhYz1VenL1RVkcL+0nIaKuWHO4tz+IJoyxGrd/v3xcLF54EnlpCGlKVr65D3Juh/ymBPAbicSYlfAD11e0b5b6ErhH3ycqN5kE/6HO6fa+UmV+vGr0eSn8zam3kBesS+RvgPv5DepN8+vmcj5cqp+WKNdJ1/h3IzL43f2dv0ExiAlelxOpQUzA0KAINCIEeDYc0YawcKj5QAzfpGnzi3B6XeQFS+bM2xKVxXMxK4y3HJp89CSqMczyi4GPZ/ld5K1B7CSe972ou87yRImrXkJgoM87WFg8Wc6bjMJvyDzPW/E8tyyJzg2BQYz6221liZkPj0Xe9SS7c3Vj3N2I28hHkMID3umPQvumS4ff9RBb7ZbVJt3Q+ifjCDzE6Ld5QeWe/Jp0PN0iWAwD23a1GXNd1uW+5nJf/8a4prpyyct9lq+Ynu3SNa0INGUEmqxBTA6iF+NVMuHA3j0R2VtkZnlp6elBWTS+cKNXenqLoE5NtksGlUlsXbcmMIi1yMz0crt09/I3u44oLremFYEmg4AYu+RLj4eYRKcz2f+LSfQr0MTLxMOLRbyjqhnEpGzfvn335uTkfI3ka1wPC80NyFtJfqJPG0g8y5bjLdPVpokXOWmTRPmUT01LHflqZCvi5cSLUEw3hvPGyuOh427V/EgU21j8lIlVfoDPkyMxdQ6heJwPLtPJ/hgl+FW/3ESMMzAoHjp0KEQRdfkSSDPEimeQJ55NYmQUw8bhMIhl0fbvEuivGF8myJUIbzI84PgQivlNyM7gGoLR7Sxefl5JVAaK9t3wGm0fTJ/lnskKb8KB+92cdifbChhF59t0tFj66Zfttzx4bz3Lb/nn9GEgf1tX4DkmRlkT4A9+NxBq87vx2HL8PCv9f0BOOnKnYAju4XtLVjam/yoCisBhQ4C//6PKEGaBZtuiePkazyhLq6sYuXuRlbBBDN6ebtvckzuYF15wabHSPMtn8yz/AJ4ThY/2zyT6k6QjBeaQztBbOGUHmQOmxjOGCT+yK7ejVFZO1CAWGK2Y/8LnE9kJEGLkcvoVnnQXbUwZdQN9jbkwRF/D6zmdbft5jG0QekMfYvFoWwS+S0V3ChcelhfdsiH1TxdXGefB9evX/yusT9WyjH+rQ3TnbUPmXl/K2Ic5PJGSeZYI7y8wqJbYvBvT1iJ+a0+5tGhp7vOjlBmjF3gL1k8Sy9loQ7jGkQ92R5DWoAg0aQSapEFMzu7qN9wY3xMGX74AOWf6vyPyDzxulNfH3ya5Zd1qb9HctyPyhRObNa+Cr4SzwGoTCvbv9fbxdcnWbSufhR2791KDWG0A1bqNAgGUm4eZOKdxDtILclaCdIqJWtzjL5A0k+toomrGLiljW4IopP0kHS8gL1juFF7yQT3SRsHC6CFfc7yBNmUiz4FuxNpYMvRtB+W/wjjyANlywxD7H9cgFteoEU0Uit1Gyo6JVE5/5KwqU4TnnCiDNQ7IkrNKjEEMIRdxfYcrkXHWuE2pyDbFcs5J+Yy2qynD4YLpo/w+Wvr0XcQ7w3ki5akXrqQbNpRJ80XJ8Dq0UQQtQ+j8Lu7m3geGN8qGO/zHUfa/Tj6Ttr4KjyERl4WVGzo8r/E7muXUC5LUkd+9UZ7hk9XjD4PCJBMotz+NVAWxFkP5e6jV70Y8LHlZ+y/tnMPVDEX5QuL7IrWrNEVAEWgYBPgbPyoNYRZdDiTfhYfYH8Gh8mFsC+ogZk4w+koiojjXVOasYP6gzgyMYb9MpK7Lg7HnJdo1BjHoo7iiGsTgO9+pWwYGX0aPeN+hRU3C627ti2sQ8xdw+otA6lbs2LFja5hw0ZsOgMEW4s2UbSG9mfHsIF1AXwugy/EY0s/1YXVFZj/4DZldA4vkyAyMnd+l3mUQ+3KlkjblNiYj8+4s2pAvRcviaLVwGPTPkBdBxjUrkfNJ4dtrx09czSDGmEXf+EK1AUYhwHtjlCLBWoy0T0Urt3T05W+Rtsawbcg8HV1jsS3na92tWCSbDt3+7kXfkJsYzxvOitBYEWhUCFRZdBpVt2J3Rr7E2Lx5mmHanb/N27drB2dwDY1dKUbpoYMFQWkyXmepqVXwlZeVBTJqmhBjnDWItWlX7ZlYU7FaTxE4bAigqIh3V0hASZmHZ5ihMZmKYaCmYYStiFL0iU1LjNxTbB4FoBDFaSa0SX6ZLaoWwyPbE++F/zy2HlyGIaCa8mYrcbC5GEbGw29I9CFhDyMrI8E40+cTZatWxisMNAsY2yr6LAqobF3sD215gv2oMZuck8I1OBEB9Om79M0YScH397xY/CSRetF4kHUO11XRyn36cHhcI5jLLuez/NglhKXlfLwwksnKiuqsSAXQTnfo7/J3Etl92WFKNokSbX83suWxMNn6EfifhiYGMfn7kpc1DYqAInAYEOC5eFQbwizk/qLZ1TZ/uGI80mV+qLTYkOB5K4tjSRsGuK+r7RhId7bpCLFMONdYOrxrmSdfsvl4Mc/vjg7PNicdMcl4+rMI0kIKqbs2/KMqviGuVcTKcYgstIi3vnmBI96EkeVyLjEmZsepKl/nPpl+LUJnuBk95vfh/IdB/wyZZ+nf6+F9ipQH372Mwxa1swknFoNiiGynzCRpK5jvIRTBH1FXhK/qhTdciJNHf/iizVLnO64xTOjy5VJ0ya+QlMVcCR25D2O5D3Mrs/qvItC0EKiy6DSRfud27e516tHb9LastNRb8v47Xs/+g2vV+8ID+4P6Wf7B9gEhRqKivOp54265jFElZtHu7VWLLi350mQKKyJuGzEra6Ei0EQQOHDgwEJWdWULZQaTdn/5Gp54oCTTfVYsB8EfGMT279+/JKx+YHCgnR+5ZbQ5n+sxJvxlbAVbSSyKq5wFdh7pK4SX9ESU3GdIjuWq+kOXQj9kZmbKdr4MySJvB8rX27asjmOzDZM20mT7gD00vRZtzKZuP7/+SOJ6N4gl01fuQWBdAt+kXyrC20LGFmjBi0Z4eXgenLva+xpWlrAMqYec/LD6QZYxnmYztDXNpus4Drbv0ka8l4u4TTOe2cgxfMTyu9GgCCgCDYgAf4NqCAvDG13AHD0QRq51Ft2gTF764wli+/hg7oss4sRjjVuOUSRYgENeh2gVMERcSPnQaOUJ0Ds5PHENYixgDrP8jDVc17JFNY1PYywGPKJuCLnfCqItwf8x4pnEK/EI3IjnWG/mzxPI38rVk0uOYHgYTNZgFHyVfMxQn/on/Q8xWmHoei1mZyIXVpurGdfFkVmrqIxfztSV3Q9yPm0O+qgsyNUmHCeVwb4whrFV7pcbxECmBjEXEU03GQSanEFMtkvasGLRh97B/Ql7Ndtq1WLZrmiDeJ7JmWJFhQctKWpcVFT17HP7FbVCnIL9e3bLw0dexmULj9cqpy3ebwntFoojWYsVgcaDAKu6JawKfkyPxvBbT+EcrlGkX0+0h+KZheIoxqp0qcPfzBv+SrERgYFNPHqswcfQ/H9eRFG421/NdOmSllWul1EqXiT+B/Xl65ajyV+DMvCQMEQIrlHjOcpr7yYaoRH6sR1yL+IUvvAnCsiaCGzJkBZZZkQeT/qfNl8fMauGN/A8u0hk85JxlRwGX9ft8Hv6ITLPE7koobJaHChl3L+7IMsVN8g2AM4WewfGY11mfmPy0nA6sla59Jqk5SBo6slvXn67YvB7VtJ1HRC9nftrxBL3qK18xr6Ov4c9yMpBdt7o0aNb223QtZWt9RUBRSA6Avy9qSEsAjw8j2ReXBuhqNYk5ixZpIvkrRMiG/3lPgh18i6FftLGegpxz0tCGvIzGAClrZ9FKkuCFhjEaCeuQQyMXe/pxUm0E5eV9t2Pyxh+aPkkfoUB7G8R5hh5KVoADk+D1aOkz+WS96aH0Q2HuudoCj081LP+6RqhDibqfY/O0sHed8YhRsDGENpLJ+iPLAhH021Hux2FVxaqNSgCTRKBOnmIN+TIN65cjtdUhde+c1dv3fKlddL0QTzExBNLPLIkZLfOScggVlzoGMSyqwx1Ne1UWWmJJ95q1kutdbtcNYjVFEyt16gRQOGZx+Q5RjqJ4imTaohBDGUnF5pMrlt37dq1BW+sVNzoO6F8fgHajVzmBR85B1Am/od8EPDsOj3IVCaKiL6Hy/efwujVsrz0v4QB53b69oBf+CPih8IZR4wYIX/wX7N0+iAGuvoKgcLKSq2Mu1YGMcbmGsRG1lenHbkDSdt7bZQsp6xOkvwOBtvfEwI71UQohqo0fmP/pm6IMUxkIVtk/pff5TgMqluFVtPAlyDFCzFV6iN3Lr/LTTWVFade8LsBn1obxPy25GVoIv1O4Qtix5GeFacPWqwIKAI1RADn5QL03Z+nFDa7L+fuT8RAo8FBgHk3xRoSHHJdJStXE2JIwyA3leIzYrAkVYQulOdUCJ7fDk3mDPFGq63hoauVydwQsR1bLjE8w2jTkEgvcctqmRahwcKiyEK+LGZdgi4Wc15kHt6DHnZpbm6unE3anTp90BNFJ3uEK2agjfrSP8VYZ0PM/lsmifkNd3Tym5304UzKXC96WzYLjlPQU952OyMLYuTFS88Nsbb5unyaVgQaHQJNziAmCG5avcJcdYWmGMP2cg5ZTm7lM6l9py7erm3xn0nuVydbZMY2iI0YO9mTL1GuXrrIKy5yFxFCR7Fvz67AIJbdqk1ooeYUgSMEARTZ960ii3IiBrGQgIIzFuXwRSF26BB55wD1CpHzHRSjtSGVnfOZ4NlB2RkoVx+F8UTNsqr3MArAtTD0px/d5IBXDrN3FR0PJexmyuzkv5o6M6MKrGUBY9wGFkYK4xHFL2LwD6K9Hp6HwETGHTHwgYNF9nPo8A6LyHQYifQJaCuVb8YuHlT1HsTAyRdNn6KhEOU8rOG+3IeZGMXOA9/PwsoSysr2YMZ2u2VmrH+16bqOkR286NBm1N+NtMuYvg5PPr/jV2L1A56FlE8UHrCQ384sSWtQBBSBukeg7U9RGCN8JbnuW2qaEmXux6u3GwsZlRNGHQ4Db+biWOLk+ALK743FU4My17O92sILHlDyVc07fbl7iWv6kmC2ujFHlIJhiG4Tqc+0Geho1KkzDzH0rOG0Z/UoafrPzPnX0KfSSP0Ip8lZZhglxSjzuF82NJwnUp426kX/BJsNYGWbTNggRgVZNDQBGVtsOlosX3lGf+5L+dYNGzasTeTg/miyotHpx5uMxSxkwvMXdIQLuC8y/3u0P5zFacFc7p14kBkFFf7IyjoMGhSBxo5AkzSI1QeoO7ZsCgxiXXr39T5fvCBuM/LlShvkhVW2TboH9Nuyth06e117V85z3fsN8GZMe8IWVYsL9u4JPmTbPE3mWw2KwBGJwDxnVGb7mJOXl+14P/7XOPT+Gs4eW+3W89Pmj40JXcLXeclP2Bjm1y8jns3VX/IYj0RpmylpCf4XpW6qzJkVzbtJS50gCA/eXMejIIhRLZ1+bEcJ20halJikAnUCjzDSUT19WrVqdSOCb6GtG1BevojyMjNSQ2wp2IUSKV8N6sTVNhLP0URDKRfvr5e5TvDHLV/CegVspkqe9BtEbciP4hrIb3M+dS5nxfQFnz/hiBc3MYYZzJG7bu/evf8Iq9yMeyftDIAu24H2wLeJeGMYX9ws5+ptw8h3EMYsZIhBTDT1agZGMaQypv+jjZaM62XGZcYdqQHkLIPPFJE+6n87kTBSmiKgCDQcApzztbnhWqtqia8m/4BnofHo8p/R71N6QRVHjVJDbC1kiryQgAfUXbRp54//JX0XDC1CmBLIUM94iBHLcQzV5gRXhJyRRt7w06d81Irlbrmk5VB75pA1zB3PhpfFyiNPPu5jWEjPTcYYZuXyVcqZGGdMFlmBYcmWR4nrRf9kDIFBjHQyv0uzyOT3dW2UPjdDb7uKsrsYZ2B46tWrVzmX6Ac9o9SrEZl78Uvu6RdpawQC+pL+iPbXkc6EJjqTCYzzRfLnS4a0/J40KAJNEoGjziAm2yJbtWnrtW6f67XN7WSMYFvXr/HyN2/w8oYfZ25iVsvWXuV2xahOFoZPPL7kC5fCK6Fb3/7eqk+MAd3k7T9WruR3bott/He9x+rioH7bB40VgcaEAErVWl6+ZfLsyGSay0TbDy+uVbaPRUVFb6LknEmZGIDkZb4d13omafHM+Yz6K4kjBngmMXnfR90NyIzp8RJRAEQm9vXUN8XEIe6f9OtnFBgafBu3bdv2mJUjxoWWLVveQR1RXNItXWRZjzhLo499bDpO/Crlv/B5RPG4J5xf2qUv1/p9zkD25+E8Yfl88qLUpGKAaQmeB8LKj4qsfyCyGL96+wMu5vfzFfKp5I1hiPQ+vOq+zMvI26RHcLUC6+f4zf6S39cd8MkKadxAW3K/r3UY75HzTGyel4qzkX0PV8gqN3nLYuOcRD5EIbLpo6zyTuXK5D6fwX1+zQqxMYcUy4tdSz+/3tIjxYw73+lPTiQepSkCioAiUN8IyBZ3DP7/wzOp2gOyrtpG9i4W1P4ZLg+vNDEQ3ebQb4f3ZOfZ6BQllpw0adKJcE6x3Mh606YllnJoV/u0DcxTD6BT3OXyJJIGtyz4Wvu82+LVYWHvFIdnBukQAxpzjBhzRCdJYQ57GLzcOc6pWj3J/Pk8dc5BX7mD8XyZ+am0OldsCmeSbkKXLIMrlXvQMTZ3ZSnt1Iv+SfvraGEnsSxkLUikL8LD+IP7zkLvO5HqgfPT3P8LI5Q1gxZiDEPe08z3tzHOTyLwJ0Si7iF0lnO4/3+k3f9v717g7ZjuBY7PSUSkQqLiWSqIlj5UtfUIt95Ug1Z9ym2DW2+t0lZfrira+rT39oGietGqUpcrRZGIV6lHQpAKQYl4hiDeQt7nnPv7T/ba5pzs88w5yTlnfvP5TGZmzZo1a31nsmed/8ye/XnGOjYcnjamfXGsYl2cp3lAjOn9ab1TBXqbQJ8OiMUL8tMwaOXB2baf+0IeDOv33s/b5qsHDhqUvfnaK9nCBfOzASsOzNPW2WCjPNiVtt9ws49n6/CUV7zE/5F77yLvgnzVrBdmVANi8WuXTz36UJNfhhy6xlr5+85SOc8+9kiarTktBsR8QqwmkYl9RIAL6iQupukpnK1p1pOpaZVfnbwxLXdkyoWcxyyzQzqyTfO81GublFbs2NB5+yjrqmWz7lfpVx/jhew8ARQBiE+kbZk2kOct0lYrpOWzpJ1FJyd+LerU5u9nKOal0/gAHb642xi/fhgv+h9J2sRinkpQY5VK2hjWv1Bc33yecl5NaXSe4msX1YAY+4pgXnRQd6Nz2/oHViqka6fR8coH6tmk853Su2LKsfwqbT+XstLXTt6mzfvT5hsx/nJxH/FUHU/97cr76a4ifXvqFXU8CattOL6H4/1sMX+teQKpvyA9BUlffO655y5M+ajLlyjyr5Vy82TKnc3MSqS9dyEjgeWNOc+eZpvfkueMyvmeimoyZf1Y8uf/x2jr8axsEhCrfAXn2NiIvI10xn/bpIAlF6rnDauS25K5TFFAAQW6UYAntyMgH0+2duNesmcofImAGD+88kvSB1d2/ACf/xdzzdi5stypCcGtuBmSN4aP4nuL1/D4eibr43oRN2riVwR/HAELrj8d3hc3dtYubNRmQIwq7VrIf1NhPs3+LtWba8w1KbG9U66348gbY6cGroOfYcPchenz7S0E4y7vf3JMIiA0rL11iHzUfxSTjSrbzKTvO60yX52Q50iMUzBsPitO5xy4CW+6LA3rcG7sTnv2J09+TjLdh7S9OCUv5Qm6UwgaPl0trAMzbDeD7KPi3Kb8rSl3M8Z4Vcl0vlJ8ZXxDg3PwN6lI1kX7HRTolQJ9MiC22ae2ydb64IbZSvxaZHEYUnmSq5i2KF5kH1995Me+XntpZrY228UQwa8nHpzML5bFjQe+c7IKT42ttno+Pnrfe3+LznrhueqTZfHrlOtusHH2wtPvPZyxSeWpsyjj7Tdey16f9WLMtjgsLLxfzIBYi0yu6AMCXDzjKwHpj/UIiC3R8VwezYw7qFz8d6R+ESR4kk7OS6kepP2K+bzzxbrHGc9P6+gkn8R8HgwjPV70+uu5c+deN3HixFkReKAjuilpEWw6OG3D8meZv5VORXQIDyMwVquDGkGhsYxHMkZAJAIb1Q+hYlAj1tNROjOmrQ3U71XKybMwjcBGHkCj3/Nt5s+IFXS2ruXJs62avz8t1vXmIV4Gy1N8EQgbndqBx6MEg/at1RlNee68885XODd25qX4Z2MTxzGG+GPhYdxO5A+Y3zHfEInNBzq0cX4fkNLZ34npvR/cyR3GMbiIMf0xdA7rL+cPhbtZ148O7UYE0zZln5exfbqoDWH5ZPIdx7lzLOfNX1LZxSltGkvwrDHKZtiN8j7G+fxwysM5GU+HrVJZHt9a+yt5Xk3bMjUgVsBwVgEFlo8An4ML+Rx7pCv2Tln9KCu+JlZz4DN0e1ZUrx1cb+N6XPNzv2YBNRIpcy/2uVNaRR0i4FYd1lxzzR+x/mOVhKl8hl9SXdnBGQIlaxU2mVWYrzUbfZ0d0wqe3G8SEIsn01O9qPNkroE3p7zLasp1MAJKaXjvj6+U0sKUeveE/mecaz9OVcRwTJovTslT7TsQjBpN3+DK4nrm/48+yAZMdymkR9kH0Xc4gHXn84udP6rxi52F7C3PclxvZW2MTYbo11DnY9lPnk7dDIg1EXKhNwn0yYBYBKaaB8PioDTU12fvvPUGL9B/jae/XuGpsFez2bzEPoJhMbz47FPVgFhs/8EPbZY989jivx1WHLhSnif+iSfJ0hBfmYxfqXzf4MV/U2z4kc3zciKQFk+Zrb72B1LW/IX61YUWZopPiDV7MrmFLUxWoHcKcPGcRGcmrzwX1QgY9ISh/5AhQ+Ix8Pw/PNO7UqW4+O/C8p6VZT5O6g+5/fbb56X1tCHu0EUQbR5BjN0rd9fy1fGEETMTCV7E3cyDK9u8xnT1yvwotptKx/hQOrsR/GoysK8xdGTzgBgrvki+EeSbHpkIapzGflNQ4xbqdF+TjWsssK/Xoq4xMD84ZeGYXMQxia9ebkzaRgSOrmBf8VW7eDy+1w8cw+1oWwSPhqfG0P4raPdhBIPeSWktTStfcTya4/gA251NWQMYwy+e9vv3KAerx5pvT54IpOYD242nf3lRZTEm27A+Hb9zWXdsWkdZ8YdW3DGeRvkLyJcHxCgjApoRSIunJC5h3ed5H9nXqd9baduYxvt1WBfB0+1imXPo+0z+I+ZJj2P8rZinPH5bpuEXMd/aQLY4Z9NQPW9SglMFFFBgOQg8xE2BT3fFfuNprLXXXvu9Tn6zQrk+ficl8Xn4Nz6j/5GWOzPlmhRP/xSfzJ1KwOPqVBbX38Gsj8/tfOBz+j+ZietCpwauAcPShtT/lTRfa8q+tyU9v/FB3oebv6+t8kvD+abUcYnrXq0yuzINuwjIRH8lv4YxvbC95eO43PufXINPp85535d2LKROv65V/0Kel2sEw9ImxSfJDyIxArWfZFyR7b9JX253+i378v/k0bTB0kw5N4ZS7uWM+X6p/3XUbdLSlOm2CixPgcV/jS7PGnTDvuMprPlz5/K+rpl5QGvq3XdkE66/Orv5ij9nE2+4Jv/K44zpj2ezeWKLT9FqDV6e8QwBszeryxt/bIts4EqD8uV4YX4Mi/jhGf7j5/Ppn+J7wwYPGZptPnKH7P1rrpN95DP53yB5tnhHWbyrrK3hbYJ1995yfXbfrTdkD/PVTAcF+qoA72WKwE3eseOiukXlV5uWW3NHjBgxkA7KGOoSnYkY5hPYOm/xbB40eJf/++kJrjMJPN2d1jHtz3bDK8uPF4NhlbR8QocnPeETT3J9jfL2YcWMWMn2a9BZvY5O3kfzzIV/6HPfwmLaH9n6XxVPOpF3P7b7emSlrLmUmc8XNq05y+PuvyT/51m5M3V6KGViP2/S5n1ZnhNplB3vRWnzibO0fVdMqdfiSN3iwpp+2HZyBxzXDRgv5o+ZO2jP8CiG/cxm/AYBqANod5vBsNgmDXQqz8NtK5anpDTKHclxeZBO53m84yt9BSJfzbqnKvnia5kpsJknUactUhlMby7MF2fjWj0wEqjzZJ48/DDl/DFloPyvEMj9Q1ouTsn/s8LywTgcUnmPzKVsl4Jaf8CgzQsOeV6mvD0ob3f2Hx1uBwUUUKA0Anz2HsFn4NWMEcCoBqo6ChCvWOCz+H/5/D+Pz+F0x30OZX6FsqoBr7g2cV3fhbSn2eedBB3GdXRfzfKnz/xIXrO4jvpsWXnXZZ7M9eyItJ59X5vmC9PidXNnrnsfLKzr1lnqGn2TWxhXq+xofEeCPcuz/zly5Mg1qf751D2/IVWp/zkc6+droWG/INIr50mxf1TMXrXnfPlHBIjZ7hAyvFjJ9CGWJ7HfLxc36sw8wbARnBvXUZ/hle1nct4e2pmy3EaBniKwQk+pSFfW47lp/8pi7Mww7cH7sy0/u2u+abxPbPPtdsym3HVbNpgX8cewYP78fFr8ZyZfkVx/xIerv1IZX7tMX72MfIsWLiQIN6G4SavzbX2tstWNXalALxGIx7e5OMev1kUAaCC/2rQF7+O6d1lXv3Jx/wL7PYZxw9g/HYcIxBxUDHrRWbmHYMcnSD+RztRJka8wxC8Tvkxb1iJtg+jscjc13gHVZGD9jimBDsVzdFoeYv930yn+K+t2oIw76PDWvIPHum+z7V3kiztyH+eO3wzS0pNF0Vk6lTpOT+W3No13P7A+xiUGgnlTaedhrLgsVlK3YzhOEwgc5ctLbNCBBOq4E2WlDmzNLWlT8esqW5I/AnRtDRvXyhBfJ+Uu9o9YF8d2YMrDPsYT+DuqpcBlytfaFOspHLvP4HMC7YqvPaxYGY/ka4qHYXg5gcefsI8nOM5fox1/Z/08tmve6X017YdO5ceZ/1taTlNeqBzv71h8d4Yfl6g8cXg4Zd5O+gXki7b9PuUvTjmfbqQu15AW53gMf+Rl1GcyXTVfosPMfn9QmW9r0sh50ORrM21t4HoFFFCgrwhUPnu/xGfqR9p7vU1tj2249kRwa1c+t3dkmj6DI0vccDuEz+tHYqE4RD+EG2Bb8DR4MX8xS0fmny1k/hzXsNHU5R3GA0nfj5eox7Xh+Lh2Up/01Ht87f7CwnZpdgp54odW1iBhHa578UuEV7F8K0GZV1n3FuM8lleivzOI+WFcL6OPtS7XxO+mQto73XzzzVdeY401RlJOBOr2pdz8b1iWn+UaFtf4dg/Lo/+JKYdwUNxI+iF1r/bdqP9trV2DyTuZbeIP0yGcQz/B7ifM1zPmA2n/xszwWKCsRXy19TVmG7hWX8TNr6u5WXYZZezJGMHQK7iR+l3Os9Mjf0cGyhrAKyO+Rzkns10K4jYwfyD/F6r9mI6UaV4FeopA/mHSUyrT1fVYf8Sm2SpDW/3bq8ku40/gJ6ZOzmY+PT1bd8MR+brV11o322W/0dV87xaeIEuJfABlD064Ldt6t72y9CRZWhfTJwiyzZvzbjHJeQUUQIAL6yQmERCLIR4d7/KAGB2+4XTGtuf/aXTIBrHP6Oitx3R9xi3YZ5O7pFER1keHYUzMFwc6Ii+zXLyrV1x9NwtfpMyhdAyvodPxfcr4J2mN1GEYdfhP5nevbLDgzTffzKP20ZGgo7EbQYrT2G90Oms+FUXn5l7K/Dbl/65SxqrMV2azB+iAdriDkzZuPqWdl9PJ2on09DTTedw5vj+CO83zdmSZznB0pFodCm2K82MfMsfYqYFg2D1suEnaGN8XKPMELP+S0pZmyrFbxPancXz/RtvOpOz4YyeG/oyjSRvPNDdjn5fEiuYDdbo7tZn8J/EHxRt0aP9cCaj2Y3lHtjmfMR/IOyXNR5mcE9NI+xzzt6b05lMCuIfSEZ9AvniPXZw0q6Y8dMS/STveTMtOFVBAgV4msDGfkzVvCHSiHfHZ3ebANbLmjauWNqR+p7Eu3gW2RBauAbfzvsdDKzeqllgfCZX3P71dc2UHErlMTOLa/jqbvJ+6xFPpTa6F1CWut8dz7TyEaQp6xOXlyea74boxj3ZFIC36SnFNiXeKRbDqCMpl0nQotp0+zwnFX1lOObme7UO+eJVE7HtlxnUZ12eMp643Z1yhWA71fYZr2E7U5RnWdWignO7uf9bRbxrBdX0rPLairvFE/weKlSTtEup/XKUvUVxVnWf9ZZSxayXhxxy/Y9juBsp6lummjBHsylcznUrQdm7auPIahb05Tr9i3XdIjwDW82l9W1P6Nluw3UjGbRl3IH8cizTEk2HfoJ97W0pwqkBvFViht1a8PfX+wEabVJ/aak/+yDPjyceyR3hp/sp89bHWS/jzd47VKCxezH/PTWOzT++8RzZ41aHVHNOn/jN7dlqHrpvVbZ1RoK8LcDGN9zjkj1pzsd2a9p7d1W2mIxLvFrmE8iPAkhefps33RcdiAmkncn2/o/m6tpbZNp4U+iz5oqO5E+P9dEIWMo3OSXQWqwN5Tyl2BivzP6xmaGGGep1LmXNYfQHl5p/flDWZ+VGtdahaKK7V5Hnz5n2PwN4elL0B4yrcOb6MDcKy1wzY/Jy6/4npC1T6v/hlxwvSy+y7shHYP0x5u3Js4vj/lH3uwD7Hk35pW/vhmMbXLM8l3zcY430fZ/MDDWeTFnfX38fygFQGy8/z1Nnv03JM2T469TG2OMRTDbwAeXueKhxHefH/LIZ6xmPY/qp8yX8UUECBXijAZ1p0uo/uyVXns/te6tmkiqTFHwf/Q7DpHKY1b4Q12aBrFurpd51Dv+vk5sVRn/GknRrpzB+d6kv+CyKt1kDdb+KJ+PX4BebDyX8c4/Ba+Zqn0S+LPlE8ydRkYPu4ZqebpE3WFReoX7zy4Axu9vymsy+L787+J9fvy6nf7rSl+lQG88UmTGP91yPSWEysNc81+kIChVtxzI6qrI8+5ldjvlgm5c2jTdGPaD7Us5vj6Z9MZUV/yruieYaWljlOt7AuApTVgf3EE4MXcFP3B5WAW3WdMwr0VoE+HRCLl+h3dGisb8jq+eXJybfdmG25w25NAmr1ixZlzz/5eItFzpvzTv6usqHD1swGvW9w9sarL2dzeeG+gwIK1BbgAh9P8OQD19hN03xXTil3ZrHTkMomPV6I/xTjNMZb6UhEAGN6Wt/RKZ2Mx7mbtgcdiLPYdtvYnv1GMKMa0GD+Lcaz6Jz8N9NODWx7Ee+guJ6gyQ60YRbjhK4OhkXF4gklOmGHMXsz4yLacn2kL82A8V7U9/alKaPWtpxH8R6WvINYXB9WdAJnEgi7vTsCYcV9xTz7i0DqjhEYI3CVPxnWPE+tZZ42OI5t3mBd/EGRvkoxhPli9rvwOzZ+7bKY2N75yq+Fbsc5Gl/z3JDt7qC+L7R3e/MpoIACPVGAa8psPitrveOqM9WNv4sO6MyGrW3DE2C3cc2+h7pOYryDr+zzUd65z/LW9tOedfRVTiFgcwv12Jn8A7iu/IvpZPoR6cX4ceH5A+OR5Fn1lVdeuZr5FofK08xnkOEsri+bcH2Jp/BXY7oa06GMDRyfuTGyrxdJf6yVX6+eSTlLBMQo4yXSn6SMyczfwLvc/lF8EqrFyrWygnp0W/+TOkbQqhoMq1RjDukTGMfPmDHj3I70SThmR2M7lv5l/Lr0Jym7+vc7y/GV1yuxPZNjWH2CvHnTud7/qXlaO5avIU/ctI73Bf2TMb4JcSV9lolMHRToMwLV/1C9uUV8CFSrX5y/n6BWvxqP7VYzN5vhQyUPhkVy/NrjpFvGZcP4lchh666X8RNc+a9Hxi9KtjZEvjdmvZTFXzYOCijQugAX1UcIBHyVzuEUvo7XcrS59WJaXcuv703h64g78/97Pp8Pc9jXHDoPs+mMRgerS+/K0hm5nzJH0qZ4xPyTzG/EfusYn6fz9RxPXd1Y691irTagxsqJEyfOInlMjVVdmkQn7O8Exb7J1zHv5PjE3cXODLemz2XKeZRy3ulMIa1tQx3HYZx/ODONAGd1oBN4U3WhnTOUER34PHfMt3OzarZKYKy63I6ZuIN7Eu8YOZ2vNu7BPuNrFmszjeDX8/hNqZxb7Siq1Sz1lBN/BFT/EGg1tysVUECBHihAYGAu1bqBz8h+TB+lL/GdLqpmf67fcVMivpr3fHvL5GvuJ1CnCArF01VLbFe57uc3ytpbZlv5uC58imvqiuTr8DUVrzvZLsZaQ7wrMm7a/ZIX5a/Pu10X1MpUIy2uLymoVmN120nYxXFcnXbN5Ro4h+kcnkSa9dBDD3X5e2e6uf85hrbEV0jja4X3Mn8bgcV7O2C5BBa2Y0kcG+/yWnnllYfj03/27NkvdudTWvj/jDacP2vWrAeWpu5LNMYEBXqYQPX287hLLji1X7+6U3pY/dpVnbp+/bIVBix+CGPRgiV/BbJdhZip0wJ7jj68eh51uhA3VEABBXqOQD9e4DsoqkOHcKEdwZ5zYKzJshEYN27cBvwR16E/bsn/l7333vuIZVND96KAAgoooIACCiy9QJ94QiyeylpY49cfl57HEhRQQAEFSijQ0B13pEvoaJMVUEABBRRQQAEFFOixAvGosYMCCiiggAIKKKCAAgoooIACCiiggAKlETAgVppDbUMVUEABBRRQQAEFFFBAAQUUUEABBULAgJjngQIKKKCAAgoooIACCiiggAIKKKBAqQQMiJXqcNtYBRRQQAEFFFBAAQUUUEABBRRQQAEDYp4DCiiggAIKKKCAAgoooIACCiiggAKlEjAgVqrDbWMVUEABBRRQQAEFFFBAAQUUUEABBQyIeQ4ooIACCiiggAIKKKCAAgoooIACCpRKwIBYqQ63jVVAAQUUUEABBRRQQAEFFFBAAQUUMCDmOaCAAgoooIACCiiggAIKKKCAAgooUCoBA2KlOtw2VgEFFFBAAQUUUEABBRRQQAEFFFDAgJjngAIKKKCAAgoooIACCiiggAIKKKBAqQQMiJXqcNtYBRRQQAEFnDLHawAACY9JREFUFFBAAQUUUEABBRRQQAEDYp4DCiiggAIKKKCAAgoooIACCiiggAKlEjAgVqrDbWMVUEABBRRQQAEFFFBAAQUUUEABBQyIeQ4ooIACCiiggAIKKKCAAgoooIACCpRKwIBYqQ63jVVAAQUUUEABBRRQQAEFFFBAAQUUMCDmOaCAAgoooIACCiiggAIKKKCAAgooUCoBA2KlOtw2VgEFFFBAAQUUUEABBRRQQAEFFFDAgJjngAIKKKCAAgoooIACCiiggAIKKKBAqQQMiJXqcNtYBRRQQAEFFFBAAQUUUEABBRRQQAEDYp4DCiiggAIKKKCAAgoooIACCiiggAKlEjAgVqrDbWMVUEABBRRQQAEFFFBAAQUUUEABBQyIeQ4ooIACCiiggAIKKKCAAgoooIACCpRKwIBYqQ63jVVAAQUUUEABBRRQQAEFFFBAAQUUMCDmOaCAAgoooIACCiiggAIKKKCAAgooUCoBA2KlOtw2VgEFFFBAAQUUUEABBRRQQAEFFFDAgJjngAIKKKCAAgoooIACCiiggAIKKKBAqQQMiJXqcNtYBRRQQAEFFFBAAQUUUEABBRRQQAEDYp4DCiiggAIKKKCAAgoooIACCiiggAKlEjAgVqrDbWMVUEABBRRQQAEFFFBAAQUUUEABBQyIeQ4ooIACCiiggAIKKKCAAgoooIACCpRKwIBYqQ63jVVAAQUUUEABBRRQQAEFFFBAAQUUMCDmOaCAAgoooIACCiiggAIKKKCAAgooUCoBA2KlOtw2VgEFFFBAAQUUUEABBRRQQAEFFFDAgJjngAIKKKCAAgoooIACCiiggAIKKKBAqQQMiJXqcNtYBRRQQAEFFFBAAQUUUEABBRRQQAEDYp4DCiiggAIKKKCAAgoooIACCiiggAKlEjAgVqrDbWMVUEABBRRQQAEFFFBAAQUUUEABBQyIeQ4ooIACCiiggAIKKKCAAgoooIACCpRKwIBYqQ63jVVAAQUUUEABBRRQQAEFFFBAAQUUMCDmOaCAAgoooIACCiiggAIKKKCAAgooUCoBA2KlOtw2VgEFFFBAAQUUUEABBRRQQAEFFFDAgJjngAIKKKCAAgoooIACCiiggAIKKKBAqQQMiJXqcNtYBRRQQAEFFFBAAQUUUEABBRRQQAEDYp4DCiiggAIKKKCAAgoooIACCiiggAKlEjAgVqrDbWMVUEABBRRQQAEFFFBAAQUUUEABBQyIeQ4ooIACCiiggAIKKKCAAgoooIACCpRKwIBYqQ63jVVAAQUUUEABBRRQQAEFFFBAAQUUMCDmOaCAAgoooIACCiiggAIKKKCAAgooUCoBA2KlOtw2VgEFFFBAAQUUUEABBRRQQAEFFFDAgJjngAIKKKCAAgoooIACCiiggAIKKKBAqQQMiJXqcNtYBRRQQAEFFFBAAQUUUEABBRRQQAEDYp4DCiiggAIKKKCAAgoooIACCiiggAKlEjAgVqrDbWMVUEABBRRQQAEFFFBAAQUUUEABBQyIeQ4ooIACCiiggAIKKKCAAgoooIACCpRKwIBYqQ63jVVAAQUUUEABBRRQQAEFFFBAAQUUMCDmOaCAAgoooIACCiiggAIKKKCAAgooUCoBA2KlOtw2VgEFFFBAAQUUUEABBRRQQAEFFFDAgJjngAIKKKCAAgoooIACCiiggAIKKKBAqQQMiJXqcNtYBRRQQAEFFFBAAQUUUEABBRRQQIEVJFBAAQUUUEABBRRQoChQV1e3R3G5rXnyP9tWHtcroIACCiiggAI9ScCAWE86GtZFAQUUUEABBRRYzgKjRo2K4JYBruV8HNy9AgoooIACCnSvgF+Z7F5fS1dAAQUUUEABBRRQQAEFFFBAAQUU6GECBsR62AGxOgoooIACCiiggAIKKKCAAgoooIAC3StgQKx7fS1dAQUUUEABBRRQQAEFFFBAAQUUUKCHCRgQ62EHxOoooIACCiiggAIKKKCAAgoooIACCnSvgAGx7vW1dAUUUEABBRRQQAEFFFBAAQUUUECBHiZgQKyHHRCro4ACCiiggAIKKKCAAgoooIACCijQvQIGxLrX19IVUEABBRRQQAEFFFBAAQUUUEABBXqYgAGxHnZArI4CCiiggAIKKKCAAgoooIACCiigQPcKGBDrXl9LV0ABBRRQQAEFFFBAAQUUUEABBRToYQLVgFi/flljD6ub1VFAAQUUUEABBRRQQAEFFFBAAQUUUKDLBaoBsYbGugVdXroF9nmBxqxxfp9vpA1UQAEFFFBAAQUUUEABBRRQQIE+JVANiPF82Ot9qmU2ZtkINNa9sWx25F4UUEABBRRQQAEFFFBAAQUUUECBrhGoBsQa+9VP65oiLaVkAp43JTvgNlcBBRRQQAEFFFBAAQUUUECB3i5QDYjNeXPRfVnWuKi3N8j6L2OBuuzuZbxHd6eAAgoooIACCiiggAIKKKCAAgoslUA1ILb/Mce809hYd/tSlebGpROoq68fW7pG22AFFFBAAQUUUEABBRRQQAEFFOjVAtWAWLSisbHxj726NVZ+2Qo0Zo/vefBRdy3bnbo3BRRQQAEFFFBAAQUUUEABBRRQYOkEmgTE3r32piuIik1fuiLdukQCvyhRW22qAgoooIACCiiggAIKKKCAAgr0EYEmAbH9x4ypzxqyb/WRttmMbhRobMwm7Xng4Rd34y4sWgEFFFBAAQUUUEABBRRQQAEFFOgWgSYBsdjDngcfcX1j1vj7btmbhfYJAYJhby9szA6kMY19okE2QgEFFFBAAQUUUEABBRRQQAEFSiWwREAsWj/jnQaeEmu8sVQSNrZdAkTAFjTUNez3hYMO96u17RIzkwIKKKCAAgoooIACCiiggAIK9DSBmgGxo446auFLC174Iu8Tu6qnVdj6LD+BeDKsIWsYtdfoI29ZfrVwzwoooIACCiiggAIKKKCAAgoooMDSCdS1sXnd9Zee/90sq/tpXVY3qI28ru7DAvHOsPiapE+G9eGDbNMUUEABBRRQQAEFFFBAAQUUKIlAWwGxnOHaiy/YcEC/upP5GuXorK5uQElsbCYCvE9uWl1j3c8rL9D3nWGeFQoooIACCiiggAIKKKCAAgoo0OsF2hUQS6286s/nrL5S/xW/xBNju5C2OdP16uqywcx3qJxUntOeJRDvByMC9jq1msYRvbuuvn7sngcfNYFlA2E961BZGwUUUEABBRRQQAEFFFBAAQUUUEABBRRQQAEFFFBAAQUUUEABBRRQQAEF2ifw/643Cj0q52szAAAAAElFTkSuQmCC;" vertex="1" parent="1">
          <mxGeometry x="83" y="390" width="766.76" height="450" as="geometry" />
        </mxCell>
      </root>
    </mxGraphModel>
  </diagram>
</mxfile>
